<svg width="338" height="115" viewBox="0 0 338 115" fill="none" xmlns="http://www.w3.org/2000/svg">
<path d="M18.6614 114.364C18.0736 114.324 17.4712 114.067 16.8542 113.594C16.2372 113.121 15.9099 112.645 15.8722 112.166C15.9975 110.976 16.074 109.65 16.1018 108.186C16.1295 106.723 16.1822 105.668 16.2598 105.022L10.2561 103.109C9.66445 102.777 8.7962 102.252 7.65133 101.534C6.49802 100.768 5.36199 99.8294 4.24327 98.7173C3.17142 97.5968 2.39578 96.3745 1.91637 95.0505C1.15651 93.2419 0.729374 91.1305 0.634964 88.7164C0.587425 86.2938 0.872215 83.8359 1.48933 81.3428C2.098 78.8025 2.98751 76.4792 4.15785 74.373C5.00774 72.9078 6.01285 71.6335 7.17316 70.5501C8.37189 69.4113 9.58138 68.1976 10.8016 66.909C11.0022 66.6785 11.3583 66.3715 11.8701 65.988C12.4287 65.596 12.9916 65.2276 13.5587 64.8828C14.1173 64.4909 14.5054 64.2268 14.7228 64.0905C15.0041 64.0401 15.4643 63.9089 16.1036 63.6969C16.7429 63.485 17.4291 63.2647 18.1622 63.0359C18.9421 62.7988 19.5898 62.634 20.1054 62.5415L22.3103 62.2918C22.6384 62.2329 22.8286 61.8099 22.8809 61.0225C22.9716 60.1797 22.9859 59.1804 22.9237 58.0246C22.9084 56.8604 22.8781 55.7476 22.8328 54.686C22.7652 54.3092 22.8551 54.0013 23.1025 53.7624C23.3884 53.468 23.7507 53.3301 24.1894 53.3486C24.6666 53.3117 25.2605 53.5212 25.9713 53.9771C26.7204 54.3776 27.0777 54.7511 27.0431 55.0976C27.0685 55.239 27.1534 55.4425 27.2978 55.7083C27.4338 55.9271 27.4526 56.1668 27.3543 56.4275L26.9114 62.0499C26.8599 62.3022 26.9087 62.4393 27.0578 62.4612C27.2537 62.4747 27.3709 62.4537 27.4093 62.3982L27.467 62.3149C27.8934 61.9953 28.2834 61.8767 28.6369 61.9592C29.0287 61.9861 29.4352 62.2292 29.8563 62.6885C30.1413 62.9291 30.6861 63.269 31.4906 63.7082C32.3335 64.0918 33.4 64.5082 34.6901 64.9575C36.0055 65.5481 37.0739 66.1101 37.8953 66.6435C38.7083 67.1297 39.4102 67.8061 40.001 68.6725C40.5919 69.5389 41.165 70.8462 41.7205 72.5942C42.0255 73.755 42.2306 74.7636 42.3358 75.6199C42.4326 76.4291 42.4933 77.1718 42.5179 77.8481C42.534 78.4773 42.5117 79.1621 42.4509 79.9023C42.3902 80.6425 42.3079 81.5324 42.2042 82.5721C41.8276 83.7094 41.5429 84.6842 41.35 85.4968C41.1571 86.3094 40.9365 87.1026 40.6883 87.8764C40.4401 88.6503 40.0681 89.5436 39.5725 90.5563C39.0684 91.5219 38.3168 92.7264 37.3179 94.1698C36.9421 94.772 36.5153 95.3591 36.0373 95.9311C35.5978 96.4475 35.1624 96.9875 34.7314 97.5511C34.1766 98.2341 33.2552 99.0314 31.9674 99.9432C30.6795 100.855 29.3279 101.681 27.9125 102.421C26.5355 103.106 25.3783 103.532 24.4409 103.7C23.9806 103.831 23.2583 103.985 22.274 104.162C21.3281 104.283 20.723 104.416 20.4587 104.56L20.0564 104.341C20.2085 105.189 20.2965 106.218 20.3202 107.43C20.3993 108.68 20.4177 110.67 20.3753 113.4C20.247 113.764 20.0272 114.022 19.716 114.175C19.4133 114.375 19.0617 114.438 18.6614 114.364ZM16.3614 101.138C16.4636 101.168 16.5105 101.16 16.502 101.113C16.5404 101.057 16.5385 100.912 16.4963 100.676C16.4924 100.385 16.4698 99.8546 16.4283 99.0841C16.4253 98.258 16.4222 97.432 16.4192 96.606C16.4546 95.7244 16.5322 95.0784 16.6521 94.6679C16.6437 94.6208 16.719 94.0968 16.8781 93.0958C17.0372 92.0948 17.2435 90.818 17.4972 89.2652C17.7424 87.6653 17.9941 85.967 18.2523 84.1703C18.549 82.3181 18.8391 80.5642 19.1227 78.9088C19.4532 77.245 19.7599 75.8529 20.0427 74.7325C20.3386 73.4153 20.6387 72.1216 20.943 70.8514C21.2473 69.5813 21.4683 68.5206 21.6059 67.6693C21.7903 66.8097 21.8357 66.3883 21.7419 66.4051C20.9751 66.4454 20.2294 66.6035 19.5048 66.8793C18.7717 67.1081 18.0471 67.3839 17.331 67.7069C16.4742 68.0551 15.5383 68.6362 14.5232 69.4504C13.555 70.2562 12.6421 71.1007 11.7846 71.9838C10.927 72.867 10.2166 73.6265 9.65335 74.2624C8.16415 75.9396 7.18823 77.6462 6.72559 79.3824C6.48581 80.2033 6.1861 81.2295 5.82644 82.461C5.51366 83.684 5.25197 84.9222 5.04138 86.1755C4.87766 87.4204 4.88031 88.514 5.04931 89.4561C4.9932 89.9524 4.97551 90.3931 4.99624 90.7784C5.01697 91.1636 5.06536 91.5682 5.14141 91.9922C5.36957 93.2641 5.75141 94.3139 6.28695 95.1416C6.8609 95.9138 7.39029 96.5725 7.87512 97.1176C8.90855 98.2937 10.0553 99.1576 11.3155 99.7095C12.6225 100.253 13.7785 100.629 14.7835 100.838C15.7801 100.999 16.3061 101.099 16.3614 101.138ZM20.8484 100.26C20.8653 100.355 21.155 100.351 21.7175 100.25C22.2799 100.149 22.8808 99.993 23.5201 99.7811C24.2063 99.5607 24.6539 99.3589 24.8629 99.1755C25.2041 98.9198 25.6943 98.686 26.3336 98.4741C26.9645 98.2151 27.6872 97.7937 28.5017 97.21C30.9322 95.6557 32.8009 93.6673 34.1081 91.2448C35.4536 88.7668 36.5287 86.2644 37.3333 83.7376C37.4747 83.1774 37.6146 82.2042 37.753 80.818C37.9382 79.4233 38.0808 78.0606 38.1807 76.7299C38.1984 76.2892 38.2161 75.8484 38.2338 75.4076C38.2431 74.9197 38.1586 74.4487 37.9803 73.9944C37.8274 73.6815 37.698 73.3644 37.5919 73.043C37.5328 72.7133 37.4502 72.3878 37.3442 72.0664C36.844 70.3571 35.7595 69.166 34.0906 68.4929C32.792 67.9965 31.7574 67.623 30.9867 67.3722C30.2076 67.0744 29.4646 66.843 28.7577 66.6781C28.0423 66.4661 27.1118 66.2684 25.9662 66.0849C25.9738 66.667 25.9454 67.1826 25.8808 67.6318C25.8547 68.0255 25.7494 68.6521 25.5649 69.5118C25.3805 70.3714 25.1165 71.7316 24.7729 73.5922C24.6699 74.0969 24.4855 74.9566 24.2196 76.1712C24.0005 77.3774 23.7365 78.7376 23.4276 80.2517C23.1655 81.7573 22.8842 83.2908 22.5837 84.8519C22.3216 86.3576 22.0853 87.7371 21.8747 88.9904C21.711 90.2354 21.6095 91.1531 21.5703 91.7436C21.4496 92.689 21.2821 93.6429 21.0676 94.6052C20.8916 95.5119 20.8413 96.4448 20.9165 97.4037C20.9035 97.6006 20.8773 97.9942 20.8381 98.5847C20.8458 99.1668 20.8492 99.7254 20.8484 100.26Z" fill="white"/>
<path d="M57.9805 102.424C56.5105 102.591 55.1413 102.374 53.8727 101.775C52.651 101.168 51.3547 100.55 49.984 99.9203C49.0435 99.2624 48.2586 98.528 47.6293 97.7171C46.9916 96.859 46.3969 95.7015 45.8453 94.2446C45.4972 93.3832 45.2944 92.2527 45.2369 90.853C45.1793 89.4533 45.2389 88.0325 45.4157 86.5908C45.584 85.1019 45.7796 83.8999 46.0025 82.9847C46.3284 81.5649 46.7779 80.0256 47.3512 78.3668C47.9629 76.6526 48.5681 75.0367 49.1667 73.5193C49.8038 71.9464 50.3041 70.6897 50.6676 69.7493C50.9365 69.3607 51.0475 69.1706 51.0007 69.179C50.9922 69.1319 50.988 69.1084 50.988 69.1084C50.9457 68.8728 51.0745 68.242 51.3742 67.2157C51.7123 66.134 52.0013 65.1827 52.241 64.3617C52.8089 63.4819 53.0975 62.7981 53.1067 62.3102C53.116 61.8223 52.9781 61.4581 52.693 61.2175C52.5654 61.0459 52.6703 60.6867 53.0077 60.14C53.345 59.5932 53.8806 58.938 54.6145 58.1743C55.3483 57.4105 56.1993 56.6258 57.1675 55.82C58.1319 54.7232 59.1255 54.0588 60.1482 53.8267C61.2093 53.5391 61.8801 53.6375 62.1606 54.1221C62.1859 54.2634 62.4522 54.2642 62.9593 54.1246C63.5049 53.9295 64.1165 53.6983 64.7942 53.4308C65.5104 53.1079 66.1413 52.8488 66.6868 52.6537C66.8705 52.329 67.3715 52.0204 68.1898 51.7277C69.0466 51.3795 70.0482 51.0297 71.1946 50.6781C71.8124 50.6159 72.4025 50.5344 72.965 50.4335C73.5659 50.2771 74.0496 50.1417 74.4161 50.0273C74.8295 49.9045 75.0362 49.8431 75.0362 49.8431C75.3474 49.6901 75.7309 49.6699 76.1865 49.7827C76.689 49.887 77.2038 50.3295 77.7309 51.1101C78.2111 51.8992 78.208 52.5561 77.7216 53.081C77.2821 53.5974 76.1225 54.1458 74.243 54.7261C72.8707 55.1667 71.6816 55.5502 70.6758 55.8765C69.6615 56.1557 68.6088 56.4904 67.5176 56.8806C66.4181 57.2238 65.0818 57.7309 63.5089 58.402C62.3794 58.8478 61.4692 59.3028 60.7784 59.767C60.0791 60.1842 59.5032 60.7494 59.0506 61.4627C58.5895 62.1289 58.1047 63.0668 57.5959 64.2763C57.3101 64.5707 56.9981 65.2588 56.66 66.3405C56.3218 67.4222 55.9837 68.5039 55.6455 69.5856C54.6627 71.6582 53.8016 73.4658 53.0624 75.0085C52.3616 76.4956 52.126 77.3401 52.3558 77.542C52.3558 77.542 52.6262 77.5664 53.1672 77.6152C53.7081 77.6641 54.0723 77.6717 54.2598 77.638C54.6863 77.3184 55.2192 77.0526 55.8585 76.8407C56.5446 76.6204 57.0902 76.4253 57.4952 76.2554C60.266 74.9804 62.4337 73.9837 63.9981 73.2655C65.6095 72.5389 66.8201 72.0056 67.63 71.6659C68.4783 71.2706 69.1326 71.0073 69.5929 70.8761C70.1561 70.2403 70.772 70.0325 71.4405 70.253C72.1558 70.465 72.7644 70.8907 73.2661 71.53C73.5934 72.0061 73.6737 72.4536 73.5069 72.8725C73.387 73.283 72.8688 73.765 71.952 74.3184C71.0822 74.8634 69.7563 75.5632 67.9744 76.4176C66.1925 77.2721 63.8542 78.3966 60.9597 79.7911C58.5169 81.0072 56.3942 81.8499 54.5916 82.3192C52.7889 82.7884 51.8499 82.5435 51.7747 81.5846C51.4128 81.455 51.0801 81.7578 50.7765 82.493C50.5114 83.1726 50.2885 84.0878 50.1079 85.2385C49.9273 86.3892 49.8062 87.6022 49.7447 88.8774C49.73 90.1442 49.773 91.3277 49.8736 92.428C50.0127 93.4727 50.2224 94.2373 50.5028 94.7219C51.0722 95.738 51.7207 96.5212 52.4483 97.0714C53.1675 97.5745 54.3662 97.9186 56.0443 98.1038C56.9902 97.9827 57.9169 97.8894 58.8243 97.8239C59.7318 97.7583 60.7057 97.3891 61.7462 96.7163C64.4271 95.7491 66.5179 94.8635 68.0186 94.0595C69.5193 93.2554 70.3699 92.7382 70.5705 92.5077C70.9117 92.252 71.1291 92.1157 71.2229 92.0989C71.355 92.0266 71.5383 91.9694 71.7727 91.9274C71.6743 92.1881 71.7254 92.2033 71.926 91.9728C72.1649 91.6868 72.4765 91.2663 72.8607 90.7111C73.2918 90.1476 73.8912 89.5781 74.6588 89.0028C75.4265 88.4275 76.1173 87.9633 76.7312 87.61C77.3921 87.2484 77.767 87.1811 77.8562 87.4082C78.2219 87.8288 78.2933 88.4967 78.0705 89.4119C77.8391 90.28 77.32 91.2969 76.5132 92.4627C75.6979 93.5814 74.5971 94.727 73.2109 95.8995C70.9633 97.6641 68.4329 99.0661 65.6198 100.106C62.8152 101.192 60.2687 101.965 57.9805 102.424Z" fill="white"/>
<path d="M103.189 95.1894C102.448 95.371 101.417 95.556 100.096 95.7443C98.7751 95.9326 97.3501 95.9452 95.821 95.7819C94.3472 95.6573 92.9592 95.2012 91.6568 94.4138C90.346 93.5793 89.334 92.2535 88.6211 90.4366C87.5854 87.8995 86.9527 85.0471 86.7231 81.8792C86.4935 78.7114 86.5067 75.5486 86.7627 72.3908C86.845 71.5009 87.0959 70.3376 87.5155 68.9009C87.9266 67.4171 88.4381 65.8181 89.0498 64.1038C89.7084 62.3812 90.3988 60.7014 91.1212 59.0645C91.8351 57.3806 92.5167 55.9212 93.166 54.6864C93.6486 53.8705 94.2357 52.9629 94.9273 51.9637C95.6189 50.9644 96.3423 50.0081 97.0977 49.0946C97.8446 48.134 98.5424 47.3039 99.1909 46.6041C99.8394 45.9043 100.339 45.4501 100.688 45.2415C101.277 44.7469 101.829 44.4534 102.344 44.3609C102.852 44.2213 103.618 44.181 104.645 44.2399C105.31 44.1693 106.032 44.2829 106.811 44.5808C107.581 44.8315 108.267 45.1461 108.867 45.5247C109.514 45.8949 109.899 46.2877 110.022 46.7033C110.119 46.9775 110.631 46.8614 111.556 46.3551C111.816 45.9194 112.079 45.6292 112.343 45.4846C112.654 45.3315 112.935 45.2811 113.187 45.3332C113.438 45.3854 113.617 45.5721 113.723 45.8935C113.517 46.3679 113.632 46.7363 114.066 46.9988C114.198 46.9265 114.264 47.1578 114.263 47.6928C114.254 48.1807 114.191 48.7754 114.075 49.4769C113.959 50.1784 113.784 50.8177 113.548 51.3947C113.548 51.3947 113.523 51.5209 113.471 51.7732C113.467 52.0172 113.464 52.1391 113.464 52.1391C113.6 52.3579 113.596 52.6018 113.45 52.871C113.305 53.1401 113.179 53.3815 113.072 53.5952C112.974 53.8559 112.862 54.3135 112.738 54.9679C112.652 55.5668 112.583 56.26 112.53 57.0473C112.47 57.7875 112.424 58.4764 112.393 59.114C112.401 59.6961 112.426 60.1049 112.468 60.3405C112.621 60.6534 112.514 60.867 112.148 60.9814C111.773 61.0487 111.161 61.0125 110.314 60.8728C109.215 60.6809 108.47 60.304 108.079 59.7421C107.735 59.1717 107.66 57.9453 107.854 56.0628C108.122 53.7782 108.21 52.1093 108.117 51.0562C108.025 50.003 107.605 49.2762 106.855 48.8758C106.545 48.4939 105.983 48.3273 105.169 48.376C104.347 48.3776 103.708 48.5895 103.251 49.0118C102.599 49.4205 101.778 50.3702 100.787 51.8606C99.788 53.304 98.776 54.9442 97.7509 56.7812C96.7258 58.6183 95.8286 60.3594 95.0594 62.0047C93.4441 65.4063 92.3187 68.8415 91.6831 72.3104C91.0943 75.771 90.9767 79.0254 91.33 82.0739C91.6833 85.1223 92.4781 87.7998 93.7143 90.1063C93.8419 90.2779 94.1949 90.6279 94.7735 91.1562C95.3521 91.6845 95.7989 92.0176 96.1139 92.1556C97.673 92.2163 99.7864 91.8615 102.454 91.0911C104.402 90.3527 105.777 89.5226 106.579 88.6007C107.429 87.6705 108.18 86.466 108.834 84.9873C109.214 84.1411 109.641 83.554 110.115 83.2259C110.635 82.8895 111.108 82.829 111.534 83.0443C112.006 83.2513 112.365 83.7703 112.611 84.6014C112.653 84.837 112.531 85.3694 112.245 86.1988C111.996 86.9726 111.674 87.7356 111.276 88.4875C110.926 89.2311 110.618 89.6752 110.354 89.8199C110.175 89.9006 110.066 89.9687 110.028 90.0243C110.036 90.0714 110.085 90.2085 110.174 90.4356C110.208 90.624 109.954 90.9613 109.412 91.4475C108.871 91.9336 108.188 92.445 107.365 92.9816C106.598 93.5569 105.813 94.038 105.012 94.4249C104.266 94.8505 103.658 95.1053 103.189 95.1894Z" fill="white"/>
<path d="M130.276 89.4551C129.824 89.6334 129.305 89.7024 128.717 89.6619C128.137 89.6686 127.605 89.3994 127.12 88.8543C126.636 88.3092 126.337 87.3174 126.224 85.879C126.111 84.4406 126.28 82.4168 126.731 79.8075C126.796 79.3583 126.925 78.46 127.119 77.1124C127.351 75.7094 127.604 74.1566 127.88 72.4541C128.155 70.7516 128.428 69.1711 128.698 67.7125C129.015 66.2455 129.292 65.2235 129.527 64.6465C129.638 64.1889 129.669 63.8188 129.618 63.5362C129.614 63.2451 129.595 63.0054 129.562 62.817C129.519 62.5814 129.558 62.2584 129.678 61.848C129.836 61.382 129.971 60.9202 130.083 60.4626C130.232 59.9495 130.344 59.4919 130.417 59.0898C130.528 58.6322 130.559 58.2621 130.508 57.9795C130.508 57.9795 130.553 57.5581 130.644 56.7152C130.726 55.8253 130.858 54.8049 131.038 53.6542C131.219 52.5035 131.48 51.5328 131.822 50.7422C132.05 49.5831 132.279 48.5695 132.51 47.7014C132.742 46.8333 132.832 46.258 132.781 45.9753C132.765 45.8811 132.24 45.9265 131.209 46.1115C130.178 46.2965 128.944 46.5664 127.508 46.9213C126.064 47.229 124.717 47.5435 123.468 47.8648C122.22 48.186 121.35 48.4635 120.86 48.6973C120.455 48.8672 120.097 49.0287 119.786 49.1818C119.466 49.2877 119.255 49.3256 119.153 49.2953C118.949 49.2347 118.668 49.0177 118.311 48.6442C118 48.2622 117.775 47.8164 117.635 47.3067C117.534 46.7414 117.716 46.2712 118.181 45.8961C118.931 45.2265 119.626 44.7858 120.266 44.5739C120.952 44.3536 121.693 44.1719 122.49 44.029C123.325 43.8305 124.316 43.5555 125.463 43.204C126.541 43.0106 127.47 42.7953 128.25 42.5582C129.021 42.2739 129.501 42.115 129.688 42.0814C130.157 41.9973 130.702 41.8022 131.325 41.496C131.994 41.1815 132.774 40.9443 133.664 40.7846C134.274 40.6753 134.875 40.5188 135.467 40.3153C136.051 40.0647 136.577 39.8973 137.046 39.8133C137.281 39.7712 137.843 39.6703 138.734 39.5106C139.624 39.3508 140.515 39.191 141.405 39.0313C142.062 38.9136 142.935 38.6596 144.026 38.2694C145.117 37.8792 145.998 37.5268 146.667 37.2122C148.739 36.3544 150.381 35.9381 151.595 35.9634C152.856 35.9804 153.803 36.5398 154.436 37.6418C154.81 38.6445 154.191 39.5092 152.58 40.2358C151.007 40.9069 148.155 41.7344 144.026 42.7183C142.044 43.2683 140.687 43.6577 139.954 43.8864C139.221 44.1151 138.892 44.4415 138.969 44.8654C139.019 45.1481 138.948 45.4282 138.756 45.7058C138.603 45.9278 138.453 46.1734 138.308 46.4426C138.137 46.5704 137.913 47.0726 137.635 47.9491C137.404 48.8171 137.193 49.803 137.004 50.9066C136.815 52.0102 136.66 53.0347 136.54 53.9802C136.41 54.8785 136.367 55.4455 136.409 55.681C136.409 55.681 136.345 55.8627 136.217 56.2261C136.127 56.5339 136.099 56.7821 136.133 56.9705C136.03 57.4752 135.869 58.0631 135.651 58.7344C135.479 59.3972 135.319 59.9852 135.169 60.4983C134.804 62.5086 134.488 64.1211 134.222 65.3358C134.003 66.542 133.812 67.5001 133.65 68.21C133.525 68.8644 133.411 69.444 133.308 69.9487C133.231 70.5947 133.112 71.6857 132.952 73.2216C132.792 74.7576 132.579 76.1329 132.313 77.3475C132.138 77.7193 131.969 77.9927 131.807 78.1676C131.684 78.287 131.655 78.5352 131.723 78.912C131.732 78.9591 131.705 79.3528 131.645 80.093C131.584 80.8333 131.478 81.7274 131.328 82.7755C131.215 83.7681 131.084 84.7884 130.933 85.8365C130.821 86.829 130.707 87.6761 130.591 88.3776C130.475 89.0791 130.37 89.4383 130.276 89.4551Z" fill="white"/>
<path d="M186.585 80.5209C186.304 80.5713 185.912 80.5444 185.41 80.44C184.907 80.3357 184.373 80.1884 183.806 79.9983C183.295 79.8468 182.823 79.6399 182.389 79.3774C182.001 79.1065 181.782 78.8298 181.732 78.5471C181.681 78.2645 181.607 77.9861 181.509 77.7118C181.403 77.3905 181.372 77.0801 181.415 76.7807C181.514 75.9849 181.594 75.2169 181.655 74.4767C181.762 73.7281 181.819 72.9643 181.824 72.1854C181.802 69.9041 181.878 67.6296 182.052 65.3618C182.272 63.0857 182.469 60.8137 182.643 58.5459C182.682 57.9554 182.782 56.8922 182.942 55.3562C183.14 53.7647 183.352 51.9764 183.576 49.9913C183.792 47.959 183.993 45.9781 184.179 44.0485C184.412 42.1105 184.578 40.4761 184.678 39.1454C184.77 37.7675 184.748 36.9693 184.612 36.7505C184.399 36.6429 184.254 36.6445 184.177 36.7556C184.147 36.8582 184.094 36.965 184.017 37.076C183.201 38.7297 182.365 40.4111 181.511 42.1203C180.648 43.7824 179.785 45.4445 178.922 47.1066C177.991 48.9268 177.008 50.7319 175.975 52.5218C174.941 54.3117 173.912 56.1252 172.887 57.9623C172.199 59.2526 171.52 60.59 170.849 61.9745C170.169 63.3119 169.458 64.6064 168.715 65.858C168.194 66.7294 167.724 67.616 167.305 68.5177C166.887 69.4194 166.417 70.3059 165.896 71.1774C165.345 72.1514 164.736 73.2087 164.07 74.3493C163.404 75.4898 162.718 76.6582 162.013 77.8543C161.347 78.9948 160.653 80.1161 159.932 81.2179C159.249 82.2643 158.549 83.2165 157.832 84.0744C157.554 84.4159 157.115 84.6648 156.514 84.8213C155.96 84.9693 155.4 84.9482 154.834 84.758C154.276 84.615 153.923 84.2651 153.775 83.7082C153.542 82.6803 153.416 81.4387 153.397 79.9835C153.424 78.5198 153.499 77.0478 153.62 75.5674C153.734 74.0398 153.865 72.752 154.016 71.7039C154.064 71.1605 154.139 70.6365 154.242 70.1318C154.337 69.58 154.408 69.0324 154.455 68.489C154.451 68.1979 154.448 67.9069 154.444 67.6159C154.487 67.3164 154.53 67.017 154.573 66.7175C154.774 65.9521 154.89 65.2505 154.921 64.6129C154.952 63.9753 154.9 63.2797 154.764 62.526C154.761 62.2349 154.802 61.79 154.888 61.1911C154.974 60.5921 155.079 59.9655 155.204 59.3111C155.328 58.6566 155.408 58.1562 155.442 57.8096C155.55 57.061 155.634 56.3165 155.695 55.5763C155.794 54.7806 155.948 54.0235 156.158 53.3052C156.227 53.1471 156.257 53.0444 156.248 52.9973C156.24 52.9502 156.246 52.8518 156.268 52.7021C156.24 51.1998 156.365 50.0104 156.644 49.1339C156.96 48.2019 157.247 47.105 157.505 45.8433L157.499 45.4067C157.594 44.8549 157.682 44.4015 157.763 44.0466C157.883 43.6361 157.994 43.1785 158.097 42.6738C158.149 42.4215 158.077 42.2886 157.881 42.2751C157.723 42.2061 157.721 42.0606 157.875 41.8385C158.165 41.3002 158.26 41.0159 158.157 40.9856C158.055 40.9553 158.041 40.7391 158.114 40.337C158.366 39.8542 158.58 39.1594 158.756 38.2527C158.979 37.3375 159.174 36.403 159.341 35.4491C159.5 34.4481 159.631 33.6953 159.734 33.1906C159.769 32.844 159.848 32.611 159.972 32.4916C160.087 32.3251 160.296 32.1417 160.599 31.9415C161.29 31.4773 161.914 31.3166 162.472 31.4597C163.03 31.6027 163.472 31.9123 163.8 32.3884C164.127 32.8645 164.322 33.413 164.385 34.0338C164.486 34.5991 164.435 35.1189 164.229 35.5933C164.161 35.7514 164.116 35.9054 164.094 36.0551C164.111 36.1493 164.09 36.299 164.03 36.5043C163.986 37.3387 163.844 38.1664 163.605 38.9874C163.356 39.7612 163.14 40.578 162.956 41.4376C162.793 42.1476 162.55 43.358 162.228 45.0689C161.953 46.7714 161.635 48.7734 161.273 51.0748C160.904 53.3291 160.551 55.6776 160.215 58.1203C159.871 60.516 159.561 62.8325 159.285 65.07C159 67.2604 158.81 69.1664 158.714 70.7882C158.609 72.3629 158.631 73.4286 158.78 73.9855C159.271 73.2167 159.738 72.4521 160.182 71.6917C160.618 70.8842 161.034 70.1045 161.432 69.3525C162.478 67.3658 163.604 65.4135 164.808 63.4957C166.004 61.5308 167.101 59.5592 168.101 57.5809C168.665 56.41 169.285 55.2778 169.959 54.1844C170.681 53.0825 171.324 51.9461 171.888 50.7753C172.285 50.0233 172.686 49.2949 173.092 48.59C173.545 47.8767 173.946 47.1483 174.297 46.4047C175.403 44.2127 176.589 42.0552 177.853 39.9322C179.108 37.7621 180.317 35.6004 181.479 33.4471C181.769 32.9087 182.241 32.1677 182.894 31.2239C183.548 30.2802 184.233 29.3794 184.95 28.5214C185.658 27.6164 186.249 26.9998 186.722 26.6718C187.281 26.2799 187.88 26.2454 188.518 26.5685C189.148 26.8444 189.736 27.1523 190.28 27.4922C191.055 28.034 191.386 28.8012 191.274 29.7937C191.222 30.0461 191.152 30.3262 191.062 30.634C190.963 30.8948 190.888 31.1513 190.837 31.4037C190.559 32.2802 190.332 33.1718 190.156 34.0786C189.971 34.9382 189.814 35.8172 189.685 36.7156C189.556 37.6139 189.455 38.5316 189.381 39.4687C189.393 39.8069 189.39 40.1963 189.373 40.6371C189.355 41.0779 189.31 41.4993 189.237 41.9014C189.044 42.7139 188.77 43.6139 188.415 44.6014C188.098 45.5334 188.048 46.4663 188.264 47.4C188.365 47.9653 188.341 48.5045 188.191 49.0176C187.921 49.9411 187.777 50.8908 187.759 51.8666C187.74 52.8423 187.698 53.8223 187.633 54.8064C187.528 56.3811 187.4 57.96 187.249 59.543C187.144 61.1177 187.016 62.6965 186.865 64.2796C186.713 65.8627 186.562 67.4457 186.411 69.0288C186.263 70.9029 186.245 72.8267 186.357 74.8001C186.461 76.7263 186.537 78.6333 186.585 80.5209Z" fill="white"/>
<path d="M204.258 78.5903C202.006 77.6329 200.44 76.7227 199.56 75.8596C198.687 75.0436 198.812 74.1217 199.934 73.0938C200.182 72.855 200.657 72.94 201.359 73.3488C202.1 73.7022 202.719 74.053 203.217 74.4012C204.306 75.081 205.548 75.3932 206.941 75.3377C208.389 75.321 209.938 74.9216 211.588 74.1394C213.447 73.1739 215.005 72.0191 216.264 70.675C217.561 69.2754 218.722 67.657 219.747 65.82C220.504 64.3716 220.938 62.8836 221.051 61.356C221.156 59.7814 221.047 58.3665 220.725 57.1115C220.45 55.848 220.032 54.9992 219.47 54.5652C218.003 53.1267 216.159 52.2904 213.94 52.0564C211.759 51.7669 209.331 52.2512 206.653 53.5094C206.334 53.6154 205.859 53.7979 205.228 54.0569C204.597 54.3159 204.036 54.5624 203.546 54.7962C203.047 54.9829 202.775 55.0804 202.728 55.0888C202.416 55.2419 202.18 55.4059 202.018 55.5809C201.847 55.7087 201.676 56.1041 201.505 56.7669C201.372 57.3742 201.183 58.4778 200.938 60.0777C200.684 61.6305 200.299 63.9361 199.783 66.9945C199.315 70.0446 198.885 72.2366 198.496 73.5707C198.145 74.8492 197.726 75.4834 197.241 75.4733C196.793 75.4077 196.161 74.9862 195.345 74.2089C194.851 73.6167 194.503 73.0228 194.299 72.4272C194.087 71.7846 194.14 70.9972 194.456 70.0652C194.614 69.5992 194.734 69.1888 194.816 68.8338C194.889 68.4317 194.962 67.7621 195.036 66.8251C195.144 66.0765 195.369 64.7718 195.713 62.9112C196.095 60.995 196.543 58.7752 197.058 56.2518C197.565 53.6812 198.105 51.0316 198.68 48.3028C199.255 45.5741 199.808 42.9952 200.34 40.5659C200.919 38.1282 201.397 36.0733 201.774 34.4011C202.168 32.8231 202.377 31.6917 202.399 31.007C202.421 30.3223 202.311 29.9774 202.068 29.9724C202.026 29.7368 201.918 29.5375 201.743 29.3743C201.56 29.164 201.476 28.9604 201.489 28.7636C201.455 28.5751 201.713 28.2614 202.263 27.8223C202.86 27.3749 203.508 26.9426 204.208 26.5254C204.954 26.0998 205.546 25.8963 205.985 25.9148C206.219 25.8728 206.501 25.8224 206.829 25.7635C207.148 25.6575 207.291 25.5103 207.257 25.3219C207.398 25.2967 207.835 25.1697 208.568 24.941C209.301 24.7122 210.121 24.5651 211.029 24.4995C214.22 24.2188 216.822 24.7001 218.835 25.9435C220.84 27.1398 222.055 29.0611 222.482 31.7075C222.578 32.5167 222.351 33.6758 221.799 35.1848C221.294 36.6854 220.602 38.2197 219.722 39.7875C218.889 41.347 218.041 42.6903 217.179 43.8174C216.663 44.4449 216.104 45.1043 215.502 45.7957C214.939 46.4316 214.433 46.9842 213.985 47.4535C213.576 47.8674 213.371 48.0743 213.371 48.0743C213.371 48.0743 213.571 48.1113 213.971 48.1853C214.372 48.2594 214.795 48.3292 215.243 48.3949C217.542 48.8089 219.505 49.5022 221.131 50.4747C222.757 51.4472 224.022 52.9706 224.926 55.045C225.241 55.718 225.397 56.5894 225.395 57.6594C225.441 58.721 225.416 59.7951 225.32 60.8819C225.217 61.9216 225.064 62.8242 224.863 63.5896C224.594 63.9782 224.399 64.3777 224.279 64.7882C224.151 65.1516 224.087 65.3333 224.087 65.3333C224.104 65.4275 223.984 65.838 223.727 66.5647C223.462 67.2444 223.139 68.0073 222.759 68.8535C222.379 69.6997 222.005 70.4474 221.637 71.0968C221.236 71.5577 220.754 72.1061 220.191 72.742C219.674 73.3695 219.06 73.9902 218.348 74.6042C217.682 75.2098 216.934 75.7574 216.102 76.2469C214.891 77.0476 213.529 77.6809 212.016 78.1468C210.559 78.6514 209.133 78.9314 207.74 78.9868C206.356 79.0893 205.195 78.9572 204.258 78.5903ZM202.824 50.7686C202.824 50.7686 203.233 50.6223 204.051 50.3296C204.908 49.9814 205.835 49.6206 206.832 49.2472C207.821 48.8267 208.533 48.4802 208.968 48.2077C209.177 48.0243 209.471 47.7771 209.851 47.4659C210.277 47.1462 210.683 46.7089 211.067 46.1537C211.613 45.4236 212.277 44.405 213.059 43.0979C213.879 41.7353 214.667 40.3297 215.423 38.8813C216.171 37.3858 216.709 36.0736 217.039 34.9447C217.813 33.0555 218.175 31.7021 218.125 30.8845C218.066 30.0198 217.678 29.3359 216.959 28.8328C216.444 28.3903 215.658 28.1909 214.602 28.2346C213.583 28.2227 212.52 28.3648 211.412 28.6608C210.296 28.9097 209.36 29.2234 208.606 29.6019C208.03 29.8996 207.604 30.2192 207.326 30.5607C207.04 30.8551 206.944 31.2614 207.037 31.7795C207.113 32.2035 207.048 32.6527 206.843 33.1271C206.677 33.546 206.497 33.8942 206.305 34.1718C206.317 34.5099 206.255 34.8371 206.118 35.1534C205.973 35.4226 205.9 35.5571 205.9 35.5571C205.934 35.7456 205.746 36.5817 205.334 38.0655C204.923 39.5493 204.55 41.245 204.215 43.1528C203.735 45.3297 203.374 47.0961 203.134 48.4521C202.885 49.7609 202.781 50.5331 202.824 50.7686Z" fill="white"/>
<path d="M258.033 71.4235C258.352 71.8525 258.239 72.1645 257.693 72.3597C257.148 72.5548 256.366 72.3789 255.349 71.8321C254.927 71.9077 254.568 71.6562 254.27 71.0775C254.028 70.5374 253.855 69.5718 253.75 68.1805C253.646 66.7891 253.542 64.8629 253.44 62.4016C253.445 61.6227 253.395 60.8051 253.29 59.9487C253.223 59.0369 253.133 58.1293 253.019 57.2259C252.905 56.3224 252.785 55.5174 252.658 54.8108L252.523 51.6262L250.765 51.9415C250.189 52.2392 249.226 52.5336 247.875 52.8245C246.563 53.0599 245.363 53.2508 244.277 53.3971C242.956 53.5854 241.886 53.8259 241.068 54.1186C240.288 54.3557 239.685 54.6341 239.259 54.9537C238.879 55.2649 238.661 55.6687 238.605 56.165C238.639 56.3534 238.523 57.0549 238.257 58.2695C238.038 59.4757 237.718 60.7972 237.299 62.2339C236.415 66.4767 235.612 69.4165 234.89 71.0534C234.176 72.7373 233.038 73.1359 231.476 72.2492C231.054 72.3249 230.852 71.8749 230.871 70.8991C230.936 69.915 231.178 68.7045 231.598 67.2679C231.948 66.5243 232.252 65.7891 232.509 65.0624C232.757 64.2885 232.881 63.9016 232.881 63.9016C232.847 63.7132 232.824 63.4499 232.812 63.1117C232.846 62.7652 232.964 62.2092 233.166 61.4437C233.359 60.6312 233.699 59.4275 234.187 57.8327C234.303 57.1311 234.413 56.528 234.516 56.0233C234.619 55.5186 234.653 55.1721 234.619 54.9837C234.619 54.9837 234.675 54.7549 234.787 54.2973C234.945 53.8313 235.178 53.1087 235.486 52.1296C235.444 51.8941 235.472 51.646 235.57 51.3852C235.707 51.0689 235.738 50.6988 235.662 50.2749C235.854 49.9973 236.008 49.5078 236.124 48.8062C236.231 48.0576 236.341 47.4545 236.452 46.9969C236.334 46.3374 236.395 45.5972 236.635 44.7762C236.866 43.9082 237.037 43.2453 237.149 42.7878C237.299 42.2746 237.433 41.8129 237.553 41.4024C237.665 40.9448 237.704 40.6218 237.67 40.4334C237.67 40.4334 237.668 40.2878 237.664 39.9968C237.699 39.6502 237.87 38.9874 238.178 38.0083C237.991 38.0419 237.946 37.9284 238.044 37.6676C238.19 37.3985 238.442 36.9157 238.801 36.2192C238.716 35.7481 238.738 35.3309 238.866 34.9675C239.033 34.5487 239.13 33.8749 239.157 32.9462C239.349 32.6687 239.467 32.3801 239.51 32.0807C239.544 31.7341 239.6 31.2379 239.678 30.5918C239.944 29.3772 240.197 28.3594 240.436 27.5385C240.668 26.6704 240.783 26.2364 240.783 26.2364C240.783 26.2364 240.843 26.0311 240.963 25.6206C241.13 25.2017 241.248 24.6457 241.317 23.9526C241.433 23.2511 241.547 22.6715 241.658 22.214C241.761 21.7093 241.796 21.3627 241.762 21.1743C241.997 21.1322 242.191 21.0002 242.344 20.7781C242.489 20.509 242.52 20.1389 242.435 19.6678C242.44 19.4239 242.547 19.2102 242.756 19.0268C243.003 18.788 243.459 18.6332 244.124 18.5626C245.829 17.8192 247.384 17.5888 248.79 17.8715C250.195 18.1543 251.387 18.8643 252.365 20.0016C253.39 21.1305 254.122 22.6523 254.563 24.5668C254.85 26.1684 255.128 28.2579 255.397 30.8352C255.704 33.3571 256.002 36.0993 256.292 39.0619C256.573 41.9774 256.775 44.8584 256.899 47.705C256.944 48.7665 256.992 49.9736 257.041 51.3262C257.137 52.6704 257.252 53.9868 257.386 55.2755C257.512 56.5171 257.632 57.5896 257.746 58.493C258.136 62.5559 258.376 65.6489 258.467 67.772C258.557 69.8951 258.413 71.1123 258.033 71.4235ZM241.88 49.7429C242.114 49.7008 242.438 49.6184 242.851 49.4956C243.312 49.3645 243.83 49.15 244.405 48.8523C245.07 48.7817 245.867 48.6387 246.796 48.4234C247.771 48.1998 248.57 47.9348 249.193 47.6287C250.246 47.294 250.998 47.0375 251.45 46.8592C251.94 46.6254 252.222 46.3075 252.295 45.9054C252.414 45.4949 252.398 44.8657 252.246 44.0178C252.204 43.7823 252.132 43.3819 252.031 42.8166C251.968 42.1958 251.877 41.5557 251.759 40.8962C251.68 39.6462 251.546 38.09 251.357 36.2277C251.168 34.3653 250.955 32.5072 250.72 30.6532C250.484 28.7993 250.248 27.2128 250.011 25.8938C249.813 24.5193 249.65 23.7463 249.522 23.5747C249.438 23.1036 249.187 22.784 248.77 22.6157C248.399 22.439 248.097 22.3717 247.863 22.4138C247.253 22.5231 246.682 23.1118 246.148 24.1801C245.652 25.1928 245.222 26.4369 244.858 27.9123C244.742 28.6138 244.525 29.698 244.208 31.165C243.929 32.5765 243.596 34.0948 243.21 35.7199C242.871 37.3366 242.55 38.78 242.245 40.0501C241.988 41.3119 241.842 42.116 241.807 42.4626C241.654 42.6846 241.48 43.2019 241.288 44.0145C241.141 44.8186 240.917 45.5883 240.613 46.3234C240.138 47.7214 240.077 48.7291 240.43 49.3466C240.774 49.9169 241.257 50.049 241.88 49.7429Z" fill="white"/>
<path d="M268.141 65.8907C267.348 65.7897 266.473 65.6307 265.515 65.4136C264.604 65.1881 264.064 64.6043 263.895 63.6622C263.793 63.0969 263.988 62.6974 264.478 62.4636C265.279 62.0767 265.857 61.657 266.211 61.2045C266.604 60.6964 267.003 60.09 267.409 59.3851C267.922 58.4666 268.387 57.5565 268.806 56.6548C269.225 55.7531 269.64 54.8278 270.05 53.879C270.961 51.6735 271.788 49.41 272.533 47.0884C273.269 44.7198 273.912 42.3679 274.46 40.0329C274.803 38.7072 275.146 37.3815 275.489 36.0559C275.87 34.6747 276.204 33.302 276.491 31.9376C276.624 31.3303 276.753 30.6994 276.878 30.045C277.002 29.3906 277.127 28.7362 277.251 28.0817C277.637 26.4566 278.046 24.8273 278.479 23.1938C278.911 21.5603 279.325 19.9545 279.719 18.3765L279.048 18.2781C277.889 18.8264 276.621 19.4429 275.244 20.1275C273.914 20.8037 272.828 21.6305 271.988 22.6079C271.864 22.7273 271.74 22.8468 271.616 22.9662C271.54 23.0772 271.439 23.1925 271.316 23.3119C269.931 23.4144 268.76 23.0896 267.803 22.3376C267.769 22.1491 267.711 21.9649 267.631 21.7849C267.597 21.5965 267.563 21.4081 267.529 21.2196C267.377 20.3717 267.687 19.5382 268.46 18.7189C269.279 17.8913 270.279 17.1284 271.46 16.4303C272.688 15.7238 273.886 15.1199 275.054 14.6187C276.269 14.109 277.196 13.7482 277.835 13.5363C278.197 13.6659 278.666 13.5818 279.241 13.2841C279.817 12.9863 280.29 12.9258 280.66 13.1025C281.295 12.5995 282.069 12.4608 282.98 12.6863C283.129 12.7081 283.255 12.7342 283.357 12.7645C283.498 12.7393 283.638 12.7141 283.779 12.6889C284.997 12.4702 286.109 12.4653 287.114 12.674C288.111 12.8355 289.18 13.13 290.321 13.5574C291.155 13.8939 292.145 14.4214 293.29 15.1399C294.473 15.8028 295.243 16.5885 295.599 17.497C295.867 18.1783 296.143 18.9068 296.427 19.6824C296.711 20.458 296.874 21.231 296.916 22.0015C296.976 24.2273 296.915 26.4505 296.733 28.6711C296.551 30.8918 296.373 33.136 296.199 35.4038C296.122 36.0498 295.997 36.7042 295.826 37.3671C295.701 38.0215 295.581 38.6995 295.465 39.401C295.047 42.7337 294.48 46.0445 293.763 49.3334C293.047 52.6223 292.456 55.9373 291.991 59.2784C291.862 60.1767 291.47 60.6848 290.813 60.8025C290.212 60.9589 289.542 60.8604 288.801 60.5071C288.107 60.1453 287.573 59.7306 287.199 59.2629L286.912 58.8768C287.358 56.5114 287.833 54.1654 288.334 51.8388C288.828 49.4651 289.298 47.0955 289.744 44.7302C289.942 43.6737 290.088 42.6021 290.184 41.5153C290.326 40.4201 290.547 39.3594 290.847 38.3332C290.936 38.0253 291.003 37.7217 291.046 37.4222C291.089 37.1228 291.109 36.8275 291.105 36.5365C291.179 35.5994 291.28 34.6817 291.409 33.7834C291.538 32.885 291.64 31.9673 291.714 31.0302C291.796 30.1403 291.831 29.2588 291.82 28.3856C291.847 27.457 291.948 26.5393 292.124 25.6325C291.993 25.1699 291.964 24.7375 292.037 24.3354C292.101 23.8862 292.115 23.4219 292.077 22.9424C292.006 22.2746 291.883 21.5915 291.709 20.8933C291.583 20.1867 291.46 19.5037 291.342 18.8442L290.174 17.595C289.404 17.3443 288.548 17.1575 287.606 17.0346C286.704 16.8562 285.862 16.8856 285.082 17.1227C284.518 18.2936 284.122 19.4586 283.895 20.6177C283.667 21.7768 283.346 22.9527 282.931 24.1455C282.191 26.2231 281.585 28.3739 281.113 30.598C280.641 32.822 280.114 35.0073 279.532 37.1539C279.403 37.5173 279.373 37.8874 279.441 38.2642C279.5 38.594 279.446 38.9683 279.279 39.3872C279.151 39.7506 279.046 40.1097 278.965 40.4647C278.883 40.8197 278.806 41.1982 278.733 41.6003C278.651 41.9552 278.566 42.2866 278.476 42.5945C278.424 42.8469 278.311 43.1589 278.136 43.5307C278.097 43.5862 278.007 43.8941 277.866 44.4543C277.725 45.0145 277.572 45.6496 277.409 46.3595C277.238 47.0223 277.086 47.6574 276.953 48.2647C276.812 48.8249 276.749 49.1521 276.766 49.2463C276.407 49.9428 276.131 50.6973 275.939 51.5099C275.746 52.3224 275.502 53.1198 275.207 53.9021C274.881 54.787 274.465 55.8342 273.956 57.0438C273.447 58.2533 272.911 59.4435 272.347 60.6144C271.774 61.7382 271.223 62.7122 270.694 63.5365C270.395 64.0277 270.013 64.4609 269.548 64.836C269.083 65.2111 268.614 65.5627 268.141 65.8907Z" fill="white"/>
<path d="M334.573 19.841C334.663 19.5331 334.68 19.6273 334.624 20.1236C334.559 20.5728 334.462 21.2466 334.333 22.1449C334.204 23.0433 334.06 23.9929 333.901 24.9939C333.789 25.9865 333.706 26.8764 333.654 27.6638C333.593 28.404 333.58 28.8683 333.614 29.0567C333.673 29.3865 333.606 29.6901 333.414 29.9677C333.269 30.2369 333.151 30.5254 333.062 30.8333C333.231 31.2404 333.284 31.936 333.218 32.9202C333.191 33.8488 333.122 34.8095 333.009 35.802C332.936 36.7391 332.856 37.5071 332.77 38.106C332.752 38.5467 332.704 39.3576 332.625 40.5386C332.594 41.7112 332.537 43.01 332.454 44.4349C332.417 45.8514 332.384 47.146 332.352 48.3186C332.359 49.4356 332.368 50.1632 332.381 50.5014C332.431 50.784 332.412 51.0793 332.322 51.3871C332.232 51.695 332.33 51.9692 332.615 52.2098C332.533 52.5648 332.441 52.9946 332.338 53.4993C332.282 53.9956 332.303 54.3809 332.4 54.6551C332.594 55.7385 332.438 56.35 331.931 56.4896C331.432 56.6763 330.784 56.8412 329.988 56.9841C329.6 56.7132 329.185 56.423 328.743 56.1134C328.3 55.8038 327.862 55.5178 327.428 55.2553C327.336 54.2022 327.305 53.0893 327.337 51.9167C327.368 50.7441 327.342 49.9223 327.257 49.4512C327.266 49.4983 327.277 49.156 327.291 48.4242C327.352 47.684 327.368 46.8302 327.339 45.8628C327.303 44.8484 327.197 43.9921 327.024 43.2939C327.241 43.1576 327.446 42.9507 327.638 42.6731C327.822 42.3485 327.912 42.0406 327.908 41.7496L328.054 37.712C328.14 37.648 328.217 37.2695 328.286 36.5764C328.347 35.8362 328.414 34.9975 328.488 34.0605C328.562 33.1234 328.606 32.289 328.619 31.5572C328.672 30.7698 328.713 30.3249 328.743 30.2223C328.624 30.0978 328.494 30.0481 328.353 30.0733C328.213 30.0986 328.104 30.1667 328.027 30.2777C327.656 30.636 327.257 30.975 326.831 31.2946C326.443 31.5587 326.14 31.7589 325.922 31.8951C325.409 33.3486 324.742 34.7567 323.922 36.1193C323.094 37.4349 322.468 38.6654 322.045 39.8111C321.908 40.1273 321.475 40.8129 320.745 41.8676C320.061 42.914 319.193 44.1395 318.138 45.5442C317.131 46.9405 316.104 48.3645 315.059 49.8163C314.004 51.2209 313.05 52.5104 312.197 53.6846C311.334 54.8117 310.711 55.6528 310.327 56.208C309.943 56.7631 309.471 57.2366 308.913 57.6286C308.409 58.0592 307.795 58.4125 307.071 58.6883C306.377 58.3266 305.868 58.0532 305.545 57.8681C305.268 57.6746 305.053 57.4214 304.901 57.1085C304.756 56.8426 304.539 56.4439 304.251 55.9123C304.319 55.7541 304.392 55.6196 304.468 55.5085C304.584 55.342 304.676 55.1796 304.744 55.0215C304.859 54.855 304.979 54.712 305.102 54.5925C305.435 54.2897 305.96 53.7094 306.677 52.8514C307.441 51.9851 308.234 51.0161 309.058 49.9445C309.882 48.8729 310.629 47.9124 311.299 47.0629C311.969 46.2133 312.4 45.6498 312.592 45.3722L315.589 41.0421C316.396 39.8763 316.972 39.0436 317.318 38.5439C317.664 38.0443 317.967 37.5766 318.228 37.1409C318.526 36.6497 318.962 35.8422 319.535 34.7185C318.453 34.6208 317.275 34.3945 316.002 34.0394C314.729 33.6843 313.811 33.2898 313.25 32.8557C311.612 31.545 310.464 30.0005 309.806 28.2223C309.148 26.444 308.808 24.6817 308.785 22.9355C308.8 21.1337 308.945 19.649 309.22 18.4815C309.452 17.0784 309.747 16.0287 310.106 15.3322C310.465 14.6358 310.884 14.0016 311.361 13.4296C311.831 12.8105 312.341 12.014 312.892 11.04C313.806 9.6605 314.832 8.50398 315.971 7.57036C317.157 6.62834 318.41 5.79567 319.732 5.07236C321.054 4.34905 322.348 3.60639 323.614 2.84439C323.614 2.84439 323.938 2.76198 324.585 2.59716C325.225 2.38523 325.962 2.18004 326.797 1.98158C327.679 1.77472 328.468 1.58468 329.162 1.41144C329.857 1.23821 330.228 1.14739 330.275 1.13899C331.131 1.32579 331.59 1.46209 331.654 1.54789C331.718 1.6337 332.01 1.77587 332.529 1.97443L333.662 0.604247C334.228 0.794394 334.925 1.03417 335.751 1.32359C336.623 1.60461 337.247 2.24647 337.62 3.24917C337.23 5.11822 336.886 6.71136 336.591 8.02861C336.333 9.29034 336.086 10.4772 335.85 11.5892C335.661 12.6928 335.466 13.8948 335.264 15.1953C335.053 16.4486 334.823 17.9972 334.573 19.841ZM329.397 24.5621C329.44 24.2626 329.53 23.6873 329.668 22.836C329.797 21.9377 329.932 20.9409 330.074 19.8457C330.255 18.695 330.429 17.6427 330.597 16.6888C330.756 15.6879 330.883 14.9115 330.977 14.3597C331.072 13.8079 331.097 13.6817 331.054 13.9812C331.137 13.0912 331.244 12.3426 331.377 11.7353C331.502 11.0808 331.629 10.3044 331.758 9.40609C331.934 8.49933 332.093 7.23085 332.236 5.60068C331.815 5.14137 331.046 5.03617 329.93 5.28508C328.813 5.53398 327.737 5.87289 326.701 6.30181C325.026 6.94266 323.246 7.94268 321.361 9.30187C319.515 10.6055 317.883 12.1624 316.466 13.9725C315.049 15.7826 314.111 17.7013 313.653 19.7284C313.447 20.7378 313.287 21.7388 313.175 22.7314C313.11 23.7155 313.198 24.7451 313.439 25.8202C313.659 27.0449 313.988 27.9341 314.426 28.4876C314.855 28.994 315.235 29.6308 315.567 30.3979C315.719 30.7109 316.192 30.9178 316.984 31.0188C317.768 31.0727 318.494 30.9424 319.164 30.6278C320.174 30.0576 321.212 29.5067 322.278 28.9752C323.344 28.4436 324.352 27.7279 325.304 26.8279C325.854 26.3888 326.461 26.134 327.126 26.0634C327.829 25.9373 328.485 26.0871 329.093 26.5127C329.196 26.008 329.274 25.6295 329.325 25.3772C329.368 25.0777 329.392 24.806 329.397 24.5621Z" fill="white"/>
</svg>
