<svg width="1072" height="585" viewBox="0 0 1072 585" fill="none" xmlns="http://www.w3.org/2000/svg">
<g opacity="0.5">
<mask id="path-1-outside-1_105_51" maskUnits="userSpaceOnUse" x="-1" y="0" width="1073" height="585" fill="black">
<rect fill="white" x="-1" width="1073" height="585"/>
<path fill-rule="evenodd" clip-rule="evenodd" d="M832.324 133.549C840.093 146.329 825.306 146.078 818.289 143.071C785.958 123.525 786.71 83.9309 798.991 63.1314C811.271 42.332 841.597 23.0361 886.208 14.7665C930.819 6.49684 961.897 13.0123 990.468 23.0361C1019.04 33.06 1043.1 73.907 1051.62 90.6969C1060.14 107.487 1070.92 135.804 1043.1 183.167C1015.34 230.426 976.353 245.499 938.834 260.004L938.588 260.099C900.995 274.634 850.369 281.651 837.837 282.152C827.109 282.581 827.586 289.989 827.946 295.572C828.006 296.51 828.063 297.397 828.063 298.19C828.063 298.97 828.098 299.821 828.137 300.766C828.374 306.493 828.753 315.669 822.299 333.524C814.807 354.247 826.474 360.791 846.886 372.24L847.111 372.366C867.662 383.894 870.419 406.698 863.151 427.748C857.555 443.954 860.724 458.527 863.737 472.38C864.637 476.521 865.524 480.597 866.158 484.633C868.915 502.175 847.111 511.948 836.584 513.201C836.192 513.247 835.796 513.294 835.398 513.341L835.324 513.35C825.059 514.562 813.088 515.975 808.514 522.473C804.793 527.761 801.836 526.16 798.09 524.132C797.043 523.565 795.934 522.965 794.73 522.473C793.996 522.173 793.272 521.846 792.559 521.525L792.556 521.523L792.554 521.522C787.91 519.429 783.769 517.562 780.946 524.728C777.688 532.998 774.43 532.497 769.918 530.241C765.407 527.986 757.888 526.482 755.633 532.497C753.377 538.511 747.362 540.265 742.099 536.506C736.836 532.747 731.071 535.253 726.31 540.265C721.548 545.277 719.042 541.769 716.034 528.738C713.027 515.707 716.535 508.189 727.813 500.17C738.625 492.482 768.555 487.328 782.493 484.928L782.497 484.927L782.606 484.908C783.166 484.812 783.699 484.72 784.204 484.633C797.236 482.378 805.507 471.853 805.006 462.33C804.504 452.807 801.246 443.034 776.184 431.757C757.964 423.559 740.406 426.751 725.339 429.49C719.682 430.519 714.376 431.484 709.518 431.757C708.521 431.813 707.545 431.864 706.589 431.914C690.48 432.749 680.405 433.271 683.954 454.561C687.714 477.115 670.17 482.879 644.355 490.898C618.541 498.917 613.278 510.945 611.273 520.217C609.268 529.489 605.007 526.733 602 524.728C601.268 524.24 600.552 523.53 599.745 522.731C597.236 520.245 593.858 516.899 586.461 516.709C576.687 516.459 572.176 522.222 568.667 528.738C565.158 535.253 560.396 530.993 559.644 529.489C559.613 529.426 559.58 529.359 559.546 529.287C559.521 529.234 559.494 529.178 559.467 529.12L559.45 529.083L559.447 529.078C558.644 527.367 556.986 523.839 549.62 519.466C541.6 514.704 537.59 522.974 536.587 529.489C535.585 536.005 531.324 533.248 529.82 530.993C527.314 526.482 523.053 524.728 519.294 524.227C515.535 523.726 508.267 523.225 506.763 530.993C505.259 538.761 502.753 537.258 499.745 533.248C496.738 529.239 494.482 526.232 490.723 511.447C486.963 496.661 492.227 492.401 499.745 486.387C507.264 480.373 523.805 476.614 547.113 476.614C570.421 476.614 593.479 466.841 599.995 462.33C606.511 457.819 607.514 441.781 593.479 423.738C580.034 406.454 584.528 389.86 586.032 384.309C586.056 384.219 586.08 384.132 586.103 384.047C586.141 383.904 586.177 383.769 586.211 383.643C586.629 382.054 587.214 380.521 587.725 379.184C588.745 376.513 589.468 374.622 587.965 374.622C586.639 374.622 585.486 375.574 578.499 381.348L578.498 381.349L578.489 381.356C573.59 385.405 565.825 391.822 553.128 401.936C524.386 424.834 500.218 426.818 475.954 428.81C474.195 428.954 472.435 429.099 470.673 429.251C445.268 431.45 442.482 441.742 440.268 449.919L440.097 450.552C439.58 452.447 439.3 454.631 438.997 456.99C437.98 464.927 436.709 474.844 425.31 482.378C419.327 485.468 412.868 491.137 405.792 497.349C395.081 506.75 382.954 517.394 368.919 522.222C345.611 530.241 308.268 551.792 287.216 566.578C267.42 580.48 244.522 571.339 234.357 567.282C233.712 567.024 233.118 566.787 232.58 566.578C230.786 565.88 228.893 564.975 226.907 564.025C218.904 560.196 209.388 555.643 198.745 561.064C185.462 567.831 169.673 569.084 159.899 566.578C150.124 564.072 155.889 558.809 159.899 557.055C163.909 555.301 163.407 551.542 155.889 551.792C148.37 552.043 134.586 550.289 125.814 545.778C117.042 541.267 126.816 537.759 134.586 536.256C142.355 534.752 139.849 531.995 134.586 529.239C129.812 526.739 121.946 524.857 115.102 523.22L115.1 523.22L115.099 523.219L115.087 523.216C114.39 523.05 113.703 522.885 113.032 522.723C105.764 520.969 106.516 517.711 111.027 514.704C111.419 514.443 111.799 514.186 112.175 513.932C116.121 511.262 119.504 508.974 129.573 506.685C136.933 505.013 145.52 509.033 153.697 512.861C157.772 514.768 161.745 516.628 165.412 517.711C173.131 519.992 177.535 520.553 188.679 521.974C193.456 522.583 199.472 523.35 207.517 524.478C234.334 528.236 260.9 509.692 273.682 499.919C286.464 490.146 289.973 475.11 290.725 466.59C291.476 458.07 285.461 461.328 283.206 464.335C282.81 464.862 282.46 465.46 282.039 466.179L282.039 466.18C280.061 469.56 276.503 475.64 259.146 489.895C238.093 507.187 221.552 499.919 214.785 496.411L214.662 496.347L214.661 496.347C207.786 492.782 188.633 482.852 174.184 478.368C171.945 477.673 169.261 476.854 166.272 475.941C149.856 470.93 124.269 463.119 113.032 457.819C109.628 456.214 105.616 454.082 101.176 451.723L101.174 451.722C88.2868 444.875 71.7976 436.114 56.1402 432.76C35.0878 428.249 23.3084 425.242 14.7872 415.97C8.62388 409.263 11.3763 394.56 13.3714 383.902L13.3718 383.899C14.1349 379.823 14.7872 376.339 14.7872 374.12C14.7872 366.548 17.4688 367.467 20.2998 368.437C20.4669 368.494 20.6345 368.551 20.8022 368.607C21.2716 368.764 21.741 368.963 22.2123 369.163C24.7608 370.244 27.3648 371.349 30.3259 365.851C33.524 359.912 29.4346 353.765 25.4592 347.79C25.0731 347.209 24.6881 346.63 24.3109 346.054C20.0503 339.538 21.8047 339.037 32.5815 340.29C43.3584 341.543 39.599 328.512 36.5915 324.502C33.584 320.493 33.0828 318.238 46.6165 319.741C60.1502 321.245 57.3933 309.467 53.8846 306.71C50.3758 303.954 51.629 299.693 55.8896 298.942C60.1502 298.19 74.4358 296.185 84.2101 313.977C90.599 325.607 87.6722 329.849 82.3587 337.551C79.543 341.632 76.0571 346.685 72.932 354.323C64.2526 375.537 84.3325 383.301 101.936 390.107C102.632 390.376 103.323 390.643 104.009 390.91C122.054 397.927 183.457 412.211 194.234 413.714C205.011 415.218 198.495 410.206 194.234 406.948C192.675 405.756 189.069 403.49 184.067 400.347C175.398 394.901 162.538 386.82 148.871 377.127C135.368 367.551 127.669 345.779 121.213 327.523C117.364 316.639 113.956 307.004 110.024 301.949C102.826 292.695 99.3786 281.918 97.8378 272.984C96.5103 269.437 94.0123 263.704 85.3753 257.227C75.3503 249.709 67.5809 236.678 65.5759 225.401C64.3253 218.367 62.2943 213.088 60.2132 207.678C58.9581 204.416 57.6848 201.106 56.5535 197.335C53.6517 187.663 59.1489 184.057 60.8898 182.915L60.8969 182.911L60.9072 182.904L60.9486 182.877C60.9897 182.85 61.0285 182.824 61.0647 182.8C61.1266 182.759 61.1988 182.709 61.2804 182.654L61.2863 182.65C63.1927 181.344 70.1612 176.573 71.8415 188.814C73.3767 199.998 83.74 203.89 90.336 206.367C91.2777 206.721 92.1425 207.045 92.894 207.358C98.909 209.864 98.4077 216.38 96.4027 221.642C96.0759 222.5 95.7357 223.345 95.3995 224.18C93.6738 228.464 92.0549 232.483 92.894 236.678C93.8965 241.69 98.909 243.444 102.668 244.196C106.428 244.948 106.428 247.704 105.676 249.709C105.553 250.036 105.397 250.376 105.23 250.741C104.37 252.617 103.205 255.16 104.673 259.984C106.428 265.747 113.946 269.256 119.21 270.008C124.473 270.76 129.68 269.364 133.69 260.844C137.255 253.268 139.204 248.564 140.011 240.688C141.704 224.18 140.92 205.322 122.607 208.652L122.604 208.653L122.601 208.653C115.474 209.952 113.946 210.23 113.946 201.344C113.946 191.822 113.946 184.554 111.941 176.034C109.936 167.514 112.443 147.717 121.465 137.443C130.488 127.168 146.778 119.65 168.081 126.918C189.384 134.185 194.647 141.201 196.402 148.218C198.156 155.235 197.404 158.493 192.893 162.001C188.382 165.509 178.608 174.28 194.146 182.049C198.408 184.179 201.991 185.763 205.226 187.193C213.787 190.978 219.913 193.686 229.735 202.597C236.81 209.016 238.411 214.951 240.006 220.86C241.48 226.321 242.948 231.76 248.727 237.538C258.516 247.327 269.422 254.336 299.246 253.584C329.07 252.832 350.373 238.047 368.418 223.512C386.463 208.978 396.739 191.436 397.491 168.381C398.242 145.327 384.709 134.802 374.684 128.537C364.659 122.272 351.877 127.785 350.624 136.806C349.371 145.828 356.639 147.833 366.914 149.587C377.19 151.341 374.182 157.355 369.922 162.868C365.661 168.381 349.872 183.668 325.311 176.651C300.75 169.634 299.998 133.048 310.273 106.234C320.549 79.4201 354.133 61.8784 390.974 61.8784C427.816 61.8784 472.427 78.9189 492.477 106.234C512.527 133.549 514.532 165.124 511.775 192.94C509.559 215.299 498.437 235.067 492.726 245.217C491.332 247.694 490.261 249.598 489.72 250.827C486.974 257.068 487.461 257.092 492.419 257.34L492.477 257.343C497.49 257.593 519.043 254.336 538.341 250.827C557.534 247.338 583.917 236.661 594.559 232.353L594.732 232.283C597.093 231.328 600.337 229.88 604.379 228.077C618.355 221.841 641.873 211.348 671.423 202.212C709.518 190.434 759.392 199.706 784.204 210.732C809.016 221.758 821.798 220.505 842.85 216.245C848.254 215.152 856.713 213.926 866.786 212.466C895.955 208.24 938.654 202.054 959.892 191.436C988.463 177.152 992.723 152.093 994.478 126.532C996.232 100.971 969.666 80.1719 938.338 63.1314C907.01 46.0909 868.414 54.3606 841.597 76.413C814.78 98.4654 824.554 120.768 832.324 133.549ZM176.046 317.478C167.934 305.488 160.981 312.372 163.249 319.269C172.023 345.963 199.089 347.425 208.06 347.91L208.123 347.913C208.518 347.935 208.895 347.95 209.255 347.963C209.557 347.973 209.847 347.981 210.125 347.99L210.13 347.99H210.132C212.151 348.048 213.552 348.088 214.466 348.776C216.539 350.335 216.111 355.22 214.709 371.179L214.708 371.195L214.689 371.405C214.519 373.348 214.334 375.453 214.138 377.734C212.225 399.994 225.519 416.581 236.349 430.093C241.124 436.052 245.421 441.412 247.722 446.397C255.241 462.686 239.953 478.975 224.414 473.963C210.051 469.33 212.604 457.847 213.865 452.177L213.868 452.164C213.917 451.943 213.964 451.731 214.008 451.529C214.03 451.426 214.052 451.325 214.073 451.226C214.096 451.117 214.118 451.011 214.138 450.908C215.141 445.896 217.898 448.152 218.649 454.166C219.401 460.18 226.419 462.686 234.94 458.175C243.461 453.665 242.459 440.383 236.945 435.371C231.431 430.359 226.419 426.35 211.131 430.109C195.843 433.868 186.82 464.691 204.614 477.471C232.619 496.056 249.351 483.031 256.264 477.65L256.494 477.471C263.261 472.209 272.784 448.653 249.727 426.35C226.669 404.047 224.163 390.013 226.419 371.219C228.674 352.424 249.226 340.145 252.734 338.14C256.243 336.135 263.01 333.379 259.752 336.637C256.494 339.894 248.724 351.923 242.459 368.713C236.193 385.503 243.211 394.775 253.987 400.789C264.764 406.803 274.037 402.042 278.799 396.529C283.561 391.016 287.822 381.243 283.561 371.219C279.301 361.195 266.519 364.954 263.01 371.219C259.501 377.484 261.005 380.992 267.521 379.739C274.037 378.486 273.035 389.011 269.276 391.768C265.516 394.524 253.987 400.789 253.987 379.739C253.987 358.689 282.809 338.391 287.822 335.384C288.724 334.842 291.03 333.084 294.092 330.749C308.045 320.11 337.687 297.508 321.656 323.606C302.107 355.431 296.092 370.216 296.092 400.789C296.092 431.362 320.152 459.93 361.505 464.691C402.858 469.452 417.896 451.409 420.903 446.397C423.911 441.385 429.174 422.591 415.64 410.562C402.106 398.534 383.56 403.796 373.034 410.562C362.508 417.328 365.515 426.35 373.034 432.364C379.049 437.175 388.406 436.374 392.332 435.371C377.044 460.18 346.468 454.166 330.177 436.875C313.887 419.584 308.122 396.529 325.917 355.431C343.711 314.333 374.788 284.262 413.886 263.964C452.983 243.666 494.086 208.081 502.607 197.055C511.128 186.029 512.381 166.733 505.364 181.768C498.346 196.804 473.534 216.1 448.221 233.391C433.637 243.354 395.589 260.97 362.027 276.51C337.339 287.94 315.078 298.247 306.368 303.558C285.817 316.088 242.459 334.13 215.893 336.637C190.49 339.033 182.486 327.087 176.792 318.589C176.539 318.211 176.291 317.841 176.046 317.478ZM931.926 20.6355C932.678 18.5472 932.728 14.5711 926.914 15.373C919.646 16.3754 911.876 17.8789 910.874 26.6497C909.871 35.4206 909.621 40.1819 920.147 43.9408C929.839 47.402 929.12 41.3021 928.749 38.162C928.717 37.8919 928.688 37.6437 928.668 37.4253C928.418 34.6688 928.668 28.1534 931.926 20.6355ZM845.712 30.4085C851.361 27.4077 851.632 32.1628 849.471 34.6686C843.206 41.9359 848.469 50.4563 851.977 51.9599C854.826 53.1809 862.754 59.9789 848.468 59.9789C836.188 59.9789 834.183 54.9669 833.932 49.2032C833.682 43.4395 837.692 34.6685 845.712 30.4085ZM993.83 36.4229C997.84 39.1795 994.833 41.4348 991.825 41.4348C986.813 41.4348 983.555 41.4348 974.783 45.1938C966.011 48.9527 966.011 57.473 966.262 60.7307C966.513 63.9884 965.51 66.745 962.503 63.2367C959.495 59.7283 956.989 53.714 956.738 45.9456C956.488 38.1771 964.758 30.6592 973.53 30.4086C982.302 30.158 989.82 33.6664 993.83 36.4229ZM877.04 29.4063C880.276 26.1706 884.559 24.2273 887.316 23.6426C886.715 30.0578 889.404 37.1747 890.824 39.9313C892.077 42.9384 892.077 45.2941 888.819 45.9456C877.039 48.3014 875.787 45.695 874.283 41.9361C872.479 37.4253 873.531 32.9146 877.04 29.4063ZM812.879 54.9671C816.288 51.7595 817.14 55.3013 817.14 57.4731C817.39 61.2321 819.145 65.9932 821.15 68.2486C822.686 69.9772 827.168 70.9698 829.854 71.5648C830.673 71.7461 831.325 71.8905 831.676 72.0075C833.18 72.5087 834.683 76.017 822.653 80.7783C810.623 85.5397 807.115 77.27 806.864 72.2581C806.613 67.2462 808.618 58.9767 812.879 54.9671ZM801.35 99.0718C804.358 101.277 811.96 100.325 815.385 99.573C817.641 98.8212 818.643 99.573 818.393 100.826C818.382 100.881 818.37 100.943 818.356 101.01C818.071 102.459 817.257 106.594 814.383 112.103C811.375 117.866 807.115 116.112 803.355 113.105C799.596 110.098 797.34 101.578 796.839 99.573C796.338 97.5682 797.591 96.3153 801.35 99.0718ZM1021.9 63.2367C1019.89 61.399 1014.48 57.3727 1008.87 55.9694C1001.85 54.2152 994.582 52.7117 988.817 58.7259C983.053 64.7402 983.053 78.523 986.311 82.7831C989.569 87.0432 992.577 85.5397 994.08 81.5301C995.584 77.5206 1001.85 65.7428 1017.14 68.2486C1023.15 69.2346 1025.41 65.7426 1021.9 63.2367ZM1038.69 93.3081C1042.5 95.9143 1044.62 102.914 1045.21 106.088C1046.11 111.93 1042.17 110.318 1039 109.019L1038.99 109.018L1038.99 109.017C1038.63 108.868 1038.28 108.723 1037.94 108.594C1019.9 100.826 1009.87 107.341 1008.12 108.594C1006.36 109.847 1001.85 111.351 1004.11 103.583C1006.36 95.8141 1016.64 91.0528 1023.4 90.301C1030.17 89.5492 1033.93 90.0504 1038.69 93.3081ZM1042.95 167.484C1044.46 164.895 1047.11 157.962 1045.71 150.945C1043.96 142.174 1038.94 136.411 1034.18 134.406C1029.42 132.401 1018.14 131.399 1012.13 135.408C1006.11 139.418 1003.6 142.174 1002.35 144.179C1001.1 146.184 999.595 151.196 1007.11 149.943C1007.78 149.831 1008.48 149.708 1009.21 149.581L1009.21 149.58C1016.67 148.271 1026.81 146.49 1030.92 152.198C1034.16 156.693 1035.59 161.574 1036.51 164.714C1036.87 165.951 1037.16 166.918 1037.44 167.484C1038.44 169.489 1040.2 171.995 1042.95 167.484ZM1010.12 179.513C1002.35 176.005 989.069 178.761 985.811 179.513C981.299 181.518 983.304 183.522 985.059 184.525C986.813 185.527 993.329 187.783 998.843 189.537C1004.36 191.291 1006.11 193.797 1007.11 197.305C1007.4 198.308 1007.69 199.228 1007.97 200.149C1008.69 202.45 1009.41 204.751 1010.12 208.331C1011.12 213.343 1014.13 210.837 1015.38 208.833C1016.64 206.828 1019.14 201.565 1019.9 193.797C1020.65 186.028 1017.89 183.021 1010.12 179.513ZM959.738 200.201C964.165 199.865 972.032 199.269 976.287 206.076C981.299 214.095 976.537 225.372 975.535 227.627C974.532 229.883 967.766 238.904 961.249 242.412C954.733 245.921 956.488 240.157 957.741 237.902C957.908 237.6 958.17 237.163 958.496 236.62C960.608 233.103 965.409 225.102 964.758 220.109C964.006 214.346 958.493 208.081 955.485 205.074C952.478 202.067 952.979 200.588 957.741 200.312C958.27 200.312 958.949 200.261 959.736 200.201H959.738ZM928.668 218.606C924.157 210.837 913.38 213.343 909.871 214.346C907.365 215.348 908.117 216.852 909.37 218.606L909.427 218.686L909.514 218.807C910.666 220.412 911.243 221.215 914.132 229.883C916.487 236.948 915.307 245.09 914.564 250.214C914.358 251.633 914.186 252.82 914.132 253.689C913.881 257.699 915.636 257.699 918.393 256.696C921.15 255.694 925.911 250.181 928.668 244.918C931.425 239.656 933.179 226.374 928.668 218.606ZM859.496 223.367C862.253 222.615 869.27 222.866 873.781 227.878C878.293 232.89 881.3 236.398 880.298 248.176C879.295 259.954 874.032 267.973 869.521 269.226C865.01 270.479 864.007 269.727 864.258 266.219C864.508 262.711 865.26 247.174 864.258 241.159C863.255 235.145 861 228.63 858.995 226.625C856.99 224.62 857.992 223.625 859.496 223.367ZM834.684 243.164C831.677 233.642 819.145 228.379 815.386 227.377C810.374 226.124 812.128 228.88 813.632 231.136C814.235 232.041 815.565 234.318 817.12 236.979C819.438 240.95 822.257 245.776 823.907 248.176C826.664 252.186 828.419 269.226 828.419 273.737C828.419 278.248 831.927 277.245 834.684 272.734C837.441 268.224 837.692 252.687 834.684 243.164ZM849.471 464.941C848.97 457.924 849.22 434.368 850.975 423.593C852.729 412.817 851.977 393.271 840.448 383.999C828.92 374.727 814.384 371.469 806.113 380.992C797.842 390.514 789.572 406.552 798.594 420.085C807.617 433.617 822.654 425.096 824.659 422.59C826.664 420.085 830.424 410.061 822.654 407.555C818.339 406.163 815.725 406.008 813.695 405.888C812.07 405.791 810.819 405.717 809.371 405.049C806.113 403.545 806.614 399.786 809.371 397.03C812.128 394.273 822.404 389.011 829.421 397.03C836.439 405.049 837.942 418.33 832.178 432.865C826.413 447.399 823.907 452.662 822.654 454.917C822.451 455.284 822.174 455.709 821.877 456.168C820.343 458.532 818.246 461.765 822.654 462.185C827.917 462.686 839.446 464.941 844.458 468.199C849.471 471.457 849.66 469.953 849.471 464.941ZM415.891 79.776C412.883 74.2629 415.891 75.2653 420.402 76.7689C428.171 79.7761 433.936 85.0385 442.206 98.8212C450.477 112.604 446.718 132.401 433.936 143.928C421.154 155.456 409.375 149.191 404.362 144.43C399.35 139.668 400.352 136.912 409.375 132.401C418.397 127.89 421.655 119.621 422.908 108.845C424.161 98.0694 418.898 85.2891 415.891 79.776ZM464.763 105.587C464.512 98.5708 467.269 98.5708 470.527 103.833C484.061 131.9 481.805 152.198 465.765 172.246C449.725 192.293 427.169 201.315 412.883 201.565C398.598 201.816 402.357 192.043 406.367 184.024C410.377 176.005 423.41 168.236 433.184 165.229C442.958 162.222 453.484 156.458 460.251 142.675C466.178 130.603 465.376 116.609 464.917 108.606C464.852 107.472 464.794 106.458 464.763 105.587ZM623.164 427.013C618.285 429.045 613.665 430.968 608.872 422.841C603.107 413.068 592.33 393.522 602.105 373.725C610.735 356.245 611.745 350.878 612.553 346.583L612.554 346.582L612.554 346.579C612.661 346.011 612.765 345.462 612.882 344.906C613.884 340.145 614.135 330.873 603.859 337.138C596.343 341.72 579.174 357.429 566.669 368.871L566.668 368.872L566.647 368.891C562.064 373.084 558.11 376.702 555.489 378.987C554.396 379.94 553.187 381.064 551.837 382.321C541.111 392.303 521.456 410.595 480.051 416.827C433.435 423.844 429.926 403.295 428.171 390.264C426.417 377.233 426.417 337.138 448.221 312.579C470.026 288.021 499.85 273.737 535.188 262.21C540.764 260.391 547.157 258.322 554.1 256.076L554.233 256.033L554.235 256.033L554.255 256.026L554.256 256.026L554.258 256.025C591.308 244.039 643.916 227.019 671.528 215.849C704.359 202.568 758.244 207.079 782.805 227.377C807.366 247.675 822.403 292.532 806.113 341.398C789.822 390.264 747.216 416.075 708.119 419.082C702.678 419.501 698.014 419.876 693.969 420.201C668.946 422.211 667.617 422.318 652.731 419.082C641.829 416.713 633.633 421.567 628.987 424.318C627.816 425.012 626.871 425.571 626.165 425.848C625.151 426.186 624.153 426.602 623.164 427.013ZM606.115 474.965C600.852 477.221 604.862 479.727 608.872 480.98C610.469 481.67 612.326 481.991 614.395 482.349C616.871 482.778 619.652 483.259 622.656 484.488C627.706 486.554 631.495 485.256 634.985 484.06C635.14 484.007 635.294 483.954 635.447 483.902C635.548 483.867 635.649 483.833 635.75 483.799C635.813 483.778 635.876 483.757 635.939 483.736C639.698 482.483 656.991 474.965 665.763 466.696C674.535 458.426 668.019 446.397 661.753 438.128C655.488 429.858 641.202 431.863 633.683 436.875C626.165 441.887 623.658 448.653 626.165 454.416C628.671 460.18 633.683 459.679 637.192 456.922C640.701 454.166 641.202 450.156 641.202 445.646C641.202 441.135 644.962 441.135 648.971 441.386C652.981 441.636 655.738 444.894 654.736 452.161C653.733 459.428 645.964 465.443 635.939 466.696C625.914 467.949 611.378 472.71 606.115 474.965ZM846.965 476.97C843.706 474.715 839.947 472.71 833.932 475.216C827.917 477.722 805.361 486.743 785.311 489.75C765.261 492.758 737.692 500.025 729.422 508.295C722.202 515.514 722.049 520.25 721.959 523.004C721.946 523.405 721.935 523.764 721.903 524.082C721.652 526.588 724.159 527.34 727.417 524.082C730.675 520.824 739.447 517.567 743.457 519.07C747.467 520.574 751.226 521.075 752.98 517.567C754.735 514.058 766.514 509.798 770.273 512.304C774.033 514.81 776.288 515.311 780.048 510.299C783.807 505.287 794.584 500.777 800.098 503.283C805.611 505.789 811.376 505.789 816.138 503.283C817.885 502.363 820.342 502.118 823.359 501.818C828.562 501.3 835.432 500.616 843.205 496.015C855.486 488.748 849.22 478.384 846.965 476.97ZM598.095 488.999C588.571 486.743 581.303 487.746 577.544 491.003C573.784 494.261 569.273 496.015 562.757 493.008C556.24 490.001 544.962 489.75 537.945 494.512C530.927 499.273 528.421 497.519 525.414 495.263C522.406 493.008 509.875 491.755 504.361 500.025C498.847 508.294 502.356 508.545 506.617 507.041C510.877 505.538 517.394 505.538 521.404 507.041C525.414 508.545 529.674 508.044 533.434 505.037C537.193 502.029 548.722 498.521 558.496 502.781C567.585 506.743 570.389 504.637 573.761 502.106L573.763 502.104C573.888 502.01 574.014 501.915 574.142 501.82C574.272 501.723 574.403 501.626 574.536 501.528C578.295 498.772 590.075 495.263 601.353 501.528C612.631 507.793 611.378 496.266 607.869 494.01C604.36 491.755 602.355 490.502 598.095 488.999ZM411.63 469.202C415.46 465.132 411.745 465.636 408.128 466.126L407.62 466.194C407.273 466.241 406.59 466.373 405.62 466.561L405.614 466.562L405.603 466.564C402.369 467.19 395.958 468.432 388.072 469.202C381.157 469.876 379.35 471.798 374.86 476.572C372.677 478.893 369.861 481.888 365.515 485.741C352.232 497.519 338.197 506.791 322.408 506.791C306.619 506.791 307.12 495.263 308.122 490.502C309.125 485.741 316.393 480.228 322.408 481.982C326.31 483.12 324.833 485.629 323.313 488.209C322.491 489.606 321.656 491.024 321.656 492.256C321.656 495.765 323.41 502.531 332.684 501.278C341.957 500.025 341.706 491.003 339.45 482.734C337.195 474.464 322.408 466.194 306.117 473.963C289.827 481.731 292.834 498.521 297.847 506.791C302.859 515.061 314.388 524.333 332.684 522.829C350.979 521.325 368.022 505.538 376.793 496.266C382.011 490.751 391.927 483.729 399.951 478.047C405.417 474.177 410.005 470.928 411.63 469.202ZM277.045 506.791C276.544 500.526 281.055 505.538 283.311 509.046C292.457 520.423 306.171 523.658 313.847 525.469L313.851 525.47C314.796 525.693 315.65 525.894 316.393 526.087C323.16 527.841 321.656 530.347 317.395 532.853C313.49 535.15 311.48 534.288 308.855 533.164L308.849 533.161L308.83 533.153C308.599 533.054 308.364 532.954 308.122 532.853C308.045 532.82 307.97 532.789 307.898 532.758C307.805 532.719 307.716 532.681 307.631 532.644C307.381 532.537 307.162 532.439 306.961 532.35C305.202 531.57 304.832 531.405 297.847 530.347C281.556 527.34 277.546 513.056 277.045 506.791ZM306.368 542.877C311.38 538.115 308.122 538.366 303.862 539.118C302.947 539.252 301.331 539.789 298.965 540.575L298.963 540.576C294.847 541.944 288.462 544.066 279.551 546.134C265.516 549.392 256.494 547.387 252.985 541.624C249.476 535.86 252.734 531.349 257.997 529.595C261.719 528.355 262.433 530.497 263.153 532.657C263.45 533.551 263.749 534.448 264.263 535.108C266.017 537.364 269.777 537.113 272.784 535.108C275.792 533.103 276.293 528.843 274.539 526.087C272.784 523.33 266.769 521.075 256.494 522.829C246.218 524.583 235.943 534.106 236.945 547.387C237.948 560.669 250.98 561.421 263.261 560.669C275.541 559.917 301.355 547.638 306.368 542.877ZM460.001 246.422C464.011 243.916 469.023 241.911 463.259 248.427C457.494 254.942 426.668 283.761 399.851 301.052C373.034 318.343 346.718 354.429 342.458 361.696C338.197 368.963 324.914 384.5 336.694 358.438C348.473 332.376 370.778 304.31 393.585 289.524C401.376 284.474 410.95 278.12 420.4 271.848L420.407 271.844L420.421 271.834L420.431 271.828L420.435 271.825L420.437 271.823L420.441 271.821L420.448 271.817L420.452 271.814C438.65 259.737 456.374 247.974 460.001 246.422ZM436.191 291.028C439.951 286.517 444.963 283.009 441.454 291.028C437.946 299.047 412.382 334.632 387.069 353.927C361.756 373.223 344.212 396.529 340.453 404.297C336.694 412.066 330.929 418.331 334.939 404.297C338.949 390.264 351.982 361.696 377.545 342.651C403.109 323.606 426.918 301.052 436.191 291.028ZM418.648 347.663C422.407 344.655 425.916 342.4 423.66 349.417C421.405 356.433 411.129 372.973 403.36 380.491C395.59 388.009 367.27 406.302 361.756 409.56C360.799 410.125 359.805 410.758 358.84 411.373C354.241 414.3 350.302 416.809 354.237 409.56C358.999 400.789 369.275 388.259 386.317 377.484C403.36 366.708 416.392 351.923 418.648 347.663ZM488.321 163.224C491.092 157.338 495.088 156.709 493.835 163.726C492.582 170.742 485.815 185.778 473.284 197.055C460.753 208.332 444.713 221.613 412.883 237.401C399.899 243.841 384.662 250.156 370.015 256.227C348.756 265.038 328.739 273.335 318.649 280.754C314.822 283.567 311.227 286.523 307.647 289.466C295.281 299.631 283.103 309.643 262.258 313.08C237.948 317.09 231.933 316.088 223.913 310.324C214.053 303.238 217.151 294.146 224.512 286.387C233.763 276.627 241.813 268.134 293.336 263.964C336.163 260.497 345.125 255.832 360.626 247.763C364.174 245.916 368.065 243.891 372.783 241.661C400.352 228.63 456.427 201.262 473.284 184.024C483.547 173.528 485.995 168.242 487.902 164.126C488.043 163.82 488.182 163.519 488.321 163.224ZM364.763 77.7712C369.275 77.4371 379.6 77.7712 384.813 81.7807C391.33 86.7926 397.345 93.8093 395.59 107.091C393.836 120.372 387.32 121.625 384.813 121.625L384.738 121.626C384.644 121.626 384.543 121.627 384.434 121.629C381.51 121.664 373.33 121.764 374.287 108.845C375.29 95.3129 369.776 85.7903 367.27 83.7855C364.763 81.7807 362.257 77.8675 364.763 77.7712ZM336.694 97.067C330.679 95.8141 325.165 94.8117 329.425 101.828C333.686 108.845 346.468 115.862 352.232 117.365C357.997 118.869 364.513 114.108 357.245 107.091C349.977 100.074 340.202 97.7319 336.694 97.067ZM324.185 138.641C320.665 137.307 318.962 136.662 319.902 140.42C319.972 140.703 320.045 141.009 320.121 141.335L320.122 141.337C321.131 145.617 322.938 153.287 333.185 157.711C334.863 158.436 336.355 159.114 337.71 159.729C345.261 163.16 348.554 164.657 355.992 161.47C363.584 158.216 358.972 156.465 355.319 155.078C354.752 154.862 354.207 154.655 353.736 154.453C350.227 152.95 344.714 148.439 342.959 142.425C341.205 136.411 337.696 136.912 335.44 137.914C333.185 138.916 327.922 138.916 324.914 138.916C324.771 138.863 324.629 138.809 324.491 138.757L324.185 138.641ZM206.619 388.76C206.118 386.254 204.113 383.748 202.108 386.004C200.103 388.259 199.602 389.011 198.85 391.015C198.098 393.02 199.101 394.774 202.108 395.526C205.116 396.278 206.619 396.278 206.619 388.76ZM179.051 366.958C181.557 366.958 185.066 367.961 182.058 369.965L181.818 370.125C178.845 372.103 175.147 374.563 179.051 377.734C183.061 380.992 192.334 380.24 191.833 372.471C191.331 364.703 184.314 361.696 176.795 360.944C175.098 360.774 172.852 360.681 170.3 360.575C161.541 360.212 149.171 359.7 142.961 355.431C134.941 349.918 130.931 338.39 135.192 329.369C139.452 320.348 146.72 316.589 153.237 321.099C159.753 325.61 158.5 333.629 156.244 335.133C153.988 336.637 150.229 338.14 149.978 332.877C149.728 327.615 147.973 325.861 145.467 326.612C142.961 327.364 141.708 331.374 142.961 335.884C142.975 335.935 142.989 335.985 143.002 336.036L143.037 336.165L143.056 336.24L143.086 336.358L143.12 336.492L143.157 336.639L143.215 336.871C144.402 341.663 146.506 350.157 171.031 353.426C197.346 356.934 199.853 359.691 201.356 368.712C202.86 377.734 197.096 388.76 189.577 388.76C182.058 388.76 173.036 385.753 172.033 378.486C171.031 371.218 173.788 366.958 179.051 366.958ZM157.748 441.636C154.239 434.368 144.214 418.832 129.928 413.318C115.643 407.805 104.866 410.061 101.357 413.318C97.8485 416.576 97.8485 422.34 101.357 425.598C104.866 428.855 106.871 430.109 111.132 430.109C115.392 430.109 116.144 426.851 113.638 421.338C111.132 415.824 114.891 413.82 120.655 416.576C126.42 419.333 141.457 427.352 144.214 432.364C144.781 433.395 145.327 434.31 145.806 435.112C147.655 438.208 148.505 439.631 145.718 439.631C142.209 439.631 139.703 442.889 141.958 447.65C144.214 452.411 150.229 455.669 155.993 452.411C160.605 449.805 159.084 444.142 157.748 441.636ZM175.041 428.354C174.038 424.846 174.79 421.087 179.051 425.598C183.311 430.109 186.319 440.132 184.565 448.652C182.81 457.173 178.048 457.674 175.041 457.173C172.033 456.671 166.018 455.669 169.527 448.652C170.454 446.799 171.416 445.453 172.292 444.226C174.734 440.807 176.516 438.312 175.041 428.354ZM80.0542 399.786C81.3073 396.779 82.0592 395.276 86.0692 398.032C90.0792 400.789 95.3423 407.304 89.8286 410.311C84.3148 413.318 71.533 417.077 57.9993 413.318C44.4655 409.56 42.4606 396.529 44.7162 388.008C46.9718 379.488 55.493 379.739 59.2524 381.493C63.0117 383.247 65.2674 386.505 63.7636 390.013C62.2599 393.521 58.5005 393.521 56.9968 391.767C55.493 390.013 53.2374 388.008 53.2374 391.767C53.2374 395.526 53.7386 406.552 65.518 407.054C76.6716 407.528 79.0152 402.161 79.9151 400.1C79.9655 399.985 80.0115 399.879 80.0542 399.786ZM69.1725 312.724C67.1675 308.966 68.4207 305.958 70.9269 307.963C73.4332 309.968 75.1875 315.23 73.4332 321.245C72.1822 325.533 69.7845 327.019 67.512 328.426C66.5974 328.993 65.7031 329.547 64.9121 330.266C62.1552 332.772 62.4058 336.03 62.6564 338.786C62.9071 341.543 60.1502 350.564 52.8821 353.321C47.2984 355.439 47.7794 357.261 48.3022 359.241C48.4599 359.839 48.6215 360.451 48.6215 361.089C48.6215 361.565 48.6885 362.167 48.7661 362.863C49.1385 366.206 49.7536 371.727 44.3609 375.875C37.8446 380.886 34.3359 382.139 30.0753 382.139C25.8147 382.139 21.0528 378.882 25.564 377.378C26.672 377.009 28.0824 376.745 29.602 376.461C34.2697 375.589 39.9683 374.525 41.1027 369.61C42.6065 363.094 42.8571 361.34 41.1027 358.082C39.3484 354.825 38.8471 349.061 45.8646 348.56C52.8821 348.058 57.8946 341.543 56.1402 337.283L56.0404 337.041C54.3131 332.853 52.5089 328.479 59.1477 326.758C65.9145 325.004 70.6761 317.486 69.1725 312.724ZM135.194 283.648C134.024 281.727 132.387 277.684 135.194 276.882C138.703 275.879 139.956 276.631 141.71 281.392C142.017 282.226 142.34 283.037 142.655 283.829L142.657 283.834C144.14 287.561 145.456 290.867 144.216 294.173C144.053 294.608 143.884 295.04 143.717 295.467C142.342 298.98 141.088 302.186 144.216 304.197C147.725 306.452 147.725 309.459 144.216 310.712C140.707 311.965 134.442 311.213 128.176 306.703C121.911 302.192 120.407 293.672 121.159 289.161C121.911 284.65 123.414 282.645 126.673 283.648C129.931 284.65 130.683 286.404 129.429 289.161C129.282 289.486 129.102 289.847 128.911 290.23C127.487 293.09 125.437 297.21 131.184 297.431C137.7 297.681 137.951 288.158 135.194 283.648ZM231.183 237.538C232.436 232.777 237.699 239.042 237.699 246.058C237.699 262.347 224.165 272.622 213.639 279.137C206.447 283.589 198.436 284.297 192.084 284.858C189.14 285.119 186.551 285.348 184.567 285.903C180.932 286.921 180.418 290.552 179.942 293.912C179.598 296.344 179.273 298.634 177.8 299.686C174.291 302.192 172.787 297.431 174.542 295.175C175.527 293.909 175.88 291.774 176.31 289.169C176.647 287.135 177.031 284.812 177.8 282.395C179.366 277.473 188.323 277.544 197.359 277.616L197.367 277.616C198.45 277.625 199.534 277.634 200.607 277.634C210.632 277.634 223.664 265.605 228.175 257.586C231.103 252.381 230.97 247.493 230.858 243.402C230.797 241.189 230.743 239.209 231.183 237.538ZM183.564 205.211C180.056 199.448 176.046 195.689 175.294 202.204C174.542 208.72 173.539 223.004 173.79 227.514C174.041 232.025 174.542 236.285 179.053 231.273C179.442 230.841 179.848 230.409 180.261 229.969C184.631 225.315 189.747 219.866 183.564 205.211Z"/>
</mask>
<path fill-rule="evenodd" clip-rule="evenodd" d="M832.324 133.549C840.093 146.329 825.306 146.078 818.289 143.071C785.958 123.525 786.71 83.9309 798.991 63.1314C811.271 42.332 841.597 23.0361 886.208 14.7665C930.819 6.49684 961.897 13.0123 990.468 23.0361C1019.04 33.06 1043.1 73.907 1051.62 90.6969C1060.14 107.487 1070.92 135.804 1043.1 183.167C1015.34 230.426 976.353 245.499 938.834 260.004L938.588 260.099C900.995 274.634 850.369 281.651 837.837 282.152C827.109 282.581 827.586 289.989 827.946 295.572C828.006 296.51 828.063 297.397 828.063 298.19C828.063 298.97 828.098 299.821 828.137 300.766C828.374 306.493 828.753 315.669 822.299 333.524C814.807 354.247 826.474 360.791 846.886 372.24L847.111 372.366C867.662 383.894 870.419 406.698 863.151 427.748C857.555 443.954 860.724 458.527 863.737 472.38C864.637 476.521 865.524 480.597 866.158 484.633C868.915 502.175 847.111 511.948 836.584 513.201C836.192 513.247 835.796 513.294 835.398 513.341L835.324 513.35C825.059 514.562 813.088 515.975 808.514 522.473C804.793 527.761 801.836 526.16 798.09 524.132C797.043 523.565 795.934 522.965 794.73 522.473C793.996 522.173 793.272 521.846 792.559 521.525L792.556 521.523L792.554 521.522C787.91 519.429 783.769 517.562 780.946 524.728C777.688 532.998 774.43 532.497 769.918 530.241C765.407 527.986 757.888 526.482 755.633 532.497C753.377 538.511 747.362 540.265 742.099 536.506C736.836 532.747 731.071 535.253 726.31 540.265C721.548 545.277 719.042 541.769 716.034 528.738C713.027 515.707 716.535 508.189 727.813 500.17C738.625 492.482 768.555 487.328 782.493 484.928L782.497 484.927L782.606 484.908C783.166 484.812 783.699 484.72 784.204 484.633C797.236 482.378 805.507 471.853 805.006 462.33C804.504 452.807 801.246 443.034 776.184 431.757C757.964 423.559 740.406 426.751 725.339 429.49C719.682 430.519 714.376 431.484 709.518 431.757C708.521 431.813 707.545 431.864 706.589 431.914C690.48 432.749 680.405 433.271 683.954 454.561C687.714 477.115 670.17 482.879 644.355 490.898C618.541 498.917 613.278 510.945 611.273 520.217C609.268 529.489 605.007 526.733 602 524.728C601.268 524.24 600.552 523.53 599.745 522.731C597.236 520.245 593.858 516.899 586.461 516.709C576.687 516.459 572.176 522.222 568.667 528.738C565.158 535.253 560.396 530.993 559.644 529.489C559.613 529.426 559.58 529.359 559.546 529.287C559.521 529.234 559.494 529.178 559.467 529.12L559.45 529.083L559.447 529.078C558.644 527.367 556.986 523.839 549.62 519.466C541.6 514.704 537.59 522.974 536.587 529.489C535.585 536.005 531.324 533.248 529.82 530.993C527.314 526.482 523.053 524.728 519.294 524.227C515.535 523.726 508.267 523.225 506.763 530.993C505.259 538.761 502.753 537.258 499.745 533.248C496.738 529.239 494.482 526.232 490.723 511.447C486.963 496.661 492.227 492.401 499.745 486.387C507.264 480.373 523.805 476.614 547.113 476.614C570.421 476.614 593.479 466.841 599.995 462.33C606.511 457.819 607.514 441.781 593.479 423.738C580.034 406.454 584.528 389.86 586.032 384.309C586.056 384.219 586.08 384.132 586.103 384.047C586.141 383.904 586.177 383.769 586.211 383.643C586.629 382.054 587.214 380.521 587.725 379.184C588.745 376.513 589.468 374.622 587.965 374.622C586.639 374.622 585.486 375.574 578.499 381.348L578.498 381.349L578.489 381.356C573.59 385.405 565.825 391.822 553.128 401.936C524.386 424.834 500.218 426.818 475.954 428.81C474.195 428.954 472.435 429.099 470.673 429.251C445.268 431.45 442.482 441.742 440.268 449.919L440.097 450.552C439.58 452.447 439.3 454.631 438.997 456.99C437.98 464.927 436.709 474.844 425.31 482.378C419.327 485.468 412.868 491.137 405.792 497.349C395.081 506.75 382.954 517.394 368.919 522.222C345.611 530.241 308.268 551.792 287.216 566.578C267.42 580.48 244.522 571.339 234.357 567.282C233.712 567.024 233.118 566.787 232.58 566.578C230.786 565.88 228.893 564.975 226.907 564.025C218.904 560.196 209.388 555.643 198.745 561.064C185.462 567.831 169.673 569.084 159.899 566.578C150.124 564.072 155.889 558.809 159.899 557.055C163.909 555.301 163.407 551.542 155.889 551.792C148.37 552.043 134.586 550.289 125.814 545.778C117.042 541.267 126.816 537.759 134.586 536.256C142.355 534.752 139.849 531.995 134.586 529.239C129.812 526.739 121.946 524.857 115.102 523.22L115.1 523.22L115.099 523.219L115.087 523.216C114.39 523.05 113.703 522.885 113.032 522.723C105.764 520.969 106.516 517.711 111.027 514.704C111.419 514.443 111.799 514.186 112.175 513.932C116.121 511.262 119.504 508.974 129.573 506.685C136.933 505.013 145.52 509.033 153.697 512.861C157.772 514.768 161.745 516.628 165.412 517.711C173.131 519.992 177.535 520.553 188.679 521.974C193.456 522.583 199.472 523.35 207.517 524.478C234.334 528.236 260.9 509.692 273.682 499.919C286.464 490.146 289.973 475.11 290.725 466.59C291.476 458.07 285.461 461.328 283.206 464.335C282.81 464.862 282.46 465.46 282.039 466.179L282.039 466.18C280.061 469.56 276.503 475.64 259.146 489.895C238.093 507.187 221.552 499.919 214.785 496.411L214.662 496.347L214.661 496.347C207.786 492.782 188.633 482.852 174.184 478.368C171.945 477.673 169.261 476.854 166.272 475.941C149.856 470.93 124.269 463.119 113.032 457.819C109.628 456.214 105.616 454.082 101.176 451.723L101.174 451.722C88.2868 444.875 71.7976 436.114 56.1402 432.76C35.0878 428.249 23.3084 425.242 14.7872 415.97C8.62388 409.263 11.3763 394.56 13.3714 383.902L13.3718 383.899C14.1349 379.823 14.7872 376.339 14.7872 374.12C14.7872 366.548 17.4688 367.467 20.2998 368.437C20.4669 368.494 20.6345 368.551 20.8022 368.607C21.2716 368.764 21.741 368.963 22.2123 369.163C24.7608 370.244 27.3648 371.349 30.3259 365.851C33.524 359.912 29.4346 353.765 25.4592 347.79C25.0731 347.209 24.6881 346.63 24.3109 346.054C20.0503 339.538 21.8047 339.037 32.5815 340.29C43.3584 341.543 39.599 328.512 36.5915 324.502C33.584 320.493 33.0828 318.238 46.6165 319.741C60.1502 321.245 57.3933 309.467 53.8846 306.71C50.3758 303.954 51.629 299.693 55.8896 298.942C60.1502 298.19 74.4358 296.185 84.2101 313.977C90.599 325.607 87.6722 329.849 82.3587 337.551C79.543 341.632 76.0571 346.685 72.932 354.323C64.2526 375.537 84.3325 383.301 101.936 390.107C102.632 390.376 103.323 390.643 104.009 390.91C122.054 397.927 183.457 412.211 194.234 413.714C205.011 415.218 198.495 410.206 194.234 406.948C192.675 405.756 189.069 403.49 184.067 400.347C175.398 394.901 162.538 386.82 148.871 377.127C135.368 367.551 127.669 345.779 121.213 327.523C117.364 316.639 113.956 307.004 110.024 301.949C102.826 292.695 99.3786 281.918 97.8378 272.984C96.5103 269.437 94.0123 263.704 85.3753 257.227C75.3503 249.709 67.5809 236.678 65.5759 225.401C64.3253 218.367 62.2943 213.088 60.2132 207.678C58.9581 204.416 57.6848 201.106 56.5535 197.335C53.6517 187.663 59.1489 184.057 60.8898 182.915L60.8969 182.911L60.9072 182.904L60.9486 182.877C60.9897 182.85 61.0285 182.824 61.0647 182.8C61.1266 182.759 61.1988 182.709 61.2804 182.654L61.2863 182.65C63.1927 181.344 70.1612 176.573 71.8415 188.814C73.3767 199.998 83.74 203.89 90.336 206.367C91.2777 206.721 92.1425 207.045 92.894 207.358C98.909 209.864 98.4077 216.38 96.4027 221.642C96.0759 222.5 95.7357 223.345 95.3995 224.18C93.6738 228.464 92.0549 232.483 92.894 236.678C93.8965 241.69 98.909 243.444 102.668 244.196C106.428 244.948 106.428 247.704 105.676 249.709C105.553 250.036 105.397 250.376 105.23 250.741C104.37 252.617 103.205 255.16 104.673 259.984C106.428 265.747 113.946 269.256 119.21 270.008C124.473 270.76 129.68 269.364 133.69 260.844C137.255 253.268 139.204 248.564 140.011 240.688C141.704 224.18 140.92 205.322 122.607 208.652L122.604 208.653L122.601 208.653C115.474 209.952 113.946 210.23 113.946 201.344C113.946 191.822 113.946 184.554 111.941 176.034C109.936 167.514 112.443 147.717 121.465 137.443C130.488 127.168 146.778 119.65 168.081 126.918C189.384 134.185 194.647 141.201 196.402 148.218C198.156 155.235 197.404 158.493 192.893 162.001C188.382 165.509 178.608 174.28 194.146 182.049C198.408 184.179 201.991 185.763 205.226 187.193C213.787 190.978 219.913 193.686 229.735 202.597C236.81 209.016 238.411 214.951 240.006 220.86C241.48 226.321 242.948 231.76 248.727 237.538C258.516 247.327 269.422 254.336 299.246 253.584C329.07 252.832 350.373 238.047 368.418 223.512C386.463 208.978 396.739 191.436 397.491 168.381C398.242 145.327 384.709 134.802 374.684 128.537C364.659 122.272 351.877 127.785 350.624 136.806C349.371 145.828 356.639 147.833 366.914 149.587C377.19 151.341 374.182 157.355 369.922 162.868C365.661 168.381 349.872 183.668 325.311 176.651C300.75 169.634 299.998 133.048 310.273 106.234C320.549 79.4201 354.133 61.8784 390.974 61.8784C427.816 61.8784 472.427 78.9189 492.477 106.234C512.527 133.549 514.532 165.124 511.775 192.94C509.559 215.299 498.437 235.067 492.726 245.217C491.332 247.694 490.261 249.598 489.72 250.827C486.974 257.068 487.461 257.092 492.419 257.34L492.477 257.343C497.49 257.593 519.043 254.336 538.341 250.827C557.534 247.338 583.917 236.661 594.559 232.353L594.732 232.283C597.093 231.328 600.337 229.88 604.379 228.077C618.355 221.841 641.873 211.348 671.423 202.212C709.518 190.434 759.392 199.706 784.204 210.732C809.016 221.758 821.798 220.505 842.85 216.245C848.254 215.152 856.713 213.926 866.786 212.466C895.955 208.24 938.654 202.054 959.892 191.436C988.463 177.152 992.723 152.093 994.478 126.532C996.232 100.971 969.666 80.1719 938.338 63.1314C907.01 46.0909 868.414 54.3606 841.597 76.413C814.78 98.4654 824.554 120.768 832.324 133.549ZM176.046 317.478C167.934 305.488 160.981 312.372 163.249 319.269C172.023 345.963 199.089 347.425 208.06 347.91L208.123 347.913C208.518 347.935 208.895 347.95 209.255 347.963C209.557 347.973 209.847 347.981 210.125 347.99L210.13 347.99H210.132C212.151 348.048 213.552 348.088 214.466 348.776C216.539 350.335 216.111 355.22 214.709 371.179L214.708 371.195L214.689 371.405C214.519 373.348 214.334 375.453 214.138 377.734C212.225 399.994 225.519 416.581 236.349 430.093C241.124 436.052 245.421 441.412 247.722 446.397C255.241 462.686 239.953 478.975 224.414 473.963C210.051 469.33 212.604 457.847 213.865 452.177L213.868 452.164C213.917 451.943 213.964 451.731 214.008 451.529C214.03 451.426 214.052 451.325 214.073 451.226C214.096 451.117 214.118 451.011 214.138 450.908C215.141 445.896 217.898 448.152 218.649 454.166C219.401 460.18 226.419 462.686 234.94 458.175C243.461 453.665 242.459 440.383 236.945 435.371C231.431 430.359 226.419 426.35 211.131 430.109C195.843 433.868 186.82 464.691 204.614 477.471C232.619 496.056 249.351 483.031 256.264 477.65L256.494 477.471C263.261 472.209 272.784 448.653 249.727 426.35C226.669 404.047 224.163 390.013 226.419 371.219C228.674 352.424 249.226 340.145 252.734 338.14C256.243 336.135 263.01 333.379 259.752 336.637C256.494 339.894 248.724 351.923 242.459 368.713C236.193 385.503 243.211 394.775 253.987 400.789C264.764 406.803 274.037 402.042 278.799 396.529C283.561 391.016 287.822 381.243 283.561 371.219C279.301 361.195 266.519 364.954 263.01 371.219C259.501 377.484 261.005 380.992 267.521 379.739C274.037 378.486 273.035 389.011 269.276 391.768C265.516 394.524 253.987 400.789 253.987 379.739C253.987 358.689 282.809 338.391 287.822 335.384C288.724 334.842 291.03 333.084 294.092 330.749C308.045 320.11 337.687 297.508 321.656 323.606C302.107 355.431 296.092 370.216 296.092 400.789C296.092 431.362 320.152 459.93 361.505 464.691C402.858 469.452 417.896 451.409 420.903 446.397C423.911 441.385 429.174 422.591 415.64 410.562C402.106 398.534 383.56 403.796 373.034 410.562C362.508 417.328 365.515 426.35 373.034 432.364C379.049 437.175 388.406 436.374 392.332 435.371C377.044 460.18 346.468 454.166 330.177 436.875C313.887 419.584 308.122 396.529 325.917 355.431C343.711 314.333 374.788 284.262 413.886 263.964C452.983 243.666 494.086 208.081 502.607 197.055C511.128 186.029 512.381 166.733 505.364 181.768C498.346 196.804 473.534 216.1 448.221 233.391C433.637 243.354 395.589 260.97 362.027 276.51C337.339 287.94 315.078 298.247 306.368 303.558C285.817 316.088 242.459 334.13 215.893 336.637C190.49 339.033 182.486 327.087 176.792 318.589C176.539 318.211 176.291 317.841 176.046 317.478ZM931.926 20.6355C932.678 18.5472 932.728 14.5711 926.914 15.373C919.646 16.3754 911.876 17.8789 910.874 26.6497C909.871 35.4206 909.621 40.1819 920.147 43.9408C929.839 47.402 929.12 41.3021 928.749 38.162C928.717 37.8919 928.688 37.6437 928.668 37.4253C928.418 34.6688 928.668 28.1534 931.926 20.6355ZM845.712 30.4085C851.361 27.4077 851.632 32.1628 849.471 34.6686C843.206 41.9359 848.469 50.4563 851.977 51.9599C854.826 53.1809 862.754 59.9789 848.468 59.9789C836.188 59.9789 834.183 54.9669 833.932 49.2032C833.682 43.4395 837.692 34.6685 845.712 30.4085ZM993.83 36.4229C997.84 39.1795 994.833 41.4348 991.825 41.4348C986.813 41.4348 983.555 41.4348 974.783 45.1938C966.011 48.9527 966.011 57.473 966.262 60.7307C966.513 63.9884 965.51 66.745 962.503 63.2367C959.495 59.7283 956.989 53.714 956.738 45.9456C956.488 38.1771 964.758 30.6592 973.53 30.4086C982.302 30.158 989.82 33.6664 993.83 36.4229ZM877.04 29.4063C880.276 26.1706 884.559 24.2273 887.316 23.6426C886.715 30.0578 889.404 37.1747 890.824 39.9313C892.077 42.9384 892.077 45.2941 888.819 45.9456C877.039 48.3014 875.787 45.695 874.283 41.9361C872.479 37.4253 873.531 32.9146 877.04 29.4063ZM812.879 54.9671C816.288 51.7595 817.14 55.3013 817.14 57.4731C817.39 61.2321 819.145 65.9932 821.15 68.2486C822.686 69.9772 827.168 70.9698 829.854 71.5648C830.673 71.7461 831.325 71.8905 831.676 72.0075C833.18 72.5087 834.683 76.017 822.653 80.7783C810.623 85.5397 807.115 77.27 806.864 72.2581C806.613 67.2462 808.618 58.9767 812.879 54.9671ZM801.35 99.0718C804.358 101.277 811.96 100.325 815.385 99.573C817.641 98.8212 818.643 99.573 818.393 100.826C818.382 100.881 818.37 100.943 818.356 101.01C818.071 102.459 817.257 106.594 814.383 112.103C811.375 117.866 807.115 116.112 803.355 113.105C799.596 110.098 797.34 101.578 796.839 99.573C796.338 97.5682 797.591 96.3153 801.35 99.0718ZM1021.9 63.2367C1019.89 61.399 1014.48 57.3727 1008.87 55.9694C1001.85 54.2152 994.582 52.7117 988.817 58.7259C983.053 64.7402 983.053 78.523 986.311 82.7831C989.569 87.0432 992.577 85.5397 994.08 81.5301C995.584 77.5206 1001.85 65.7428 1017.14 68.2486C1023.15 69.2346 1025.41 65.7426 1021.9 63.2367ZM1038.69 93.3081C1042.5 95.9143 1044.62 102.914 1045.21 106.088C1046.11 111.93 1042.17 110.318 1039 109.019L1038.99 109.018L1038.99 109.017C1038.63 108.868 1038.28 108.723 1037.94 108.594C1019.9 100.826 1009.87 107.341 1008.12 108.594C1006.36 109.847 1001.85 111.351 1004.11 103.583C1006.36 95.8141 1016.64 91.0528 1023.4 90.301C1030.17 89.5492 1033.93 90.0504 1038.69 93.3081ZM1042.95 167.484C1044.46 164.895 1047.11 157.962 1045.71 150.945C1043.96 142.174 1038.94 136.411 1034.18 134.406C1029.42 132.401 1018.14 131.399 1012.13 135.408C1006.11 139.418 1003.6 142.174 1002.35 144.179C1001.1 146.184 999.595 151.196 1007.11 149.943C1007.78 149.831 1008.48 149.708 1009.21 149.581L1009.21 149.58C1016.67 148.271 1026.81 146.49 1030.92 152.198C1034.16 156.693 1035.59 161.574 1036.51 164.714C1036.87 165.951 1037.16 166.918 1037.44 167.484C1038.44 169.489 1040.2 171.995 1042.95 167.484ZM1010.12 179.513C1002.35 176.005 989.069 178.761 985.811 179.513C981.299 181.518 983.304 183.522 985.059 184.525C986.813 185.527 993.329 187.783 998.843 189.537C1004.36 191.291 1006.11 193.797 1007.11 197.305C1007.4 198.308 1007.69 199.228 1007.97 200.149C1008.69 202.45 1009.41 204.751 1010.12 208.331C1011.12 213.343 1014.13 210.837 1015.38 208.833C1016.64 206.828 1019.14 201.565 1019.9 193.797C1020.65 186.028 1017.89 183.021 1010.12 179.513ZM959.738 200.201C964.165 199.865 972.032 199.269 976.287 206.076C981.299 214.095 976.537 225.372 975.535 227.627C974.532 229.883 967.766 238.904 961.249 242.412C954.733 245.921 956.488 240.157 957.741 237.902C957.908 237.6 958.17 237.163 958.496 236.62C960.608 233.103 965.409 225.102 964.758 220.109C964.006 214.346 958.493 208.081 955.485 205.074C952.478 202.067 952.979 200.588 957.741 200.312C958.27 200.312 958.949 200.261 959.736 200.201H959.738ZM928.668 218.606C924.157 210.837 913.38 213.343 909.871 214.346C907.365 215.348 908.117 216.852 909.37 218.606L909.427 218.686L909.514 218.807C910.666 220.412 911.243 221.215 914.132 229.883C916.487 236.948 915.307 245.09 914.564 250.214C914.358 251.633 914.186 252.82 914.132 253.689C913.881 257.699 915.636 257.699 918.393 256.696C921.15 255.694 925.911 250.181 928.668 244.918C931.425 239.656 933.179 226.374 928.668 218.606ZM859.496 223.367C862.253 222.615 869.27 222.866 873.781 227.878C878.293 232.89 881.3 236.398 880.298 248.176C879.295 259.954 874.032 267.973 869.521 269.226C865.01 270.479 864.007 269.727 864.258 266.219C864.508 262.711 865.26 247.174 864.258 241.159C863.255 235.145 861 228.63 858.995 226.625C856.99 224.62 857.992 223.625 859.496 223.367ZM834.684 243.164C831.677 233.642 819.145 228.379 815.386 227.377C810.374 226.124 812.128 228.88 813.632 231.136C814.235 232.041 815.565 234.318 817.12 236.979C819.438 240.95 822.257 245.776 823.907 248.176C826.664 252.186 828.419 269.226 828.419 273.737C828.419 278.248 831.927 277.245 834.684 272.734C837.441 268.224 837.692 252.687 834.684 243.164ZM849.471 464.941C848.97 457.924 849.22 434.368 850.975 423.593C852.729 412.817 851.977 393.271 840.448 383.999C828.92 374.727 814.384 371.469 806.113 380.992C797.842 390.514 789.572 406.552 798.594 420.085C807.617 433.617 822.654 425.096 824.659 422.59C826.664 420.085 830.424 410.061 822.654 407.555C818.339 406.163 815.725 406.008 813.695 405.888C812.07 405.791 810.819 405.717 809.371 405.049C806.113 403.545 806.614 399.786 809.371 397.03C812.128 394.273 822.404 389.011 829.421 397.03C836.439 405.049 837.942 418.33 832.178 432.865C826.413 447.399 823.907 452.662 822.654 454.917C822.451 455.284 822.174 455.709 821.877 456.168C820.343 458.532 818.246 461.765 822.654 462.185C827.917 462.686 839.446 464.941 844.458 468.199C849.471 471.457 849.66 469.953 849.471 464.941ZM415.891 79.776C412.883 74.2629 415.891 75.2653 420.402 76.7689C428.171 79.7761 433.936 85.0385 442.206 98.8212C450.477 112.604 446.718 132.401 433.936 143.928C421.154 155.456 409.375 149.191 404.362 144.43C399.35 139.668 400.352 136.912 409.375 132.401C418.397 127.89 421.655 119.621 422.908 108.845C424.161 98.0694 418.898 85.2891 415.891 79.776ZM464.763 105.587C464.512 98.5708 467.269 98.5708 470.527 103.833C484.061 131.9 481.805 152.198 465.765 172.246C449.725 192.293 427.169 201.315 412.883 201.565C398.598 201.816 402.357 192.043 406.367 184.024C410.377 176.005 423.41 168.236 433.184 165.229C442.958 162.222 453.484 156.458 460.251 142.675C466.178 130.603 465.376 116.609 464.917 108.606C464.852 107.472 464.794 106.458 464.763 105.587ZM623.164 427.013C618.285 429.045 613.665 430.968 608.872 422.841C603.107 413.068 592.33 393.522 602.105 373.725C610.735 356.245 611.745 350.878 612.553 346.583L612.554 346.582L612.554 346.579C612.661 346.011 612.765 345.462 612.882 344.906C613.884 340.145 614.135 330.873 603.859 337.138C596.343 341.72 579.174 357.429 566.669 368.871L566.668 368.872L566.647 368.891C562.064 373.084 558.11 376.702 555.489 378.987C554.396 379.94 553.187 381.064 551.837 382.321C541.111 392.303 521.456 410.595 480.051 416.827C433.435 423.844 429.926 403.295 428.171 390.264C426.417 377.233 426.417 337.138 448.221 312.579C470.026 288.021 499.85 273.737 535.188 262.21C540.764 260.391 547.157 258.322 554.1 256.076L554.233 256.033L554.235 256.033L554.255 256.026L554.256 256.026L554.258 256.025C591.308 244.039 643.916 227.019 671.528 215.849C704.359 202.568 758.244 207.079 782.805 227.377C807.366 247.675 822.403 292.532 806.113 341.398C789.822 390.264 747.216 416.075 708.119 419.082C702.678 419.501 698.014 419.876 693.969 420.201C668.946 422.211 667.617 422.318 652.731 419.082C641.829 416.713 633.633 421.567 628.987 424.318C627.816 425.012 626.871 425.571 626.165 425.848C625.151 426.186 624.153 426.602 623.164 427.013ZM606.115 474.965C600.852 477.221 604.862 479.727 608.872 480.98C610.469 481.67 612.326 481.991 614.395 482.349C616.871 482.778 619.652 483.259 622.656 484.488C627.706 486.554 631.495 485.256 634.985 484.06C635.14 484.007 635.294 483.954 635.447 483.902C635.548 483.867 635.649 483.833 635.75 483.799C635.813 483.778 635.876 483.757 635.939 483.736C639.698 482.483 656.991 474.965 665.763 466.696C674.535 458.426 668.019 446.397 661.753 438.128C655.488 429.858 641.202 431.863 633.683 436.875C626.165 441.887 623.658 448.653 626.165 454.416C628.671 460.18 633.683 459.679 637.192 456.922C640.701 454.166 641.202 450.156 641.202 445.646C641.202 441.135 644.962 441.135 648.971 441.386C652.981 441.636 655.738 444.894 654.736 452.161C653.733 459.428 645.964 465.443 635.939 466.696C625.914 467.949 611.378 472.71 606.115 474.965ZM846.965 476.97C843.706 474.715 839.947 472.71 833.932 475.216C827.917 477.722 805.361 486.743 785.311 489.75C765.261 492.758 737.692 500.025 729.422 508.295C722.202 515.514 722.049 520.25 721.959 523.004C721.946 523.405 721.935 523.764 721.903 524.082C721.652 526.588 724.159 527.34 727.417 524.082C730.675 520.824 739.447 517.567 743.457 519.07C747.467 520.574 751.226 521.075 752.98 517.567C754.735 514.058 766.514 509.798 770.273 512.304C774.033 514.81 776.288 515.311 780.048 510.299C783.807 505.287 794.584 500.777 800.098 503.283C805.611 505.789 811.376 505.789 816.138 503.283C817.885 502.363 820.342 502.118 823.359 501.818C828.562 501.3 835.432 500.616 843.205 496.015C855.486 488.748 849.22 478.384 846.965 476.97ZM598.095 488.999C588.571 486.743 581.303 487.746 577.544 491.003C573.784 494.261 569.273 496.015 562.757 493.008C556.24 490.001 544.962 489.75 537.945 494.512C530.927 499.273 528.421 497.519 525.414 495.263C522.406 493.008 509.875 491.755 504.361 500.025C498.847 508.294 502.356 508.545 506.617 507.041C510.877 505.538 517.394 505.538 521.404 507.041C525.414 508.545 529.674 508.044 533.434 505.037C537.193 502.029 548.722 498.521 558.496 502.781C567.585 506.743 570.389 504.637 573.761 502.106L573.763 502.104C573.888 502.01 574.014 501.915 574.142 501.82C574.272 501.723 574.403 501.626 574.536 501.528C578.295 498.772 590.075 495.263 601.353 501.528C612.631 507.793 611.378 496.266 607.869 494.01C604.36 491.755 602.355 490.502 598.095 488.999ZM411.63 469.202C415.46 465.132 411.745 465.636 408.128 466.126L407.62 466.194C407.273 466.241 406.59 466.373 405.62 466.561L405.614 466.562L405.603 466.564C402.369 467.19 395.958 468.432 388.072 469.202C381.157 469.876 379.35 471.798 374.86 476.572C372.677 478.893 369.861 481.888 365.515 485.741C352.232 497.519 338.197 506.791 322.408 506.791C306.619 506.791 307.12 495.263 308.122 490.502C309.125 485.741 316.393 480.228 322.408 481.982C326.31 483.12 324.833 485.629 323.313 488.209C322.491 489.606 321.656 491.024 321.656 492.256C321.656 495.765 323.41 502.531 332.684 501.278C341.957 500.025 341.706 491.003 339.45 482.734C337.195 474.464 322.408 466.194 306.117 473.963C289.827 481.731 292.834 498.521 297.847 506.791C302.859 515.061 314.388 524.333 332.684 522.829C350.979 521.325 368.022 505.538 376.793 496.266C382.011 490.751 391.927 483.729 399.951 478.047C405.417 474.177 410.005 470.928 411.63 469.202ZM277.045 506.791C276.544 500.526 281.055 505.538 283.311 509.046C292.457 520.423 306.171 523.658 313.847 525.469L313.851 525.47C314.796 525.693 315.65 525.894 316.393 526.087C323.16 527.841 321.656 530.347 317.395 532.853C313.49 535.15 311.48 534.288 308.855 533.164L308.849 533.161L308.83 533.153C308.599 533.054 308.364 532.954 308.122 532.853C308.045 532.82 307.97 532.789 307.898 532.758C307.805 532.719 307.716 532.681 307.631 532.644C307.381 532.537 307.162 532.439 306.961 532.35C305.202 531.57 304.832 531.405 297.847 530.347C281.556 527.34 277.546 513.056 277.045 506.791ZM306.368 542.877C311.38 538.115 308.122 538.366 303.862 539.118C302.947 539.252 301.331 539.789 298.965 540.575L298.963 540.576C294.847 541.944 288.462 544.066 279.551 546.134C265.516 549.392 256.494 547.387 252.985 541.624C249.476 535.86 252.734 531.349 257.997 529.595C261.719 528.355 262.433 530.497 263.153 532.657C263.45 533.551 263.749 534.448 264.263 535.108C266.017 537.364 269.777 537.113 272.784 535.108C275.792 533.103 276.293 528.843 274.539 526.087C272.784 523.33 266.769 521.075 256.494 522.829C246.218 524.583 235.943 534.106 236.945 547.387C237.948 560.669 250.98 561.421 263.261 560.669C275.541 559.917 301.355 547.638 306.368 542.877ZM460.001 246.422C464.011 243.916 469.023 241.911 463.259 248.427C457.494 254.942 426.668 283.761 399.851 301.052C373.034 318.343 346.718 354.429 342.458 361.696C338.197 368.963 324.914 384.5 336.694 358.438C348.473 332.376 370.778 304.31 393.585 289.524C401.376 284.474 410.95 278.12 420.4 271.848L420.407 271.844L420.421 271.834L420.431 271.828L420.435 271.825L420.437 271.823L420.441 271.821L420.448 271.817L420.452 271.814C438.65 259.737 456.374 247.974 460.001 246.422ZM436.191 291.028C439.951 286.517 444.963 283.009 441.454 291.028C437.946 299.047 412.382 334.632 387.069 353.927C361.756 373.223 344.212 396.529 340.453 404.297C336.694 412.066 330.929 418.331 334.939 404.297C338.949 390.264 351.982 361.696 377.545 342.651C403.109 323.606 426.918 301.052 436.191 291.028ZM418.648 347.663C422.407 344.655 425.916 342.4 423.66 349.417C421.405 356.433 411.129 372.973 403.36 380.491C395.59 388.009 367.27 406.302 361.756 409.56C360.799 410.125 359.805 410.758 358.84 411.373C354.241 414.3 350.302 416.809 354.237 409.56C358.999 400.789 369.275 388.259 386.317 377.484C403.36 366.708 416.392 351.923 418.648 347.663ZM488.321 163.224C491.092 157.338 495.088 156.709 493.835 163.726C492.582 170.742 485.815 185.778 473.284 197.055C460.753 208.332 444.713 221.613 412.883 237.401C399.899 243.841 384.662 250.156 370.015 256.227C348.756 265.038 328.739 273.335 318.649 280.754C314.822 283.567 311.227 286.523 307.647 289.466C295.281 299.631 283.103 309.643 262.258 313.08C237.948 317.09 231.933 316.088 223.913 310.324C214.053 303.238 217.151 294.146 224.512 286.387C233.763 276.627 241.813 268.134 293.336 263.964C336.163 260.497 345.125 255.832 360.626 247.763C364.174 245.916 368.065 243.891 372.783 241.661C400.352 228.63 456.427 201.262 473.284 184.024C483.547 173.528 485.995 168.242 487.902 164.126C488.043 163.82 488.182 163.519 488.321 163.224ZM364.763 77.7712C369.275 77.4371 379.6 77.7712 384.813 81.7807C391.33 86.7926 397.345 93.8093 395.59 107.091C393.836 120.372 387.32 121.625 384.813 121.625L384.738 121.626C384.644 121.626 384.543 121.627 384.434 121.629C381.51 121.664 373.33 121.764 374.287 108.845C375.29 95.3129 369.776 85.7903 367.27 83.7855C364.763 81.7807 362.257 77.8675 364.763 77.7712ZM336.694 97.067C330.679 95.8141 325.165 94.8117 329.425 101.828C333.686 108.845 346.468 115.862 352.232 117.365C357.997 118.869 364.513 114.108 357.245 107.091C349.977 100.074 340.202 97.7319 336.694 97.067ZM324.185 138.641C320.665 137.307 318.962 136.662 319.902 140.42C319.972 140.703 320.045 141.009 320.121 141.335L320.122 141.337C321.131 145.617 322.938 153.287 333.185 157.711C334.863 158.436 336.355 159.114 337.71 159.729C345.261 163.16 348.554 164.657 355.992 161.47C363.584 158.216 358.972 156.465 355.319 155.078C354.752 154.862 354.207 154.655 353.736 154.453C350.227 152.95 344.714 148.439 342.959 142.425C341.205 136.411 337.696 136.912 335.44 137.914C333.185 138.916 327.922 138.916 324.914 138.916C324.771 138.863 324.629 138.809 324.491 138.757L324.185 138.641ZM206.619 388.76C206.118 386.254 204.113 383.748 202.108 386.004C200.103 388.259 199.602 389.011 198.85 391.015C198.098 393.02 199.101 394.774 202.108 395.526C205.116 396.278 206.619 396.278 206.619 388.76ZM179.051 366.958C181.557 366.958 185.066 367.961 182.058 369.965L181.818 370.125C178.845 372.103 175.147 374.563 179.051 377.734C183.061 380.992 192.334 380.24 191.833 372.471C191.331 364.703 184.314 361.696 176.795 360.944C175.098 360.774 172.852 360.681 170.3 360.575C161.541 360.212 149.171 359.7 142.961 355.431C134.941 349.918 130.931 338.39 135.192 329.369C139.452 320.348 146.72 316.589 153.237 321.099C159.753 325.61 158.5 333.629 156.244 335.133C153.988 336.637 150.229 338.14 149.978 332.877C149.728 327.615 147.973 325.861 145.467 326.612C142.961 327.364 141.708 331.374 142.961 335.884C142.975 335.935 142.989 335.985 143.002 336.036L143.037 336.165L143.056 336.24L143.086 336.358L143.12 336.492L143.157 336.639L143.215 336.871C144.402 341.663 146.506 350.157 171.031 353.426C197.346 356.934 199.853 359.691 201.356 368.712C202.86 377.734 197.096 388.76 189.577 388.76C182.058 388.76 173.036 385.753 172.033 378.486C171.031 371.218 173.788 366.958 179.051 366.958ZM157.748 441.636C154.239 434.368 144.214 418.832 129.928 413.318C115.643 407.805 104.866 410.061 101.357 413.318C97.8485 416.576 97.8485 422.34 101.357 425.598C104.866 428.855 106.871 430.109 111.132 430.109C115.392 430.109 116.144 426.851 113.638 421.338C111.132 415.824 114.891 413.82 120.655 416.576C126.42 419.333 141.457 427.352 144.214 432.364C144.781 433.395 145.327 434.31 145.806 435.112C147.655 438.208 148.505 439.631 145.718 439.631C142.209 439.631 139.703 442.889 141.958 447.65C144.214 452.411 150.229 455.669 155.993 452.411C160.605 449.805 159.084 444.142 157.748 441.636ZM175.041 428.354C174.038 424.846 174.79 421.087 179.051 425.598C183.311 430.109 186.319 440.132 184.565 448.652C182.81 457.173 178.048 457.674 175.041 457.173C172.033 456.671 166.018 455.669 169.527 448.652C170.454 446.799 171.416 445.453 172.292 444.226C174.734 440.807 176.516 438.312 175.041 428.354ZM80.0542 399.786C81.3073 396.779 82.0592 395.276 86.0692 398.032C90.0792 400.789 95.3423 407.304 89.8286 410.311C84.3148 413.318 71.533 417.077 57.9993 413.318C44.4655 409.56 42.4606 396.529 44.7162 388.008C46.9718 379.488 55.493 379.739 59.2524 381.493C63.0117 383.247 65.2674 386.505 63.7636 390.013C62.2599 393.521 58.5005 393.521 56.9968 391.767C55.493 390.013 53.2374 388.008 53.2374 391.767C53.2374 395.526 53.7386 406.552 65.518 407.054C76.6716 407.528 79.0152 402.161 79.9151 400.1C79.9655 399.985 80.0115 399.879 80.0542 399.786ZM69.1725 312.724C67.1675 308.966 68.4207 305.958 70.9269 307.963C73.4332 309.968 75.1875 315.23 73.4332 321.245C72.1822 325.533 69.7845 327.019 67.512 328.426C66.5974 328.993 65.7031 329.547 64.9121 330.266C62.1552 332.772 62.4058 336.03 62.6564 338.786C62.9071 341.543 60.1502 350.564 52.8821 353.321C47.2984 355.439 47.7794 357.261 48.3022 359.241C48.4599 359.839 48.6215 360.451 48.6215 361.089C48.6215 361.565 48.6885 362.167 48.7661 362.863C49.1385 366.206 49.7536 371.727 44.3609 375.875C37.8446 380.886 34.3359 382.139 30.0753 382.139C25.8147 382.139 21.0528 378.882 25.564 377.378C26.672 377.009 28.0824 376.745 29.602 376.461C34.2697 375.589 39.9683 374.525 41.1027 369.61C42.6065 363.094 42.8571 361.34 41.1027 358.082C39.3484 354.825 38.8471 349.061 45.8646 348.56C52.8821 348.058 57.8946 341.543 56.1402 337.283L56.0404 337.041C54.3131 332.853 52.5089 328.479 59.1477 326.758C65.9145 325.004 70.6761 317.486 69.1725 312.724ZM135.194 283.648C134.024 281.727 132.387 277.684 135.194 276.882C138.703 275.879 139.956 276.631 141.71 281.392C142.017 282.226 142.34 283.037 142.655 283.829L142.657 283.834C144.14 287.561 145.456 290.867 144.216 294.173C144.053 294.608 143.884 295.04 143.717 295.467C142.342 298.98 141.088 302.186 144.216 304.197C147.725 306.452 147.725 309.459 144.216 310.712C140.707 311.965 134.442 311.213 128.176 306.703C121.911 302.192 120.407 293.672 121.159 289.161C121.911 284.65 123.414 282.645 126.673 283.648C129.931 284.65 130.683 286.404 129.429 289.161C129.282 289.486 129.102 289.847 128.911 290.23C127.487 293.09 125.437 297.21 131.184 297.431C137.7 297.681 137.951 288.158 135.194 283.648ZM231.183 237.538C232.436 232.777 237.699 239.042 237.699 246.058C237.699 262.347 224.165 272.622 213.639 279.137C206.447 283.589 198.436 284.297 192.084 284.858C189.14 285.119 186.551 285.348 184.567 285.903C180.932 286.921 180.418 290.552 179.942 293.912C179.598 296.344 179.273 298.634 177.8 299.686C174.291 302.192 172.787 297.431 174.542 295.175C175.527 293.909 175.88 291.774 176.31 289.169C176.647 287.135 177.031 284.812 177.8 282.395C179.366 277.473 188.323 277.544 197.359 277.616L197.367 277.616C198.45 277.625 199.534 277.634 200.607 277.634C210.632 277.634 223.664 265.605 228.175 257.586C231.103 252.381 230.97 247.493 230.858 243.402C230.797 241.189 230.743 239.209 231.183 237.538ZM183.564 205.211C180.056 199.448 176.046 195.689 175.294 202.204C174.542 208.72 173.539 223.004 173.79 227.514C174.041 232.025 174.542 236.285 179.053 231.273C179.442 230.841 179.848 230.409 180.261 229.969C184.631 225.315 189.747 219.866 183.564 205.211Z" stroke="url(#paint0_linear_105_51)" stroke-width="22" mask="url(#path-1-outside-1_105_51)"/>
</g>
<defs>
<linearGradient id="paint0_linear_105_51" x1="10.8493" y1="12.2103" x2="1061.53" y2="12.2103" gradientUnits="userSpaceOnUse">
<stop stop-color="#FFE072"/>
<stop offset="1" stop-color="#FF8DBC"/>
</linearGradient>
</defs>
</svg>
