<svg width="584" height="586" viewBox="0 0 584 586" fill="none" xmlns="http://www.w3.org/2000/svg">
<g opacity="0.5">
<mask id="path-1-outside-1_48_162" maskUnits="userSpaceOnUse" x="-1" y="0.273438" width="1073" height="585" fill="black">
<rect fill="white" x="-1" y="0.273438" width="1073" height="585"/>
<path fill-rule="evenodd" clip-rule="evenodd" d="M832.324 133.822C840.093 146.603 825.306 146.352 818.289 143.345C785.958 123.798 786.71 84.2043 798.991 63.4049C811.271 42.6054 841.597 23.3096 886.208 15.0399C930.819 6.77028 961.896 13.2858 990.468 23.3096C1019.04 33.3334 1043.1 74.1804 1051.62 90.9703C1060.14 107.76 1070.92 136.078 1043.1 183.44C1015.34 230.699 976.352 245.773 938.834 260.278L938.588 260.373C900.995 274.907 850.369 281.924 837.837 282.425C827.109 282.854 827.586 290.263 827.946 295.845C828.006 296.783 828.063 297.67 828.063 298.463C828.063 299.244 828.098 300.095 828.137 301.039C828.374 306.767 828.753 315.942 822.299 333.797C814.807 354.521 826.474 361.065 846.886 372.514L847.11 372.64C867.662 384.167 870.419 406.971 863.15 428.021C857.555 444.228 860.724 458.8 863.737 472.654C864.637 476.794 865.524 480.87 866.158 484.906C868.915 502.448 847.11 512.221 836.584 513.474C836.192 513.521 835.796 513.568 835.398 513.615L835.324 513.623C825.059 514.835 813.088 516.248 808.514 522.746C804.793 528.035 801.836 526.434 798.09 524.406C797.043 523.839 795.934 523.239 794.73 522.746C793.996 522.446 793.272 522.119 792.559 521.798L792.556 521.797L792.553 521.796C787.91 519.702 783.769 517.835 780.946 525.002C777.688 533.271 774.429 532.77 769.918 530.515C765.407 528.259 757.888 526.756 755.633 532.77C753.377 538.784 747.362 540.539 742.099 536.78C736.836 533.021 731.071 535.527 726.31 540.539C721.548 545.55 719.041 542.042 716.034 529.011C713.026 515.98 716.535 508.462 727.813 500.443C738.625 492.756 768.555 487.602 782.493 485.201L782.494 485.201L782.497 485.201L782.606 485.182C783.166 485.086 783.699 484.994 784.204 484.906C797.236 482.651 805.507 472.126 805.006 462.603C804.504 453.081 801.246 443.307 776.184 432.031C757.964 423.833 740.405 427.025 725.339 429.764C719.682 430.792 714.376 431.757 709.518 432.031C708.521 432.087 707.545 432.137 706.589 432.187C690.48 433.022 680.405 433.544 683.954 454.835C687.713 477.388 670.17 483.152 644.355 491.171C618.541 499.19 613.278 511.219 611.273 520.491C609.268 529.763 605.007 527.006 602 525.002C601.268 524.514 600.551 523.804 599.745 523.005C597.236 520.519 593.858 517.172 586.461 516.983C576.687 516.732 572.176 522.496 568.667 529.011C565.158 535.527 560.396 531.266 559.644 529.763C559.613 529.699 559.58 529.632 559.546 529.561C559.521 529.507 559.494 529.451 559.467 529.393L559.45 529.356L559.447 529.351C558.643 527.64 556.986 524.113 549.619 519.739C541.599 514.978 537.589 523.247 536.587 529.763C535.584 536.278 531.324 533.522 529.82 531.266C527.314 526.756 523.053 525.002 519.294 524.5C515.534 523.999 508.266 523.498 506.763 531.266C505.259 539.035 502.753 537.531 499.745 533.522C496.738 529.512 494.482 526.505 490.723 511.72C486.963 496.935 492.226 492.675 499.745 486.66C507.264 480.646 523.805 476.887 547.113 476.887C570.421 476.887 593.479 467.114 599.995 462.603C606.511 458.093 607.514 442.055 593.479 424.012C580.034 406.727 584.528 390.133 586.032 384.583C586.056 384.492 586.08 384.405 586.103 384.321C586.141 384.177 586.177 384.042 586.211 383.916C586.629 382.328 587.214 380.795 587.725 379.457C588.745 376.786 589.468 374.895 587.965 374.895C586.639 374.895 585.486 375.848 578.499 381.622L578.498 381.622L578.498 381.623L578.492 381.627L578.492 381.628L578.489 381.63C573.59 385.678 565.825 392.095 553.128 402.21C524.385 425.108 500.218 427.092 475.954 429.083C474.195 429.228 472.435 429.372 470.673 429.525C445.268 431.723 442.482 442.016 440.268 450.193L440.097 450.825C439.58 452.72 439.3 454.904 438.997 457.263C437.98 465.2 436.709 475.117 425.31 482.651C419.327 485.742 412.868 491.411 405.792 497.622C395.081 507.023 382.954 517.667 368.919 522.496C345.611 530.515 308.268 552.066 287.216 566.851C267.42 580.754 244.522 571.613 234.357 567.555C233.712 567.297 233.118 567.06 232.58 566.851C230.786 566.154 228.893 565.248 226.907 564.298C218.904 560.469 209.388 555.917 198.745 561.338C185.462 568.104 169.673 569.357 159.899 566.851C150.124 564.345 155.889 559.083 159.899 557.328C163.909 555.574 163.407 551.815 155.889 552.066C148.37 552.316 134.586 550.562 125.814 546.052C117.042 541.541 126.816 538.033 134.586 536.529C142.355 535.025 139.849 532.269 134.586 529.512C129.812 527.012 121.946 525.131 115.102 523.493L115.1 523.493L115.099 523.493L115.087 523.49C114.39 523.323 113.703 523.159 113.032 522.997C105.764 521.243 106.516 517.985 111.027 514.978C111.419 514.717 111.799 514.459 112.175 514.205C116.121 511.535 119.503 509.247 129.573 506.959C136.933 505.286 145.52 509.306 153.697 513.134C157.772 515.042 161.745 516.901 165.412 517.985C173.131 520.265 177.535 520.827 188.679 522.247C193.456 522.856 199.471 523.623 207.517 524.751C234.334 528.51 260.9 509.966 273.682 500.193C286.464 490.419 289.973 475.384 290.724 466.863C291.476 458.343 285.461 461.601 283.206 464.608C282.81 465.136 282.46 465.733 282.039 466.452L282.039 466.453C280.061 469.834 276.502 475.913 259.146 490.169C238.093 507.46 221.552 500.193 214.785 496.684L214.662 496.621L214.661 496.62C207.786 493.055 188.633 483.125 174.184 478.641C171.945 477.947 169.26 477.127 166.272 476.215C149.856 471.203 124.269 463.393 113.032 458.093C109.628 456.487 105.616 454.356 101.176 451.997L101.174 451.996C88.2867 445.149 71.7975 436.388 56.1401 433.033C35.0876 428.522 23.3083 425.515 14.7871 416.243C8.62378 409.537 11.3762 394.833 13.3713 384.175L13.3717 384.173C14.1349 380.097 14.7871 376.612 14.7871 374.394C14.7871 366.822 17.4688 367.74 20.2997 368.71C20.4668 368.767 20.6344 368.825 20.8021 368.881C21.2715 369.037 21.741 369.236 22.2122 369.436C24.7606 370.518 27.3647 371.623 30.3258 366.124C33.5239 360.185 29.4346 354.039 25.4591 348.063C25.073 347.483 24.688 346.904 24.3108 346.327C20.0502 339.812 21.8046 339.31 32.5814 340.563C43.3583 341.816 39.5989 328.785 36.5914 324.776C33.5839 320.766 33.0826 318.511 46.6164 320.015C60.1501 321.518 57.3932 309.74 53.8845 306.984C50.3757 304.227 51.6288 299.967 55.8895 299.215C60.1501 298.463 74.4357 296.459 84.21 314.251C90.5989 325.88 87.6722 330.123 82.3586 337.824C79.543 341.906 76.057 346.958 72.9319 354.597C64.2525 375.811 84.3324 383.574 101.936 390.38C102.632 390.649 103.323 390.917 104.009 391.184C122.054 398.2 183.457 412.484 194.234 413.988C205.011 415.491 198.495 410.479 194.234 407.222C192.675 406.03 189.069 403.764 184.067 400.621C175.398 395.174 162.538 387.094 148.871 377.401C135.368 367.824 127.669 346.053 121.213 327.797C117.364 316.912 113.956 307.277 110.024 302.222C102.826 292.969 99.3785 282.192 97.8376 273.257C96.5102 269.711 94.0122 263.977 85.3752 257.5C75.3502 249.983 67.5809 236.952 65.5759 225.675C64.3252 218.64 62.2943 213.361 60.2131 207.952C58.9581 204.689 57.6848 201.379 56.5533 197.608C53.6516 187.937 59.1488 184.331 60.8897 183.189L60.8969 183.184L60.9071 183.177L60.9239 183.166L60.9244 183.166L60.9485 183.15C60.9896 183.123 61.0284 183.098 61.0646 183.074C61.1265 183.032 61.1987 182.983 61.2803 182.927L61.2863 182.923C63.1926 181.618 70.1611 176.847 71.8414 189.088C73.3766 200.271 83.7399 204.163 90.3359 206.64C91.2776 206.994 92.1424 207.319 92.8939 207.632C98.9089 210.138 98.4077 216.653 96.4026 221.916C96.0757 222.774 95.7356 223.618 95.3994 224.453C93.6736 228.737 92.0547 232.757 92.8939 236.952C93.8964 241.963 98.9089 243.718 102.668 244.469C106.428 245.221 106.428 247.978 105.676 249.983C105.553 250.309 105.397 250.649 105.23 251.014L105.23 251.015C104.37 252.891 103.205 255.433 104.673 260.257C106.428 266.021 113.946 269.529 119.209 270.281C124.473 271.033 129.68 269.637 133.69 261.117C137.255 253.542 139.204 248.838 140.011 240.961C141.704 224.453 140.919 205.595 122.607 208.926L122.604 208.926L122.601 208.927C115.474 210.225 113.946 210.503 113.946 201.618C113.946 192.095 113.946 184.828 111.941 176.308C109.936 167.787 112.443 147.99 121.465 137.716C130.488 127.442 146.778 119.924 168.081 127.191C189.384 134.458 194.647 141.475 196.402 148.492C198.156 155.508 197.404 158.766 192.893 162.274C188.382 165.783 178.607 174.553 194.146 182.322C198.408 184.453 201.991 186.037 205.226 187.467C213.787 191.251 219.913 193.959 229.735 202.871C236.81 209.29 238.411 215.225 240.006 221.133C241.48 226.595 242.948 232.034 248.727 237.812C258.516 247.6 269.421 254.609 299.246 253.857C329.07 253.106 350.373 238.32 368.418 223.786C386.463 209.251 396.739 191.71 397.49 168.655C398.242 145.6 384.709 135.075 374.684 128.81C364.659 122.545 351.877 128.058 350.624 137.08C349.371 146.101 356.639 148.106 366.914 149.86C377.19 151.614 374.182 157.629 369.922 163.142C365.661 168.655 349.872 183.941 325.311 176.925C300.749 169.908 299.998 133.321 310.273 106.507C320.549 79.6935 354.132 62.1519 390.974 62.1519C427.816 62.1519 472.427 79.1924 492.477 106.507C512.527 133.822 514.532 165.397 511.775 193.213C509.559 215.572 498.437 235.341 492.726 245.491C491.332 247.968 490.261 249.872 489.72 251.101C486.974 257.341 487.461 257.366 492.419 257.613L492.477 257.616C497.49 257.867 519.043 254.609 538.341 251.101C557.534 247.612 583.916 236.934 594.559 232.627L594.732 232.557C597.093 231.601 600.337 230.154 604.378 228.351C618.355 222.114 641.873 211.621 671.423 202.485C709.518 190.707 759.392 199.979 784.204 211.006C809.016 222.032 821.797 220.779 842.85 216.519C848.254 215.425 856.713 214.199 866.786 212.74C895.954 208.514 938.654 202.327 959.891 191.71C988.463 177.426 992.723 152.366 994.478 126.805C996.232 101.245 969.666 80.4453 938.338 63.4049C907.01 46.3644 868.414 54.634 841.597 76.6864C814.78 98.7388 824.554 121.042 832.324 133.822ZM176.045 317.752C167.933 305.761 160.981 312.645 163.248 319.543C172.023 346.236 199.089 347.699 208.06 348.183L208.123 348.187C208.518 348.208 208.895 348.223 209.255 348.236C209.557 348.246 209.847 348.255 210.125 348.263L210.13 348.263H210.132C212.151 348.321 213.552 348.362 214.466 349.049C216.539 350.608 216.11 355.493 214.709 371.453L214.708 371.469L214.689 371.678C214.519 373.621 214.334 375.726 214.138 378.008C212.225 400.267 225.519 416.855 236.349 430.366C241.124 436.325 245.421 441.686 247.722 446.671C255.241 462.959 239.952 479.248 224.414 474.236C210.051 469.604 212.604 458.12 213.865 452.451L213.867 452.437C213.917 452.216 213.964 452.005 214.008 451.803C214.03 451.699 214.052 451.598 214.073 451.5C214.096 451.39 214.118 451.284 214.138 451.181C215.141 446.17 217.898 448.425 218.649 454.439C219.401 460.454 226.419 462.959 234.94 458.449C243.461 453.938 242.459 440.656 236.945 435.645C231.431 430.633 226.419 426.623 211.131 430.382C195.843 434.141 186.82 464.964 204.614 477.745C232.619 496.33 249.351 483.305 256.264 477.924L256.494 477.745C263.26 472.482 272.784 448.926 249.727 426.623C226.669 404.32 224.163 390.287 226.419 371.492C228.674 352.697 249.226 340.418 252.734 338.414C256.243 336.409 263.01 333.652 259.752 336.91C256.494 340.168 248.724 352.196 242.459 368.986C236.193 385.776 243.211 395.048 253.987 401.062C264.764 407.077 274.037 402.315 278.799 396.802C283.561 391.289 287.822 381.516 283.561 371.492C279.3 361.468 266.519 365.227 263.01 371.492C259.501 377.757 261.005 381.265 267.521 380.012C274.037 378.759 273.035 389.284 269.275 392.041C265.516 394.798 253.987 401.062 253.987 380.012C253.987 358.962 282.809 338.664 287.822 335.657C288.724 335.116 291.03 333.357 294.092 331.022C308.045 320.383 337.687 297.781 321.656 323.879C302.107 355.705 296.092 370.49 296.092 401.062C296.092 431.635 320.152 460.203 361.505 464.964C402.858 469.726 417.896 451.683 420.903 446.671C423.911 441.659 429.174 422.864 415.64 410.836C402.106 398.807 383.56 404.07 373.034 410.836C362.508 417.602 365.515 426.623 373.034 432.637C379.049 437.449 388.406 436.647 392.332 435.645C377.044 460.454 346.468 454.439 330.177 437.148C313.887 419.857 308.122 396.802 325.917 355.705C343.711 314.607 374.788 284.535 413.886 264.237C452.983 243.939 494.086 208.354 502.607 197.328C511.128 186.302 512.381 167.006 505.364 182.042C498.346 197.078 473.534 216.373 448.221 233.665C433.637 243.627 395.589 261.243 362.027 276.783C337.339 288.214 315.078 298.521 306.368 303.831C285.817 316.361 242.459 334.404 215.893 336.91C190.49 339.306 182.486 327.36 176.792 318.862C176.539 318.485 176.291 318.114 176.045 317.752ZM931.926 20.9089C932.678 18.8206 932.728 14.8445 926.914 15.6464C919.646 16.6488 911.876 18.1523 910.874 26.9232C909.871 35.694 909.621 40.4553 920.147 44.2143C929.839 47.6754 929.12 41.5756 928.749 38.4355C928.717 38.1653 928.688 37.9171 928.668 37.6988C928.418 34.9422 928.668 28.4268 931.926 20.9089ZM845.712 30.6819C851.361 27.6812 851.632 32.4363 849.471 34.9421C843.206 42.2093 848.469 50.7297 851.977 52.2333C854.826 53.4543 862.754 60.2524 848.468 60.2524C836.188 60.2524 834.183 55.2403 833.932 49.4766C833.682 43.7129 837.692 34.942 845.712 30.6819ZM993.83 36.6964C997.84 39.4529 994.833 41.7083 991.825 41.7083C986.813 41.7083 983.555 41.7083 974.783 45.4672C966.011 49.2262 966.011 57.7464 966.262 61.0041C966.512 64.2619 965.51 67.0184 962.502 63.5101C959.495 60.0018 956.989 53.9875 956.738 46.219C956.487 38.4506 964.758 30.9327 973.53 30.6821C982.302 30.4315 989.82 33.9398 993.83 36.6964ZM877.04 29.6797C880.276 26.444 884.559 24.5007 887.316 23.916C886.714 30.3313 889.404 37.4482 890.824 40.2047C892.077 43.2119 892.077 45.5675 888.819 46.219C877.039 48.5749 875.787 45.9684 874.283 42.2095C872.479 37.6988 873.531 33.1881 877.04 29.6797ZM812.879 55.2406C816.287 52.0329 817.14 55.5747 817.14 57.7465C817.39 61.5056 819.145 66.2667 821.15 68.522C822.686 70.2507 827.168 71.2433 829.854 71.8382C830.673 72.0195 831.325 72.1639 831.676 72.2809C833.18 72.7821 834.683 76.2905 822.653 81.0518C810.623 85.8131 807.115 77.5434 806.864 72.5315C806.613 67.5196 808.618 59.2501 812.879 55.2406ZM801.35 99.3452C804.358 101.55 811.96 100.598 815.385 99.8464C817.641 99.0947 818.643 99.8464 818.393 101.099C818.382 101.155 818.37 101.216 818.356 101.283C818.071 102.732 817.257 106.867 814.383 112.376C811.375 118.14 807.115 116.386 803.355 113.379C799.596 110.371 797.34 101.851 796.839 99.8464C796.338 97.8417 797.591 96.5887 801.35 99.3452ZM1021.9 63.5101C1019.89 61.6724 1014.48 57.6462 1008.87 56.2428C1001.85 54.4887 994.582 52.9851 988.817 58.9994C983.053 65.0137 983.053 78.7964 986.311 83.0565C989.569 87.3167 992.577 85.8131 994.08 81.8036C995.584 77.7941 1001.85 66.0162 1017.14 68.522C1023.15 69.508 1025.41 66.0161 1021.9 63.5101ZM1038.69 93.5816C1042.5 96.1878 1044.62 103.188 1045.21 106.362C1046.11 112.204 1042.17 110.592 1039 109.293L1038.99 109.291L1038.99 109.291C1038.63 109.142 1038.28 108.997 1037.94 108.868C1019.9 101.099 1009.87 107.615 1008.12 108.868C1006.36 110.121 1001.85 111.624 1004.11 103.856C1006.36 96.0875 1016.64 91.3262 1023.4 90.5744C1030.17 89.8226 1033.93 90.3238 1038.69 93.5816ZM1042.95 167.758C1044.46 165.168 1047.11 158.235 1045.71 151.219C1043.96 142.448 1038.94 136.684 1034.18 134.679C1029.42 132.674 1018.14 131.672 1012.13 135.682C1006.11 139.691 1003.6 142.448 1002.35 144.452C1001.1 146.457 999.595 151.469 1007.11 150.216C1007.78 150.105 1008.48 149.982 1009.21 149.854L1009.21 149.854C1016.67 148.544 1026.81 146.763 1030.92 152.471C1034.16 156.966 1035.59 161.848 1036.51 164.988C1036.87 166.225 1037.16 167.191 1037.44 167.758C1038.44 169.763 1040.2 172.269 1042.95 167.758ZM1010.12 179.786C1002.35 176.278 989.069 179.035 985.811 179.786C981.299 181.791 983.304 183.796 985.059 184.798C986.813 185.801 993.329 188.056 998.843 189.81C1004.36 191.564 1006.11 194.07 1007.11 197.579C1007.4 198.581 1007.69 199.502 1007.97 200.422C1008.69 202.724 1009.4 205.025 1010.12 208.605C1011.12 213.617 1014.13 211.111 1015.38 209.106C1016.64 207.101 1019.14 201.839 1019.9 194.07C1020.65 186.302 1017.89 183.295 1010.12 179.786ZM959.738 200.475C964.164 200.139 972.032 199.542 976.287 206.349C981.299 214.369 976.537 225.645 975.535 227.901C974.532 230.156 967.766 239.177 961.249 242.686C954.733 246.194 956.487 240.43 957.741 238.175C957.908 237.873 958.17 237.437 958.496 236.894C960.607 233.376 965.409 225.375 964.758 220.383C964.006 214.619 958.492 208.354 955.485 205.347C952.477 202.34 952.979 200.862 957.741 200.586C958.27 200.586 958.949 200.534 959.736 200.475H959.738ZM928.668 218.879C924.157 211.111 913.38 213.617 909.871 214.619C907.365 215.622 908.117 217.125 909.37 218.879L909.427 218.959L909.514 219.081C910.666 220.686 911.242 221.489 914.132 230.156C916.487 237.222 915.307 245.363 914.564 250.488C914.358 251.906 914.186 253.093 914.132 253.963C913.881 257.972 915.636 257.972 918.393 256.97C921.149 255.967 925.911 250.454 928.668 245.192C931.425 239.929 933.179 226.648 928.668 218.879ZM859.496 223.641C862.253 222.889 869.27 223.139 873.781 228.151C878.293 233.163 881.3 236.672 880.298 248.45C879.295 260.228 874.032 268.247 869.521 269.5C865.01 270.753 864.007 270.001 864.258 266.492C864.508 262.984 865.26 247.447 864.258 241.433C863.255 235.419 861 228.903 858.995 226.898C856.99 224.894 857.992 223.898 859.496 223.641ZM834.684 243.438C831.677 233.915 819.145 228.652 815.386 227.65C810.373 226.397 812.128 229.154 813.632 231.409C814.235 232.314 815.565 234.591 817.119 237.253C819.438 241.223 822.257 246.049 823.907 248.45C826.664 252.459 828.418 269.5 828.418 274.01C828.418 278.521 831.927 277.519 834.684 273.008C837.441 268.497 837.692 252.96 834.684 243.438ZM849.471 465.215C848.97 458.198 849.22 434.642 850.975 423.866C852.729 413.091 851.977 393.544 840.448 384.272C828.92 375 814.383 371.742 806.113 381.265C797.842 390.788 789.572 406.826 798.594 420.358C807.617 433.89 822.654 425.37 824.659 422.864C826.664 420.358 830.423 410.334 822.654 407.828C818.339 406.436 815.724 406.281 813.695 406.161C812.07 406.065 810.819 405.991 809.371 405.322C806.113 403.819 806.614 400.06 809.371 397.303C812.128 394.547 822.403 389.284 829.421 397.303C836.438 405.322 837.942 418.604 832.178 433.138C826.413 447.673 823.907 452.935 822.654 455.191C822.451 455.557 822.174 455.983 821.877 456.441C820.343 458.806 818.246 462.038 822.654 462.458C827.917 462.959 839.446 465.215 844.458 468.472C849.471 471.73 849.66 470.226 849.471 465.215ZM415.891 80.0495C412.883 74.5364 415.891 75.5388 420.402 77.0423C428.171 80.0496 433.936 85.3119 442.206 99.0947C450.477 112.877 446.718 132.674 433.936 144.202C421.154 155.729 409.374 149.464 404.362 144.703C399.349 139.942 400.352 137.185 409.374 132.674C418.397 128.164 421.655 119.894 422.908 109.118C424.161 98.3429 418.898 85.5626 415.891 80.0495ZM464.762 105.861C464.512 98.8442 467.269 98.8442 470.527 104.107C484.061 132.173 481.805 152.472 465.765 172.519C449.725 192.567 427.169 201.588 412.883 201.839C398.598 202.089 402.357 192.316 406.367 184.297C410.377 176.278 423.409 168.51 433.184 165.503C442.958 162.495 453.484 156.732 460.251 142.949C466.178 130.877 465.376 116.882 464.917 108.88C464.852 107.746 464.794 106.732 464.762 105.861ZM623.164 427.287C618.285 429.318 613.665 431.242 608.872 423.115C603.107 413.342 592.33 393.795 602.105 373.998C610.735 356.518 611.745 351.151 612.553 346.857L612.554 346.856L612.554 346.855L612.554 346.853C612.661 346.285 612.764 345.736 612.882 345.18C613.884 340.418 614.135 331.146 603.859 337.411C596.343 341.993 579.174 357.703 566.669 369.144L566.669 369.145L566.668 369.145L566.647 369.164C562.064 373.357 558.11 376.976 555.489 379.261C554.396 380.213 553.187 381.338 551.837 382.594C541.111 392.576 521.456 410.868 480.051 417.1C433.434 424.117 429.926 403.568 428.171 390.537C426.417 377.506 426.417 337.411 448.221 312.853C470.026 288.294 499.85 274.01 535.188 262.483C540.764 260.664 547.157 258.596 554.1 256.35L554.233 256.307L554.235 256.306L554.254 256.3L554.256 256.299L554.258 256.298C591.308 244.312 643.915 227.293 671.528 216.123C704.359 202.841 758.244 207.352 782.805 227.65C807.366 247.949 822.403 292.805 806.113 341.671C789.822 390.537 747.216 416.349 708.119 419.356C702.678 419.774 698.014 420.149 693.969 420.474C668.946 422.485 667.617 422.592 652.731 419.356C641.829 416.986 633.633 421.84 628.987 424.592C627.816 425.285 626.871 425.845 626.165 426.122C625.151 426.46 624.152 426.875 623.164 427.287ZM606.115 475.239C600.852 477.494 604.862 480 608.872 481.253C610.469 481.943 612.326 482.264 614.395 482.623C616.871 483.051 619.652 483.533 622.656 484.761C627.706 486.827 631.495 485.529 634.985 484.333C635.139 484.28 635.294 484.228 635.447 484.175C635.548 484.141 635.649 484.107 635.75 484.073C635.813 484.052 635.876 484.03 635.939 484.009C639.698 482.757 656.991 475.239 665.763 466.969C674.535 458.699 668.019 446.671 661.753 438.401C655.488 430.131 641.202 432.136 633.683 437.148C626.165 442.16 623.658 448.926 626.165 454.69C628.671 460.454 633.683 459.952 637.192 457.196C640.701 454.439 641.202 450.43 641.202 445.919C641.202 441.408 644.961 441.408 648.971 441.659C652.981 441.91 655.738 445.167 654.736 452.435C653.733 459.702 645.964 465.716 635.939 466.969C625.914 468.222 611.378 472.983 606.115 475.239ZM846.964 477.243C843.706 474.988 839.947 472.983 833.932 475.489C827.917 477.995 805.361 487.017 785.311 490.024C765.261 493.031 737.692 500.298 729.422 508.568C722.202 515.787 722.048 520.523 721.959 523.277C721.946 523.678 721.935 524.037 721.903 524.355C721.652 526.861 724.159 527.613 727.417 524.355C730.675 521.098 739.447 517.84 743.457 519.344C747.467 520.847 751.226 521.348 752.98 517.84C754.735 514.332 766.514 510.072 770.273 512.577C774.033 515.083 776.288 515.585 780.048 510.573C783.807 505.561 794.584 501.05 800.098 503.556C805.611 506.062 811.376 506.062 816.138 503.556C817.885 502.636 820.342 502.392 823.358 502.091C828.562 501.573 835.431 500.889 843.205 496.289C855.486 489.022 849.22 478.658 846.964 477.243ZM598.095 489.272C588.571 487.017 581.303 488.019 577.543 491.277C573.784 494.534 569.273 496.289 562.757 493.281C556.24 490.274 544.962 490.024 537.945 494.785C530.927 499.546 528.421 497.792 525.414 495.537C522.406 493.281 509.875 492.029 504.361 500.298C498.847 508.568 502.356 508.818 506.617 507.315C510.877 505.811 517.394 505.811 521.404 507.315C525.414 508.818 529.674 508.317 533.434 505.31C537.193 502.303 548.722 498.795 558.496 503.055C567.585 507.016 570.389 504.91 573.761 502.379L573.763 502.377C573.888 502.283 574.014 502.189 574.142 502.094C574.272 501.997 574.403 501.899 574.536 501.802C578.295 499.045 590.075 495.537 601.353 501.802C612.631 508.067 611.378 496.539 607.869 494.284C604.36 492.029 602.355 490.776 598.095 489.272ZM411.63 469.475C415.46 465.406 411.745 465.909 408.128 466.399L407.62 466.468C407.273 466.514 406.59 466.646 405.62 466.834L405.614 466.835L405.603 466.837L405.602 466.838C402.368 467.464 395.958 468.706 388.071 469.475C381.157 470.149 379.349 472.072 374.86 476.845C372.677 479.166 369.861 482.161 365.515 486.014C352.232 497.792 338.197 507.064 322.408 507.064C306.619 507.064 307.12 495.537 308.122 490.776C309.125 486.014 316.393 480.501 322.408 482.255C326.31 483.393 324.833 485.903 323.313 488.483C322.491 489.88 321.656 491.297 321.656 492.53C321.656 496.038 323.41 502.804 332.683 501.551C341.957 500.298 341.706 491.277 339.45 483.007C337.195 474.737 322.408 466.468 306.117 474.236C289.827 482.005 292.834 498.795 297.847 507.064C302.859 515.334 314.388 524.606 332.683 523.102C350.979 521.599 368.021 505.811 376.793 496.539C382.011 491.024 391.927 484.003 399.951 478.321C405.417 474.45 410.005 471.201 411.63 469.475ZM277.045 507.064C276.544 500.799 281.055 505.811 283.31 509.32C292.457 520.696 306.171 523.931 313.847 525.742L313.85 525.743C314.796 525.966 315.65 526.168 316.393 526.36C323.16 528.114 321.656 530.62 317.395 533.126C313.49 535.423 311.48 534.562 308.855 533.437L308.849 533.435L308.83 533.427C308.599 533.328 308.364 533.227 308.122 533.126C308.045 533.094 307.97 533.062 307.898 533.032C307.805 532.993 307.716 532.955 307.631 532.918C307.381 532.81 307.162 532.713 306.961 532.623C305.202 531.843 304.832 531.679 297.847 530.62C281.556 527.613 277.546 513.329 277.045 507.064ZM306.368 543.15C311.38 538.389 308.122 538.639 303.862 539.391C302.947 539.525 301.331 540.062 298.965 540.849L298.964 540.849L298.963 540.849C294.846 542.217 288.462 544.34 279.551 546.408C265.516 549.666 256.494 547.661 252.985 541.897C249.476 536.133 252.734 531.623 257.997 529.868C261.719 528.628 262.433 530.771 263.153 532.93C263.45 533.824 263.749 534.721 264.263 535.382C266.017 537.637 269.777 537.386 272.784 535.382C275.792 533.377 276.293 529.117 274.539 526.36C272.784 523.604 266.769 521.348 256.494 523.102C246.218 524.857 235.942 534.379 236.945 547.661C237.947 560.942 250.98 561.694 263.26 560.942C275.541 560.191 301.355 547.911 306.368 543.15ZM460.001 246.696C464.011 244.19 469.023 242.185 463.259 248.7C457.494 255.216 426.668 284.034 399.851 301.325C373.034 318.616 346.718 354.702 342.458 361.969C338.197 369.237 324.914 384.774 336.693 358.712C348.473 332.65 370.778 304.583 393.585 289.798C401.376 284.748 410.95 278.394 420.4 272.122L420.406 272.118L420.421 272.108L420.431 272.101L420.432 272.1L420.435 272.099L420.437 272.097L420.441 272.095L420.447 272.09L420.452 272.087C438.649 260.01 456.374 248.248 460.001 246.696ZM436.191 291.301C439.951 286.791 444.963 283.282 441.454 291.301C437.946 299.321 412.382 334.905 387.069 354.201C361.756 373.497 344.212 396.802 340.453 404.571C336.693 412.339 330.929 418.604 334.939 404.571C338.949 390.537 351.982 361.969 377.545 342.924C403.109 323.879 426.918 301.325 436.191 291.301ZM418.648 347.936C422.407 344.929 425.916 342.674 423.66 349.69C421.404 356.707 411.129 373.246 403.359 380.764C395.59 388.282 367.27 406.575 361.756 409.833C360.799 410.398 359.805 411.031 358.84 411.646C354.241 414.574 350.301 417.082 354.237 409.833C358.999 401.062 369.275 388.533 386.317 377.757C403.359 366.981 416.392 352.196 418.648 347.936ZM488.321 163.498C491.092 157.611 495.088 156.982 493.835 163.999C492.582 171.016 485.815 186.051 473.284 197.328C460.752 208.605 444.713 221.887 412.883 237.674C399.899 244.114 384.662 250.43 370.015 256.501C348.756 265.312 328.739 273.609 318.648 281.027C314.822 283.84 311.227 286.796 307.647 289.739C295.281 299.905 283.103 309.916 262.258 313.354C237.947 317.363 231.932 316.361 223.912 310.597C214.053 303.511 217.151 294.42 224.512 286.66C233.763 276.901 241.813 268.408 293.335 264.237C336.163 260.771 345.125 256.105 360.626 248.037C364.174 246.19 368.065 244.164 372.783 241.934C400.352 228.903 456.427 201.536 473.284 184.297C483.547 173.802 485.995 168.516 487.901 164.399L487.902 164.398C488.044 164.092 488.182 163.793 488.321 163.498ZM364.763 78.0446C369.275 77.7105 379.6 78.0446 384.813 82.0542C391.33 87.0661 397.345 94.0827 395.59 107.364C393.836 120.646 387.32 121.899 384.813 121.899L384.737 121.899C384.644 121.9 384.543 121.901 384.434 121.902C381.51 121.938 373.33 122.037 374.287 109.118C375.29 95.5863 369.776 86.0637 367.27 84.0589C364.763 82.0542 362.257 78.1409 364.763 78.0446ZM336.693 97.3405C330.678 96.0875 325.165 95.0851 329.425 102.102C333.686 109.118 346.468 116.135 352.232 117.639C357.997 119.142 364.513 114.381 357.245 107.364C349.977 100.348 340.202 98.0053 336.693 97.3405ZM324.185 138.914C320.665 137.58 318.962 136.935 319.902 140.693C319.972 140.977 320.044 141.283 320.121 141.608L320.122 141.61C321.131 145.891 322.938 153.56 333.185 157.985C334.863 158.709 336.355 159.387 337.71 160.003C345.261 163.434 348.554 164.93 355.992 161.743C363.584 158.49 358.972 156.738 355.319 155.351L355.318 155.351C354.751 155.135 354.207 154.929 353.736 154.727C350.227 153.223 344.713 148.713 342.959 142.698C341.205 136.684 337.696 137.185 335.44 138.188C333.185 139.19 327.922 139.19 324.914 139.19C324.77 139.136 324.629 139.083 324.491 139.03L324.185 138.914ZM206.619 389.034C206.118 386.528 204.113 384.022 202.108 386.277C200.103 388.532 199.602 389.284 198.85 391.289C198.098 393.294 199.101 395.048 202.108 395.8C205.116 396.551 206.619 396.551 206.619 389.034ZM179.051 367.232C181.557 367.232 185.066 368.234 182.058 370.239L181.818 370.399C178.845 372.377 175.147 374.836 179.051 378.008C183.061 381.265 192.334 380.513 191.833 372.745C191.331 364.976 184.314 361.969 176.795 361.217C175.098 361.048 172.852 360.955 170.299 360.849C161.541 360.486 149.171 359.973 142.961 355.704C134.941 350.191 130.931 338.664 135.191 329.642C139.452 320.621 146.72 316.862 153.236 321.373C159.753 325.884 158.5 333.902 156.244 335.406C153.988 336.91 150.229 338.413 149.978 333.151C149.728 327.888 147.973 326.134 145.467 326.886C142.961 327.638 141.708 331.647 142.961 336.158C142.975 336.208 142.989 336.259 143.002 336.31L143.036 336.439L143.056 336.513L143.086 336.631L143.12 336.765L143.157 336.912L143.215 337.145C144.402 341.937 146.506 350.43 171.031 353.7C197.346 357.208 199.853 359.964 201.356 368.986C202.86 378.008 197.096 389.034 189.577 389.034C182.058 389.034 173.036 386.026 172.033 378.759C171.031 371.492 173.788 367.232 179.051 367.232ZM157.748 441.909C154.239 434.642 144.214 419.105 129.928 413.592C115.643 408.079 104.866 410.334 101.357 413.592C97.8484 416.85 97.8484 422.613 101.357 425.871C104.866 429.129 106.871 430.382 111.132 430.382C115.392 430.382 116.144 427.124 113.638 421.611C111.132 416.098 114.891 414.093 120.655 416.85C126.42 419.606 141.457 427.625 144.214 432.637C144.781 433.668 145.327 434.583 145.806 435.385C147.655 438.482 148.504 439.904 145.718 439.904C142.209 439.904 139.703 443.162 141.958 447.923C144.214 452.685 150.229 455.943 155.993 452.685C160.605 450.079 159.084 444.415 157.748 441.909ZM175.041 428.628C174.038 425.119 174.79 421.36 179.051 425.871C183.311 430.382 186.319 440.406 184.564 448.926C182.81 457.446 178.048 457.947 175.041 457.446C172.033 456.945 166.018 455.943 169.527 448.926C170.454 447.073 171.415 445.726 172.292 444.499C174.734 441.08 176.516 438.586 175.041 428.628ZM80.0541 400.06C81.3073 397.053 82.0591 395.549 86.0691 398.306C90.0791 401.062 95.3422 407.578 89.8285 410.585C84.3147 413.592 71.5329 417.351 57.9991 413.592C44.4655 409.833 42.4604 396.802 44.7161 388.282C46.9717 379.762 55.4929 380.012 59.2523 381.766C63.0117 383.52 65.2673 386.778 63.7635 390.287C62.2598 393.795 58.5004 393.795 56.9967 392.041C55.4929 390.287 53.2373 388.282 53.2373 392.041C53.2373 395.8 53.7386 406.826 65.5179 407.327C76.6715 407.802 79.0151 402.435 79.915 400.374C79.9655 400.258 80.0114 400.153 80.0541 400.06ZM69.1724 312.998C67.1675 309.239 68.4206 306.232 70.9268 308.237C73.433 310.241 75.1874 315.504 73.433 321.518C72.1821 325.807 69.7844 327.292 67.5119 328.7C66.5973 329.266 65.7031 329.82 64.912 330.54C62.1551 333.046 62.4057 336.303 62.6564 339.06C62.907 341.816 60.1501 350.838 52.882 353.594C47.2983 355.712 47.7793 357.534 48.3021 359.515C48.4598 360.112 48.6214 360.724 48.6214 361.363C48.6214 361.838 48.6884 362.44 48.7661 363.137C49.1384 366.479 49.7535 372 44.3608 376.148C37.8445 381.16 34.3358 382.413 30.0752 382.413C25.8146 382.413 21.0527 379.155 25.564 377.652C26.6719 377.282 28.0823 377.019 29.6019 376.735C34.2695 375.863 39.9683 374.798 41.1027 369.883C42.6064 363.368 42.857 361.613 41.1027 358.356C39.3483 355.098 38.847 349.334 45.8645 348.833C52.882 348.332 57.8945 341.816 56.1401 337.556L56.0403 337.314C54.313 333.126 52.5088 328.752 59.1476 327.031C65.9144 325.277 70.676 317.759 69.1724 312.998ZM135.194 283.921C134.024 282 132.387 277.957 135.194 277.155C138.702 276.153 139.956 276.905 141.71 281.666C142.017 282.5 142.34 283.311 142.655 284.103L142.657 284.108C144.14 287.835 145.456 291.141 144.216 294.446C144.053 294.881 143.884 295.313 143.717 295.74C142.342 299.253 141.088 302.459 144.216 304.47C147.725 306.725 147.725 309.733 144.216 310.986C140.707 312.239 134.442 311.487 128.176 306.976C121.911 302.465 120.407 293.945 121.159 289.434C121.911 284.924 123.414 282.919 126.672 283.921C129.931 284.924 130.682 286.678 129.429 289.434C129.281 289.76 129.102 290.12 128.911 290.503C127.487 293.364 125.437 297.483 131.184 297.704C137.7 297.955 137.951 288.432 135.194 283.921ZM231.183 237.812C232.436 233.05 237.699 239.315 237.699 246.332C237.699 262.621 224.165 272.895 213.639 279.411C206.447 283.862 198.436 284.57 192.084 285.132C189.139 285.392 186.551 285.621 184.567 286.177C180.932 287.194 180.418 290.825 179.942 294.185C179.598 296.617 179.273 298.907 177.8 299.959C174.291 302.465 172.787 297.704 174.542 295.449C175.527 294.182 175.88 292.047 176.31 289.443V289.442C176.647 287.407 177.031 285.086 177.8 282.668C179.366 277.746 188.323 277.818 197.359 277.89L197.367 277.89C198.45 277.898 199.534 277.907 200.607 277.907C210.632 277.907 223.664 265.878 228.175 257.859C231.103 252.655 230.97 247.767 230.858 243.675C230.797 241.463 230.743 239.483 231.183 237.812ZM183.564 205.485C180.056 199.721 176.046 195.962 175.294 202.478C174.542 208.993 173.539 223.277 173.79 227.788C174.041 232.299 174.542 236.559 179.053 231.547C179.442 231.114 179.848 230.682 180.261 230.242C184.631 225.588 189.747 220.139 183.564 205.485Z"/>
</mask>
<path fill-rule="evenodd" clip-rule="evenodd" d="M832.324 133.822C840.093 146.603 825.306 146.352 818.289 143.345C785.958 123.798 786.71 84.2043 798.991 63.4049C811.271 42.6054 841.597 23.3096 886.208 15.0399C930.819 6.77028 961.896 13.2858 990.468 23.3096C1019.04 33.3334 1043.1 74.1804 1051.62 90.9703C1060.14 107.76 1070.92 136.078 1043.1 183.44C1015.34 230.699 976.352 245.773 938.834 260.278L938.588 260.373C900.995 274.907 850.369 281.924 837.837 282.425C827.109 282.854 827.586 290.263 827.946 295.845C828.006 296.783 828.063 297.67 828.063 298.463C828.063 299.244 828.098 300.095 828.137 301.039C828.374 306.767 828.753 315.942 822.299 333.797C814.807 354.521 826.474 361.065 846.886 372.514L847.11 372.64C867.662 384.167 870.419 406.971 863.15 428.021C857.555 444.228 860.724 458.8 863.737 472.654C864.637 476.794 865.524 480.87 866.158 484.906C868.915 502.448 847.11 512.221 836.584 513.474C836.192 513.521 835.796 513.568 835.398 513.615L835.324 513.623C825.059 514.835 813.088 516.248 808.514 522.746C804.793 528.035 801.836 526.434 798.09 524.406C797.043 523.839 795.934 523.239 794.73 522.746C793.996 522.446 793.272 522.119 792.559 521.798L792.556 521.797L792.553 521.796C787.91 519.702 783.769 517.835 780.946 525.002C777.688 533.271 774.429 532.77 769.918 530.515C765.407 528.259 757.888 526.756 755.633 532.77C753.377 538.784 747.362 540.539 742.099 536.78C736.836 533.021 731.071 535.527 726.31 540.539C721.548 545.55 719.041 542.042 716.034 529.011C713.026 515.98 716.535 508.462 727.813 500.443C738.625 492.756 768.555 487.602 782.493 485.201L782.494 485.201L782.497 485.201L782.606 485.182C783.166 485.086 783.699 484.994 784.204 484.906C797.236 482.651 805.507 472.126 805.006 462.603C804.504 453.081 801.246 443.307 776.184 432.031C757.964 423.833 740.405 427.025 725.339 429.764C719.682 430.792 714.376 431.757 709.518 432.031C708.521 432.087 707.545 432.137 706.589 432.187C690.48 433.022 680.405 433.544 683.954 454.835C687.713 477.388 670.17 483.152 644.355 491.171C618.541 499.19 613.278 511.219 611.273 520.491C609.268 529.763 605.007 527.006 602 525.002C601.268 524.514 600.551 523.804 599.745 523.005C597.236 520.519 593.858 517.172 586.461 516.983C576.687 516.732 572.176 522.496 568.667 529.011C565.158 535.527 560.396 531.266 559.644 529.763C559.613 529.699 559.58 529.632 559.546 529.561C559.521 529.507 559.494 529.451 559.467 529.393L559.45 529.356L559.447 529.351C558.643 527.64 556.986 524.113 549.619 519.739C541.599 514.978 537.589 523.247 536.587 529.763C535.584 536.278 531.324 533.522 529.82 531.266C527.314 526.756 523.053 525.002 519.294 524.5C515.534 523.999 508.266 523.498 506.763 531.266C505.259 539.035 502.753 537.531 499.745 533.522C496.738 529.512 494.482 526.505 490.723 511.72C486.963 496.935 492.226 492.675 499.745 486.66C507.264 480.646 523.805 476.887 547.113 476.887C570.421 476.887 593.479 467.114 599.995 462.603C606.511 458.093 607.514 442.055 593.479 424.012C580.034 406.727 584.528 390.133 586.032 384.583C586.056 384.492 586.08 384.405 586.103 384.321C586.141 384.177 586.177 384.042 586.211 383.916C586.629 382.328 587.214 380.795 587.725 379.457C588.745 376.786 589.468 374.895 587.965 374.895C586.639 374.895 585.486 375.848 578.499 381.622L578.498 381.622L578.498 381.623L578.492 381.627L578.492 381.628L578.489 381.63C573.59 385.678 565.825 392.095 553.128 402.21C524.385 425.108 500.218 427.092 475.954 429.083C474.195 429.228 472.435 429.372 470.673 429.525C445.268 431.723 442.482 442.016 440.268 450.193L440.097 450.825C439.58 452.72 439.3 454.904 438.997 457.263C437.98 465.2 436.709 475.117 425.31 482.651C419.327 485.742 412.868 491.411 405.792 497.622C395.081 507.023 382.954 517.667 368.919 522.496C345.611 530.515 308.268 552.066 287.216 566.851C267.42 580.754 244.522 571.613 234.357 567.555C233.712 567.297 233.118 567.06 232.58 566.851C230.786 566.154 228.893 565.248 226.907 564.298C218.904 560.469 209.388 555.917 198.745 561.338C185.462 568.104 169.673 569.357 159.899 566.851C150.124 564.345 155.889 559.083 159.899 557.328C163.909 555.574 163.407 551.815 155.889 552.066C148.37 552.316 134.586 550.562 125.814 546.052C117.042 541.541 126.816 538.033 134.586 536.529C142.355 535.025 139.849 532.269 134.586 529.512C129.812 527.012 121.946 525.131 115.102 523.493L115.1 523.493L115.099 523.493L115.087 523.49C114.39 523.323 113.703 523.159 113.032 522.997C105.764 521.243 106.516 517.985 111.027 514.978C111.419 514.717 111.799 514.459 112.175 514.205C116.121 511.535 119.503 509.247 129.573 506.959C136.933 505.286 145.52 509.306 153.697 513.134C157.772 515.042 161.745 516.901 165.412 517.985C173.131 520.265 177.535 520.827 188.679 522.247C193.456 522.856 199.471 523.623 207.517 524.751C234.334 528.51 260.9 509.966 273.682 500.193C286.464 490.419 289.973 475.384 290.724 466.863C291.476 458.343 285.461 461.601 283.206 464.608C282.81 465.136 282.46 465.733 282.039 466.452L282.039 466.453C280.061 469.834 276.502 475.913 259.146 490.169C238.093 507.46 221.552 500.193 214.785 496.684L214.662 496.621L214.661 496.62C207.786 493.055 188.633 483.125 174.184 478.641C171.945 477.947 169.26 477.127 166.272 476.215C149.856 471.203 124.269 463.393 113.032 458.093C109.628 456.487 105.616 454.356 101.176 451.997L101.174 451.996C88.2867 445.149 71.7975 436.388 56.1401 433.033C35.0876 428.522 23.3083 425.515 14.7871 416.243C8.62378 409.537 11.3762 394.833 13.3713 384.175L13.3717 384.173C14.1349 380.097 14.7871 376.612 14.7871 374.394C14.7871 366.822 17.4688 367.74 20.2997 368.71C20.4668 368.767 20.6344 368.825 20.8021 368.881C21.2715 369.037 21.741 369.236 22.2122 369.436C24.7606 370.518 27.3647 371.623 30.3258 366.124C33.5239 360.185 29.4346 354.039 25.4591 348.063C25.073 347.483 24.688 346.904 24.3108 346.327C20.0502 339.812 21.8046 339.31 32.5814 340.563C43.3583 341.816 39.5989 328.785 36.5914 324.776C33.5839 320.766 33.0826 318.511 46.6164 320.015C60.1501 321.518 57.3932 309.74 53.8845 306.984C50.3757 304.227 51.6288 299.967 55.8895 299.215C60.1501 298.463 74.4357 296.459 84.21 314.251C90.5989 325.88 87.6722 330.123 82.3586 337.824C79.543 341.906 76.057 346.958 72.9319 354.597C64.2525 375.811 84.3324 383.574 101.936 390.38C102.632 390.649 103.323 390.917 104.009 391.184C122.054 398.2 183.457 412.484 194.234 413.988C205.011 415.491 198.495 410.479 194.234 407.222C192.675 406.03 189.069 403.764 184.067 400.621C175.398 395.174 162.538 387.094 148.871 377.401C135.368 367.824 127.669 346.053 121.213 327.797C117.364 316.912 113.956 307.277 110.024 302.222C102.826 292.969 99.3785 282.192 97.8376 273.257C96.5102 269.711 94.0122 263.977 85.3752 257.5C75.3502 249.983 67.5809 236.952 65.5759 225.675C64.3252 218.64 62.2943 213.361 60.2131 207.952C58.9581 204.689 57.6848 201.379 56.5533 197.608C53.6516 187.937 59.1488 184.331 60.8897 183.189L60.8969 183.184L60.9071 183.177L60.9239 183.166L60.9244 183.166L60.9485 183.15C60.9896 183.123 61.0284 183.098 61.0646 183.074C61.1265 183.032 61.1987 182.983 61.2803 182.927L61.2863 182.923C63.1926 181.618 70.1611 176.847 71.8414 189.088C73.3766 200.271 83.7399 204.163 90.3359 206.64C91.2776 206.994 92.1424 207.319 92.8939 207.632C98.9089 210.138 98.4077 216.653 96.4026 221.916C96.0757 222.774 95.7356 223.618 95.3994 224.453C93.6736 228.737 92.0547 232.757 92.8939 236.952C93.8964 241.963 98.9089 243.718 102.668 244.469C106.428 245.221 106.428 247.978 105.676 249.983C105.553 250.309 105.397 250.649 105.23 251.014L105.23 251.015C104.37 252.891 103.205 255.433 104.673 260.257C106.428 266.021 113.946 269.529 119.209 270.281C124.473 271.033 129.68 269.637 133.69 261.117C137.255 253.542 139.204 248.838 140.011 240.961C141.704 224.453 140.919 205.595 122.607 208.926L122.604 208.926L122.601 208.927C115.474 210.225 113.946 210.503 113.946 201.618C113.946 192.095 113.946 184.828 111.941 176.308C109.936 167.787 112.443 147.99 121.465 137.716C130.488 127.442 146.778 119.924 168.081 127.191C189.384 134.458 194.647 141.475 196.402 148.492C198.156 155.508 197.404 158.766 192.893 162.274C188.382 165.783 178.607 174.553 194.146 182.322C198.408 184.453 201.991 186.037 205.226 187.467C213.787 191.251 219.913 193.959 229.735 202.871C236.81 209.29 238.411 215.225 240.006 221.133C241.48 226.595 242.948 232.034 248.727 237.812C258.516 247.6 269.421 254.609 299.246 253.857C329.07 253.106 350.373 238.32 368.418 223.786C386.463 209.251 396.739 191.71 397.49 168.655C398.242 145.6 384.709 135.075 374.684 128.81C364.659 122.545 351.877 128.058 350.624 137.08C349.371 146.101 356.639 148.106 366.914 149.86C377.19 151.614 374.182 157.629 369.922 163.142C365.661 168.655 349.872 183.941 325.311 176.925C300.749 169.908 299.998 133.321 310.273 106.507C320.549 79.6935 354.132 62.1519 390.974 62.1519C427.816 62.1519 472.427 79.1924 492.477 106.507C512.527 133.822 514.532 165.397 511.775 193.213C509.559 215.572 498.437 235.341 492.726 245.491C491.332 247.968 490.261 249.872 489.72 251.101C486.974 257.341 487.461 257.366 492.419 257.613L492.477 257.616C497.49 257.867 519.043 254.609 538.341 251.101C557.534 247.612 583.916 236.934 594.559 232.627L594.732 232.557C597.093 231.601 600.337 230.154 604.378 228.351C618.355 222.114 641.873 211.621 671.423 202.485C709.518 190.707 759.392 199.979 784.204 211.006C809.016 222.032 821.797 220.779 842.85 216.519C848.254 215.425 856.713 214.199 866.786 212.74C895.954 208.514 938.654 202.327 959.891 191.71C988.463 177.426 992.723 152.366 994.478 126.805C996.232 101.245 969.666 80.4453 938.338 63.4049C907.01 46.3644 868.414 54.634 841.597 76.6864C814.78 98.7388 824.554 121.042 832.324 133.822ZM176.045 317.752C167.933 305.761 160.981 312.645 163.248 319.543C172.023 346.236 199.089 347.699 208.06 348.183L208.123 348.187C208.518 348.208 208.895 348.223 209.255 348.236C209.557 348.246 209.847 348.255 210.125 348.263L210.13 348.263H210.132C212.151 348.321 213.552 348.362 214.466 349.049C216.539 350.608 216.11 355.493 214.709 371.453L214.708 371.469L214.689 371.678C214.519 373.621 214.334 375.726 214.138 378.008C212.225 400.267 225.519 416.855 236.349 430.366C241.124 436.325 245.421 441.686 247.722 446.671C255.241 462.959 239.952 479.248 224.414 474.236C210.051 469.604 212.604 458.12 213.865 452.451L213.867 452.437C213.917 452.216 213.964 452.005 214.008 451.803C214.03 451.699 214.052 451.598 214.073 451.5C214.096 451.39 214.118 451.284 214.138 451.181C215.141 446.17 217.898 448.425 218.649 454.439C219.401 460.454 226.419 462.959 234.94 458.449C243.461 453.938 242.459 440.656 236.945 435.645C231.431 430.633 226.419 426.623 211.131 430.382C195.843 434.141 186.82 464.964 204.614 477.745C232.619 496.33 249.351 483.305 256.264 477.924L256.494 477.745C263.26 472.482 272.784 448.926 249.727 426.623C226.669 404.32 224.163 390.287 226.419 371.492C228.674 352.697 249.226 340.418 252.734 338.414C256.243 336.409 263.01 333.652 259.752 336.91C256.494 340.168 248.724 352.196 242.459 368.986C236.193 385.776 243.211 395.048 253.987 401.062C264.764 407.077 274.037 402.315 278.799 396.802C283.561 391.289 287.822 381.516 283.561 371.492C279.3 361.468 266.519 365.227 263.01 371.492C259.501 377.757 261.005 381.265 267.521 380.012C274.037 378.759 273.035 389.284 269.275 392.041C265.516 394.798 253.987 401.062 253.987 380.012C253.987 358.962 282.809 338.664 287.822 335.657C288.724 335.116 291.03 333.357 294.092 331.022C308.045 320.383 337.687 297.781 321.656 323.879C302.107 355.705 296.092 370.49 296.092 401.062C296.092 431.635 320.152 460.203 361.505 464.964C402.858 469.726 417.896 451.683 420.903 446.671C423.911 441.659 429.174 422.864 415.64 410.836C402.106 398.807 383.56 404.07 373.034 410.836C362.508 417.602 365.515 426.623 373.034 432.637C379.049 437.449 388.406 436.647 392.332 435.645C377.044 460.454 346.468 454.439 330.177 437.148C313.887 419.857 308.122 396.802 325.917 355.705C343.711 314.607 374.788 284.535 413.886 264.237C452.983 243.939 494.086 208.354 502.607 197.328C511.128 186.302 512.381 167.006 505.364 182.042C498.346 197.078 473.534 216.373 448.221 233.665C433.637 243.627 395.589 261.243 362.027 276.783C337.339 288.214 315.078 298.521 306.368 303.831C285.817 316.361 242.459 334.404 215.893 336.91C190.49 339.306 182.486 327.36 176.792 318.862C176.539 318.485 176.291 318.114 176.045 317.752ZM931.926 20.9089C932.678 18.8206 932.728 14.8445 926.914 15.6464C919.646 16.6488 911.876 18.1523 910.874 26.9232C909.871 35.694 909.621 40.4553 920.147 44.2143C929.839 47.6754 929.12 41.5756 928.749 38.4355C928.717 38.1653 928.688 37.9171 928.668 37.6988C928.418 34.9422 928.668 28.4268 931.926 20.9089ZM845.712 30.6819C851.361 27.6812 851.632 32.4363 849.471 34.9421C843.206 42.2093 848.469 50.7297 851.977 52.2333C854.826 53.4543 862.754 60.2524 848.468 60.2524C836.188 60.2524 834.183 55.2403 833.932 49.4766C833.682 43.7129 837.692 34.942 845.712 30.6819ZM993.83 36.6964C997.84 39.4529 994.833 41.7083 991.825 41.7083C986.813 41.7083 983.555 41.7083 974.783 45.4672C966.011 49.2262 966.011 57.7464 966.262 61.0041C966.512 64.2619 965.51 67.0184 962.502 63.5101C959.495 60.0018 956.989 53.9875 956.738 46.219C956.487 38.4506 964.758 30.9327 973.53 30.6821C982.302 30.4315 989.82 33.9398 993.83 36.6964ZM877.04 29.6797C880.276 26.444 884.559 24.5007 887.316 23.916C886.714 30.3313 889.404 37.4482 890.824 40.2047C892.077 43.2119 892.077 45.5675 888.819 46.219C877.039 48.5749 875.787 45.9684 874.283 42.2095C872.479 37.6988 873.531 33.1881 877.04 29.6797ZM812.879 55.2406C816.287 52.0329 817.14 55.5747 817.14 57.7465C817.39 61.5056 819.145 66.2667 821.15 68.522C822.686 70.2507 827.168 71.2433 829.854 71.8382C830.673 72.0195 831.325 72.1639 831.676 72.2809C833.18 72.7821 834.683 76.2905 822.653 81.0518C810.623 85.8131 807.115 77.5434 806.864 72.5315C806.613 67.5196 808.618 59.2501 812.879 55.2406ZM801.35 99.3452C804.358 101.55 811.96 100.598 815.385 99.8464C817.641 99.0947 818.643 99.8464 818.393 101.099C818.382 101.155 818.37 101.216 818.356 101.283C818.071 102.732 817.257 106.867 814.383 112.376C811.375 118.14 807.115 116.386 803.355 113.379C799.596 110.371 797.34 101.851 796.839 99.8464C796.338 97.8417 797.591 96.5887 801.35 99.3452ZM1021.9 63.5101C1019.89 61.6724 1014.48 57.6462 1008.87 56.2428C1001.85 54.4887 994.582 52.9851 988.817 58.9994C983.053 65.0137 983.053 78.7964 986.311 83.0565C989.569 87.3167 992.577 85.8131 994.08 81.8036C995.584 77.7941 1001.85 66.0162 1017.14 68.522C1023.15 69.508 1025.41 66.0161 1021.9 63.5101ZM1038.69 93.5816C1042.5 96.1878 1044.62 103.188 1045.21 106.362C1046.11 112.204 1042.17 110.592 1039 109.293L1038.99 109.291L1038.99 109.291C1038.63 109.142 1038.28 108.997 1037.94 108.868C1019.9 101.099 1009.87 107.615 1008.12 108.868C1006.36 110.121 1001.85 111.624 1004.11 103.856C1006.36 96.0875 1016.64 91.3262 1023.4 90.5744C1030.17 89.8226 1033.93 90.3238 1038.69 93.5816ZM1042.95 167.758C1044.46 165.168 1047.11 158.235 1045.71 151.219C1043.96 142.448 1038.94 136.684 1034.18 134.679C1029.42 132.674 1018.14 131.672 1012.13 135.682C1006.11 139.691 1003.6 142.448 1002.35 144.452C1001.1 146.457 999.595 151.469 1007.11 150.216C1007.78 150.105 1008.48 149.982 1009.21 149.854L1009.21 149.854C1016.67 148.544 1026.81 146.763 1030.92 152.471C1034.16 156.966 1035.59 161.848 1036.51 164.988C1036.87 166.225 1037.16 167.191 1037.44 167.758C1038.44 169.763 1040.2 172.269 1042.95 167.758ZM1010.12 179.786C1002.35 176.278 989.069 179.035 985.811 179.786C981.299 181.791 983.304 183.796 985.059 184.798C986.813 185.801 993.329 188.056 998.843 189.81C1004.36 191.564 1006.11 194.07 1007.11 197.579C1007.4 198.581 1007.69 199.502 1007.97 200.422C1008.69 202.724 1009.4 205.025 1010.12 208.605C1011.12 213.617 1014.13 211.111 1015.38 209.106C1016.64 207.101 1019.14 201.839 1019.9 194.07C1020.65 186.302 1017.89 183.295 1010.12 179.786ZM959.738 200.475C964.164 200.139 972.032 199.542 976.287 206.349C981.299 214.369 976.537 225.645 975.535 227.901C974.532 230.156 967.766 239.177 961.249 242.686C954.733 246.194 956.487 240.43 957.741 238.175C957.908 237.873 958.17 237.437 958.496 236.894C960.607 233.376 965.409 225.375 964.758 220.383C964.006 214.619 958.492 208.354 955.485 205.347C952.477 202.34 952.979 200.862 957.741 200.586C958.27 200.586 958.949 200.534 959.736 200.475H959.738ZM928.668 218.879C924.157 211.111 913.38 213.617 909.871 214.619C907.365 215.622 908.117 217.125 909.37 218.879L909.427 218.959L909.514 219.081C910.666 220.686 911.242 221.489 914.132 230.156C916.487 237.222 915.307 245.363 914.564 250.488C914.358 251.906 914.186 253.093 914.132 253.963C913.881 257.972 915.636 257.972 918.393 256.97C921.149 255.967 925.911 250.454 928.668 245.192C931.425 239.929 933.179 226.648 928.668 218.879ZM859.496 223.641C862.253 222.889 869.27 223.139 873.781 228.151C878.293 233.163 881.3 236.672 880.298 248.45C879.295 260.228 874.032 268.247 869.521 269.5C865.01 270.753 864.007 270.001 864.258 266.492C864.508 262.984 865.26 247.447 864.258 241.433C863.255 235.419 861 228.903 858.995 226.898C856.99 224.894 857.992 223.898 859.496 223.641ZM834.684 243.438C831.677 233.915 819.145 228.652 815.386 227.65C810.373 226.397 812.128 229.154 813.632 231.409C814.235 232.314 815.565 234.591 817.119 237.253C819.438 241.223 822.257 246.049 823.907 248.45C826.664 252.459 828.418 269.5 828.418 274.01C828.418 278.521 831.927 277.519 834.684 273.008C837.441 268.497 837.692 252.96 834.684 243.438ZM849.471 465.215C848.97 458.198 849.22 434.642 850.975 423.866C852.729 413.091 851.977 393.544 840.448 384.272C828.92 375 814.383 371.742 806.113 381.265C797.842 390.788 789.572 406.826 798.594 420.358C807.617 433.89 822.654 425.37 824.659 422.864C826.664 420.358 830.423 410.334 822.654 407.828C818.339 406.436 815.724 406.281 813.695 406.161C812.07 406.065 810.819 405.991 809.371 405.322C806.113 403.819 806.614 400.06 809.371 397.303C812.128 394.547 822.403 389.284 829.421 397.303C836.438 405.322 837.942 418.604 832.178 433.138C826.413 447.673 823.907 452.935 822.654 455.191C822.451 455.557 822.174 455.983 821.877 456.441C820.343 458.806 818.246 462.038 822.654 462.458C827.917 462.959 839.446 465.215 844.458 468.472C849.471 471.73 849.66 470.226 849.471 465.215ZM415.891 80.0495C412.883 74.5364 415.891 75.5388 420.402 77.0423C428.171 80.0496 433.936 85.3119 442.206 99.0947C450.477 112.877 446.718 132.674 433.936 144.202C421.154 155.729 409.374 149.464 404.362 144.703C399.349 139.942 400.352 137.185 409.374 132.674C418.397 128.164 421.655 119.894 422.908 109.118C424.161 98.3429 418.898 85.5626 415.891 80.0495ZM464.762 105.861C464.512 98.8442 467.269 98.8442 470.527 104.107C484.061 132.173 481.805 152.472 465.765 172.519C449.725 192.567 427.169 201.588 412.883 201.839C398.598 202.089 402.357 192.316 406.367 184.297C410.377 176.278 423.409 168.51 433.184 165.503C442.958 162.495 453.484 156.732 460.251 142.949C466.178 130.877 465.376 116.882 464.917 108.88C464.852 107.746 464.794 106.732 464.762 105.861ZM623.164 427.287C618.285 429.318 613.665 431.242 608.872 423.115C603.107 413.342 592.33 393.795 602.105 373.998C610.735 356.518 611.745 351.151 612.553 346.857L612.554 346.856L612.554 346.855L612.554 346.853C612.661 346.285 612.764 345.736 612.882 345.18C613.884 340.418 614.135 331.146 603.859 337.411C596.343 341.993 579.174 357.703 566.669 369.144L566.669 369.145L566.668 369.145L566.647 369.164C562.064 373.357 558.11 376.976 555.489 379.261C554.396 380.213 553.187 381.338 551.837 382.594C541.111 392.576 521.456 410.868 480.051 417.1C433.434 424.117 429.926 403.568 428.171 390.537C426.417 377.506 426.417 337.411 448.221 312.853C470.026 288.294 499.85 274.01 535.188 262.483C540.764 260.664 547.157 258.596 554.1 256.35L554.233 256.307L554.235 256.306L554.254 256.3L554.256 256.299L554.258 256.298C591.308 244.312 643.915 227.293 671.528 216.123C704.359 202.841 758.244 207.352 782.805 227.65C807.366 247.949 822.403 292.805 806.113 341.671C789.822 390.537 747.216 416.349 708.119 419.356C702.678 419.774 698.014 420.149 693.969 420.474C668.946 422.485 667.617 422.592 652.731 419.356C641.829 416.986 633.633 421.84 628.987 424.592C627.816 425.285 626.871 425.845 626.165 426.122C625.151 426.46 624.152 426.875 623.164 427.287ZM606.115 475.239C600.852 477.494 604.862 480 608.872 481.253C610.469 481.943 612.326 482.264 614.395 482.623C616.871 483.051 619.652 483.533 622.656 484.761C627.706 486.827 631.495 485.529 634.985 484.333C635.139 484.28 635.294 484.228 635.447 484.175C635.548 484.141 635.649 484.107 635.75 484.073C635.813 484.052 635.876 484.03 635.939 484.009C639.698 482.757 656.991 475.239 665.763 466.969C674.535 458.699 668.019 446.671 661.753 438.401C655.488 430.131 641.202 432.136 633.683 437.148C626.165 442.16 623.658 448.926 626.165 454.69C628.671 460.454 633.683 459.952 637.192 457.196C640.701 454.439 641.202 450.43 641.202 445.919C641.202 441.408 644.961 441.408 648.971 441.659C652.981 441.91 655.738 445.167 654.736 452.435C653.733 459.702 645.964 465.716 635.939 466.969C625.914 468.222 611.378 472.983 606.115 475.239ZM846.964 477.243C843.706 474.988 839.947 472.983 833.932 475.489C827.917 477.995 805.361 487.017 785.311 490.024C765.261 493.031 737.692 500.298 729.422 508.568C722.202 515.787 722.048 520.523 721.959 523.277C721.946 523.678 721.935 524.037 721.903 524.355C721.652 526.861 724.159 527.613 727.417 524.355C730.675 521.098 739.447 517.84 743.457 519.344C747.467 520.847 751.226 521.348 752.98 517.84C754.735 514.332 766.514 510.072 770.273 512.577C774.033 515.083 776.288 515.585 780.048 510.573C783.807 505.561 794.584 501.05 800.098 503.556C805.611 506.062 811.376 506.062 816.138 503.556C817.885 502.636 820.342 502.392 823.358 502.091C828.562 501.573 835.431 500.889 843.205 496.289C855.486 489.022 849.22 478.658 846.964 477.243ZM598.095 489.272C588.571 487.017 581.303 488.019 577.543 491.277C573.784 494.534 569.273 496.289 562.757 493.281C556.24 490.274 544.962 490.024 537.945 494.785C530.927 499.546 528.421 497.792 525.414 495.537C522.406 493.281 509.875 492.029 504.361 500.298C498.847 508.568 502.356 508.818 506.617 507.315C510.877 505.811 517.394 505.811 521.404 507.315C525.414 508.818 529.674 508.317 533.434 505.31C537.193 502.303 548.722 498.795 558.496 503.055C567.585 507.016 570.389 504.91 573.761 502.379L573.763 502.377C573.888 502.283 574.014 502.189 574.142 502.094C574.272 501.997 574.403 501.899 574.536 501.802C578.295 499.045 590.075 495.537 601.353 501.802C612.631 508.067 611.378 496.539 607.869 494.284C604.36 492.029 602.355 490.776 598.095 489.272ZM411.63 469.475C415.46 465.406 411.745 465.909 408.128 466.399L407.62 466.468C407.273 466.514 406.59 466.646 405.62 466.834L405.614 466.835L405.603 466.837L405.602 466.838C402.368 467.464 395.958 468.706 388.071 469.475C381.157 470.149 379.349 472.072 374.86 476.845C372.677 479.166 369.861 482.161 365.515 486.014C352.232 497.792 338.197 507.064 322.408 507.064C306.619 507.064 307.12 495.537 308.122 490.776C309.125 486.014 316.393 480.501 322.408 482.255C326.31 483.393 324.833 485.903 323.313 488.483C322.491 489.88 321.656 491.297 321.656 492.53C321.656 496.038 323.41 502.804 332.683 501.551C341.957 500.298 341.706 491.277 339.45 483.007C337.195 474.737 322.408 466.468 306.117 474.236C289.827 482.005 292.834 498.795 297.847 507.064C302.859 515.334 314.388 524.606 332.683 523.102C350.979 521.599 368.021 505.811 376.793 496.539C382.011 491.024 391.927 484.003 399.951 478.321C405.417 474.45 410.005 471.201 411.63 469.475ZM277.045 507.064C276.544 500.799 281.055 505.811 283.31 509.32C292.457 520.696 306.171 523.931 313.847 525.742L313.85 525.743C314.796 525.966 315.65 526.168 316.393 526.36C323.16 528.114 321.656 530.62 317.395 533.126C313.49 535.423 311.48 534.562 308.855 533.437L308.849 533.435L308.83 533.427C308.599 533.328 308.364 533.227 308.122 533.126C308.045 533.094 307.97 533.062 307.898 533.032C307.805 532.993 307.716 532.955 307.631 532.918C307.381 532.81 307.162 532.713 306.961 532.623C305.202 531.843 304.832 531.679 297.847 530.62C281.556 527.613 277.546 513.329 277.045 507.064ZM306.368 543.15C311.38 538.389 308.122 538.639 303.862 539.391C302.947 539.525 301.331 540.062 298.965 540.849L298.964 540.849L298.963 540.849C294.846 542.217 288.462 544.34 279.551 546.408C265.516 549.666 256.494 547.661 252.985 541.897C249.476 536.133 252.734 531.623 257.997 529.868C261.719 528.628 262.433 530.771 263.153 532.93C263.45 533.824 263.749 534.721 264.263 535.382C266.017 537.637 269.777 537.386 272.784 535.382C275.792 533.377 276.293 529.117 274.539 526.36C272.784 523.604 266.769 521.348 256.494 523.102C246.218 524.857 235.942 534.379 236.945 547.661C237.947 560.942 250.98 561.694 263.26 560.942C275.541 560.191 301.355 547.911 306.368 543.15ZM460.001 246.696C464.011 244.19 469.023 242.185 463.259 248.7C457.494 255.216 426.668 284.034 399.851 301.325C373.034 318.616 346.718 354.702 342.458 361.969C338.197 369.237 324.914 384.774 336.693 358.712C348.473 332.65 370.778 304.583 393.585 289.798C401.376 284.748 410.95 278.394 420.4 272.122L420.406 272.118L420.421 272.108L420.431 272.101L420.432 272.1L420.435 272.099L420.437 272.097L420.441 272.095L420.447 272.09L420.452 272.087C438.649 260.01 456.374 248.248 460.001 246.696ZM436.191 291.301C439.951 286.791 444.963 283.282 441.454 291.301C437.946 299.321 412.382 334.905 387.069 354.201C361.756 373.497 344.212 396.802 340.453 404.571C336.693 412.339 330.929 418.604 334.939 404.571C338.949 390.537 351.982 361.969 377.545 342.924C403.109 323.879 426.918 301.325 436.191 291.301ZM418.648 347.936C422.407 344.929 425.916 342.674 423.66 349.69C421.404 356.707 411.129 373.246 403.359 380.764C395.59 388.282 367.27 406.575 361.756 409.833C360.799 410.398 359.805 411.031 358.84 411.646C354.241 414.574 350.301 417.082 354.237 409.833C358.999 401.062 369.275 388.533 386.317 377.757C403.359 366.981 416.392 352.196 418.648 347.936ZM488.321 163.498C491.092 157.611 495.088 156.982 493.835 163.999C492.582 171.016 485.815 186.051 473.284 197.328C460.752 208.605 444.713 221.887 412.883 237.674C399.899 244.114 384.662 250.43 370.015 256.501C348.756 265.312 328.739 273.609 318.648 281.027C314.822 283.84 311.227 286.796 307.647 289.739C295.281 299.905 283.103 309.916 262.258 313.354C237.947 317.363 231.932 316.361 223.912 310.597C214.053 303.511 217.151 294.42 224.512 286.66C233.763 276.901 241.813 268.408 293.335 264.237C336.163 260.771 345.125 256.105 360.626 248.037C364.174 246.19 368.065 244.164 372.783 241.934C400.352 228.903 456.427 201.536 473.284 184.297C483.547 173.802 485.995 168.516 487.901 164.399L487.902 164.398C488.044 164.092 488.182 163.793 488.321 163.498ZM364.763 78.0446C369.275 77.7105 379.6 78.0446 384.813 82.0542C391.33 87.0661 397.345 94.0827 395.59 107.364C393.836 120.646 387.32 121.899 384.813 121.899L384.737 121.899C384.644 121.9 384.543 121.901 384.434 121.902C381.51 121.938 373.33 122.037 374.287 109.118C375.29 95.5863 369.776 86.0637 367.27 84.0589C364.763 82.0542 362.257 78.1409 364.763 78.0446ZM336.693 97.3405C330.678 96.0875 325.165 95.0851 329.425 102.102C333.686 109.118 346.468 116.135 352.232 117.639C357.997 119.142 364.513 114.381 357.245 107.364C349.977 100.348 340.202 98.0053 336.693 97.3405ZM324.185 138.914C320.665 137.58 318.962 136.935 319.902 140.693C319.972 140.977 320.044 141.283 320.121 141.608L320.122 141.61C321.131 145.891 322.938 153.56 333.185 157.985C334.863 158.709 336.355 159.387 337.71 160.003C345.261 163.434 348.554 164.93 355.992 161.743C363.584 158.49 358.972 156.738 355.319 155.351L355.318 155.351C354.751 155.135 354.207 154.929 353.736 154.727C350.227 153.223 344.713 148.713 342.959 142.698C341.205 136.684 337.696 137.185 335.44 138.188C333.185 139.19 327.922 139.19 324.914 139.19C324.77 139.136 324.629 139.083 324.491 139.03L324.185 138.914ZM206.619 389.034C206.118 386.528 204.113 384.022 202.108 386.277C200.103 388.532 199.602 389.284 198.85 391.289C198.098 393.294 199.101 395.048 202.108 395.8C205.116 396.551 206.619 396.551 206.619 389.034ZM179.051 367.232C181.557 367.232 185.066 368.234 182.058 370.239L181.818 370.399C178.845 372.377 175.147 374.836 179.051 378.008C183.061 381.265 192.334 380.513 191.833 372.745C191.331 364.976 184.314 361.969 176.795 361.217C175.098 361.048 172.852 360.955 170.299 360.849C161.541 360.486 149.171 359.973 142.961 355.704C134.941 350.191 130.931 338.664 135.191 329.642C139.452 320.621 146.72 316.862 153.236 321.373C159.753 325.884 158.5 333.902 156.244 335.406C153.988 336.91 150.229 338.413 149.978 333.151C149.728 327.888 147.973 326.134 145.467 326.886C142.961 327.638 141.708 331.647 142.961 336.158C142.975 336.208 142.989 336.259 143.002 336.31L143.036 336.439L143.056 336.513L143.086 336.631L143.12 336.765L143.157 336.912L143.215 337.145C144.402 341.937 146.506 350.43 171.031 353.7C197.346 357.208 199.853 359.964 201.356 368.986C202.86 378.008 197.096 389.034 189.577 389.034C182.058 389.034 173.036 386.026 172.033 378.759C171.031 371.492 173.788 367.232 179.051 367.232ZM157.748 441.909C154.239 434.642 144.214 419.105 129.928 413.592C115.643 408.079 104.866 410.334 101.357 413.592C97.8484 416.85 97.8484 422.613 101.357 425.871C104.866 429.129 106.871 430.382 111.132 430.382C115.392 430.382 116.144 427.124 113.638 421.611C111.132 416.098 114.891 414.093 120.655 416.85C126.42 419.606 141.457 427.625 144.214 432.637C144.781 433.668 145.327 434.583 145.806 435.385C147.655 438.482 148.504 439.904 145.718 439.904C142.209 439.904 139.703 443.162 141.958 447.923C144.214 452.685 150.229 455.943 155.993 452.685C160.605 450.079 159.084 444.415 157.748 441.909ZM175.041 428.628C174.038 425.119 174.79 421.36 179.051 425.871C183.311 430.382 186.319 440.406 184.564 448.926C182.81 457.446 178.048 457.947 175.041 457.446C172.033 456.945 166.018 455.943 169.527 448.926C170.454 447.073 171.415 445.726 172.292 444.499C174.734 441.08 176.516 438.586 175.041 428.628ZM80.0541 400.06C81.3073 397.053 82.0591 395.549 86.0691 398.306C90.0791 401.062 95.3422 407.578 89.8285 410.585C84.3147 413.592 71.5329 417.351 57.9991 413.592C44.4655 409.833 42.4604 396.802 44.7161 388.282C46.9717 379.762 55.4929 380.012 59.2523 381.766C63.0117 383.52 65.2673 386.778 63.7635 390.287C62.2598 393.795 58.5004 393.795 56.9967 392.041C55.4929 390.287 53.2373 388.282 53.2373 392.041C53.2373 395.8 53.7386 406.826 65.5179 407.327C76.6715 407.802 79.0151 402.435 79.915 400.374C79.9655 400.258 80.0114 400.153 80.0541 400.06ZM69.1724 312.998C67.1675 309.239 68.4206 306.232 70.9268 308.237C73.433 310.241 75.1874 315.504 73.433 321.518C72.1821 325.807 69.7844 327.292 67.5119 328.7C66.5973 329.266 65.7031 329.82 64.912 330.54C62.1551 333.046 62.4057 336.303 62.6564 339.06C62.907 341.816 60.1501 350.838 52.882 353.594C47.2983 355.712 47.7793 357.534 48.3021 359.515C48.4598 360.112 48.6214 360.724 48.6214 361.363C48.6214 361.838 48.6884 362.44 48.7661 363.137C49.1384 366.479 49.7535 372 44.3608 376.148C37.8445 381.16 34.3358 382.413 30.0752 382.413C25.8146 382.413 21.0527 379.155 25.564 377.652C26.6719 377.282 28.0823 377.019 29.6019 376.735C34.2695 375.863 39.9683 374.798 41.1027 369.883C42.6064 363.368 42.857 361.613 41.1027 358.356C39.3483 355.098 38.847 349.334 45.8645 348.833C52.882 348.332 57.8945 341.816 56.1401 337.556L56.0403 337.314C54.313 333.126 52.5088 328.752 59.1476 327.031C65.9144 325.277 70.676 317.759 69.1724 312.998ZM135.194 283.921C134.024 282 132.387 277.957 135.194 277.155C138.702 276.153 139.956 276.905 141.71 281.666C142.017 282.5 142.34 283.311 142.655 284.103L142.657 284.108C144.14 287.835 145.456 291.141 144.216 294.446C144.053 294.881 143.884 295.313 143.717 295.74C142.342 299.253 141.088 302.459 144.216 304.47C147.725 306.725 147.725 309.733 144.216 310.986C140.707 312.239 134.442 311.487 128.176 306.976C121.911 302.465 120.407 293.945 121.159 289.434C121.911 284.924 123.414 282.919 126.672 283.921C129.931 284.924 130.682 286.678 129.429 289.434C129.281 289.76 129.102 290.12 128.911 290.503C127.487 293.364 125.437 297.483 131.184 297.704C137.7 297.955 137.951 288.432 135.194 283.921ZM231.183 237.812C232.436 233.05 237.699 239.315 237.699 246.332C237.699 262.621 224.165 272.895 213.639 279.411C206.447 283.862 198.436 284.57 192.084 285.132C189.139 285.392 186.551 285.621 184.567 286.177C180.932 287.194 180.418 290.825 179.942 294.185C179.598 296.617 179.273 298.907 177.8 299.959C174.291 302.465 172.787 297.704 174.542 295.449C175.527 294.182 175.88 292.047 176.31 289.443V289.442C176.647 287.407 177.031 285.086 177.8 282.668C179.366 277.746 188.323 277.818 197.359 277.89L197.367 277.89C198.45 277.898 199.534 277.907 200.607 277.907C210.632 277.907 223.664 265.878 228.175 257.859C231.103 252.655 230.97 247.767 230.858 243.675C230.797 241.463 230.743 239.483 231.183 237.812ZM183.564 205.485C180.056 199.721 176.046 195.962 175.294 202.478C174.542 208.993 173.539 223.277 173.79 227.788C174.041 232.299 174.542 236.559 179.053 231.547C179.442 231.114 179.848 230.682 180.261 230.242C184.631 225.588 189.747 220.139 183.564 205.485Z" stroke="url(#paint0_linear_48_162)" stroke-width="22" mask="url(#path-1-outside-1_48_162)"/>
</g>
<defs>
<linearGradient id="paint0_linear_48_162" x1="1061.15" y1="12.4837" x2="10.4658" y2="12.4837" gradientUnits="userSpaceOnUse">
<stop stop-color="#FFE072"/>
<stop offset="1" stop-color="#FF8DBC"/>
</linearGradient>
</defs>
</svg>
