<svg width="91" height="38" viewBox="0 0 91 38" fill="none" xmlns="http://www.w3.org/2000/svg">
<path fill-rule="evenodd" clip-rule="evenodd" d="M85.4291 27.9258H69.3462V31.9521H83.6427L80.9575 38H85.4262L89.8978 27.9258H85.4291Z" fill="white"/>
<path fill-rule="evenodd" clip-rule="evenodd" d="M84.6759 1.00714H80.2071L69.3462 25.4786H73.8149H89.8978V21.4523H75.6012L84.6759 1.00714Z" fill="white"/>
<path fill-rule="evenodd" clip-rule="evenodd" d="M59.2244 21.0491H54.7557L47.3218 37.7984H51.7877H67.8734V33.7721H53.5769L59.2244 21.0491Z" fill="white"/>
<path fill-rule="evenodd" clip-rule="evenodd" d="M34.1957 1.00714C31.3593 1.00714 28.789 2.15792 26.9298 4.01708C25.0706 5.87624 23.9199 8.4466 23.9199 11.2829V27.7242C23.9199 30.5606 25.0706 33.1309 26.9298 34.9901C28.789 36.8492 31.3593 38 34.1957 38C37.032 38 39.6023 36.8492 41.4615 34.9901C43.3207 33.1309 44.4715 30.5606 44.4715 27.7242V11.2829C44.4715 8.4466 43.3207 5.87624 41.4615 4.01708C39.6023 2.15792 37.032 1.00714 34.1957 1.00714ZM40.3611 15.956V27.7242C40.3611 29.4266 39.6695 30.9693 38.5552 32.0837C37.4408 33.1981 35.898 33.8897 34.1957 33.8897C32.4933 33.8897 30.9505 33.1981 29.8361 32.0837C28.7218 30.9693 28.0302 29.4266 28.0302 27.7242V11.2829C28.0302 9.58057 28.7218 8.0378 29.8361 6.92342C30.9505 5.80905 32.4933 5.11746 34.1957 5.11746C35.898 5.11746 37.4408 5.80905 38.5552 6.92342C39.6695 8.0378 40.3611 9.58057 40.3611 11.2829V15.956Z" fill="white"/>
<path fill-rule="evenodd" clip-rule="evenodd" d="M62.5983 10.6642V21.3291H66.7086V10.6642C66.7086 7.82781 65.5578 5.25747 63.6987 3.39831C61.8395 1.53914 59.2692 0.388367 56.4328 0.388367C53.5965 0.388367 51.0261 1.53914 49.167 3.39831C47.3078 5.25747 46.157 7.82781 46.157 10.6642V10.6894H50.2673V10.6642C50.2673 8.96179 50.9589 7.41902 52.0733 6.30465C53.1877 5.19027 54.7305 4.49868 56.4328 4.49868C58.1352 4.49868 59.678 5.19027 60.7923 6.30465C61.9067 7.41902 62.5983 8.96179 62.5983 10.6642Z" fill="white"/>
<path fill-rule="evenodd" clip-rule="evenodd" d="M14.1453 21.0491H9.67653L2.24268 37.7984H6.70859H22.7943V33.7721H8.49776L14.1453 21.0491Z" fill="white"/>
<path fill-rule="evenodd" clip-rule="evenodd" d="M17.5192 10.6642V21.3291H21.6295V10.6642C21.6295 7.82781 20.4787 5.25747 18.6196 3.39831C16.7604 1.53914 14.19 0.388367 11.3537 0.388367C8.51733 0.388367 5.94698 1.53914 4.08782 3.39831C2.22866 5.25747 1.07788 7.82781 1.07788 10.6642V10.6894H5.1882V10.6642C5.1882 8.96179 5.87979 7.41902 6.99417 6.30465C8.10854 5.19027 9.65131 4.49868 11.3537 4.49868C13.0561 4.49868 14.5988 5.19027 15.7132 6.30465C16.8276 7.41902 17.5192 8.96179 17.5192 10.6642Z" fill="white"/>
</svg>
