<svg width="269" height="77" viewBox="0 0 269 77" fill="none" xmlns="http://www.w3.org/2000/svg">
<path d="M18.7918 0C23.5417 12.4261 15.8376 20.4061 8.12962 28.3902L8.08225 28.4392C0.897614 36.6245 -5.42486 45.1223 7.30541 60.4215C2.56291 48.0018 10.2494 40.0306 17.942 32.0531L18.0133 31.9792C25.1992 23.7939 31.5204 15.2988 18.7918 0Z" fill="white"/>
<path d="M30.2898 15.9207C35.0329 28.343 27.3301 36.3265 19.6281 44.309L19.5761 44.3629C12.3944 52.5422 6.06444 61.0416 18.7918 76.3408C14.0501 63.9277 21.7483 55.9444 29.4384 47.9693L29.4996 47.9059C36.6914 39.7068 43.0168 31.2198 30.2898 15.9207Z" fill="white"/>
<path d="M214.092 49.3039V74.752H224.893V65.4338H236.756V59.8666H224.893V54.8758H248.423V74.752H259.219V54.8758H269V49.3039H214.092Z" fill="white"/>
<path d="M190.934 69.2286V64.8184H205.01V59.2422H190.934V54.8758H209.016V49.3039H180.137V74.752H209.236V69.2286H190.934Z" fill="white"/>
<path d="M77.0658 49.3039H47.1482V54.8758H56.7092V74.752H67.5065V54.8758H77.0658V49.3039Z" fill="white"/>
<path fill-rule="evenodd" clip-rule="evenodd" d="M98.382 49.3039H86.809L73.334 74.752H80.3512L82.5673 70.3825H97.6976L99.9061 74.752H111.861L98.382 49.3039ZM85.2404 65.111L90.2352 55.2591L95.0157 65.111H85.2404Z" fill="white"/>
<path d="M166.89 49.3052V62.0241L149.623 49.3052H141.24V74.752H148.634V60.749L166.359 74.752H174.278V49.3052H166.89Z" fill="white"/>
<path d="M137.574 49.3039H108.286V54.8758H117.846V74.752H128.642V54.8758H137.574V49.3039Z" fill="white"/>
<path fill-rule="evenodd" clip-rule="evenodd" d="M55.9649 31.1492H49.1334V41.3036H53.2562C54.1911 41.3036 54.9072 41.202 55.4046 41.001C55.9021 40.8001 56.3036 40.4573 56.6151 39.9728C56.9238 39.4882 57.0796 38.9469 57.0796 38.3512C57.0796 37.7179 56.9118 37.1647 56.5791 36.6944C56.2466 36.224 55.8092 35.9025 55.2669 35.7323C54.7244 35.5597 53.9843 35.4747 53.0496 35.4747H50.5357V32.3404H55.9649V31.1492ZM53.3131 40.1548H50.5357V36.6376H52.3965C53.3131 36.6376 53.9574 36.6825 54.332 36.7723C54.7095 36.8621 55.0091 37.0442 55.2339 37.3207C55.4585 37.5973 55.5695 37.9518 55.5695 38.3868C55.5695 39.0274 55.3718 39.4811 54.9792 39.7506C54.5867 40.0201 54.0323 40.1548 53.3131 40.1548Z" fill="white"/>
<path d="M66.1254 31.1492H59.5096V38.2946C59.5096 39.1573 59.4287 39.701 59.2639 39.9208C59.099 40.1429 58.8624 40.254 58.5537 40.254C58.389 40.254 58.1942 40.2068 57.9666 40.1122L57.7298 41.3036C58.1583 41.417 58.5329 41.4737 58.8535 41.4737C59.3477 41.4737 59.7613 41.3343 60.0998 41.0554C60.4354 40.7741 60.6542 40.3841 60.759 39.883C60.861 39.3818 60.9119 38.6113 60.9119 37.5713V32.3404H64.7232V41.3036H66.1254V31.1492Z" fill="white"/>
<path fill-rule="evenodd" clip-rule="evenodd" d="M71.3271 31.1492L67.261 41.3036H68.7293L69.8708 38.226H74.3204L75.5337 41.3036H77.1309L72.8251 31.1492H71.3271ZM73.8919 37.134H70.2784L71.4558 34.1557C71.7045 33.5128 71.8964 32.8675 72.0341 32.2151C72.1929 32.7564 72.4445 33.4585 72.7862 34.3212L73.8919 37.134Z" fill="white"/>
<path d="M84.6604 31.1492H78.2603V41.3036H79.6627V32.3404H84.6604V31.1492Z" fill="white"/>
<path fill-rule="evenodd" clip-rule="evenodd" d="M87.1893 32.3735C86.2215 33.3024 85.7391 34.6308 85.7391 36.3611C85.7391 37.7321 86.1705 38.8997 87.0304 39.8688C87.9803 40.9395 89.2328 41.4737 90.7908 41.4737C92.3368 41.4737 93.5864 40.9514 94.5422 39.9089C95.4081 38.9635 95.8425 37.7391 95.8425 36.2359C95.8425 35.1438 95.6179 34.2006 95.1714 33.4112C94.7219 32.6193 94.1137 32.0165 93.3466 31.6006C92.5797 31.187 91.7316 30.9789 90.7998 30.9789C89.3585 30.9789 88.1542 31.4445 87.1893 32.3735ZM88.2291 39.2897C87.5278 38.5994 87.1773 37.6304 87.1773 36.3776C87.1773 34.9287 87.5188 33.858 88.202 33.1654C88.8852 32.4728 89.7541 32.1277 90.8088 32.1277C91.4649 32.1277 92.0702 32.2861 92.6246 32.6027C93.1788 32.9172 93.5923 33.3402 93.8679 33.865C94.2245 34.5528 94.4043 35.3329 94.4043 36.2051C94.4043 37.5571 94.0568 38.583 93.3616 39.2802C92.6664 39.9775 91.8066 40.325 90.7818 40.325C89.7811 40.325 88.9272 39.9799 88.2291 39.2897Z" fill="white"/>
<path d="M100.304 32.3404V41.3036H101.706V32.3404H105.194V31.1492H96.8343V32.3404H100.304Z" fill="white"/>
<path fill-rule="evenodd" clip-rule="evenodd" d="M106.56 31.1492V41.3036H110.578C111.507 41.3036 112.238 41.1972 112.772 40.9868C113.302 40.7764 113.728 40.4408 114.045 39.9752C114.366 39.5094 114.524 38.9706 114.524 38.356C114.524 37.7367 114.348 37.2144 113.997 36.7913C113.647 36.3682 113.167 36.068 112.559 35.8931C113.029 35.6661 113.392 35.3683 113.652 34.9949C113.91 34.6214 114.039 34.2006 114.039 33.735C114.039 33.234 113.889 32.7754 113.59 32.3593C113.29 31.9433 112.906 31.6384 112.439 31.4423C111.969 31.246 111.333 31.1492 110.527 31.1492H106.56ZM110.246 35.4179H107.963V32.3404H110.081C110.848 32.3404 111.378 32.3877 111.675 32.4799C111.972 32.5721 112.208 32.7399 112.388 32.9834C112.565 33.2269 112.655 33.5317 112.655 33.8958C112.655 34.2905 112.556 34.6025 112.361 34.8318C112.163 35.0611 111.885 35.2241 111.522 35.321C111.27 35.3849 110.845 35.4179 110.246 35.4179ZM110.587 40.1122H107.963V36.6093H110.401C111.121 36.6093 111.648 36.6707 111.987 36.7936C112.322 36.9165 112.589 37.1103 112.787 37.3775C112.987 37.6445 113.086 37.9683 113.086 38.3537C113.086 38.7697 112.981 39.1172 112.775 39.3937C112.568 39.6678 112.265 39.8664 111.867 39.987C111.591 40.0697 111.166 40.1122 110.587 40.1122Z" fill="white"/>
<path fill-rule="evenodd" clip-rule="evenodd" d="M117.5 32.3735C116.532 33.3024 116.049 34.6308 116.049 36.3611C116.049 37.7321 116.481 38.8997 117.341 39.8688C118.291 40.9395 119.543 41.4737 121.101 41.4737C122.647 41.4737 123.897 40.9514 124.853 39.9089C125.718 38.9635 126.153 37.7391 126.153 36.2359C126.153 35.1438 125.928 34.2006 125.482 33.4112C125.032 32.6193 124.424 32.0165 123.657 31.6006C122.89 31.187 122.042 30.9789 121.11 30.9789C119.669 30.9789 118.465 31.4445 117.5 32.3735ZM118.539 39.2897C117.838 38.5994 117.488 37.6304 117.488 36.3776C117.488 34.9287 117.829 33.858 118.512 33.1654C119.196 32.4728 120.065 32.1277 121.119 32.1277C121.775 32.1277 122.381 32.2861 122.935 32.6027C123.489 32.9172 123.903 33.3402 124.178 33.865C124.535 34.5528 124.715 35.3329 124.715 36.2051C124.715 37.5571 124.367 38.583 123.672 39.2802C122.977 39.9775 122.117 40.325 121.092 40.325C120.092 40.325 119.238 39.9799 118.539 39.2897Z" fill="white"/>
<path fill-rule="evenodd" clip-rule="evenodd" d="M127.9 31.1492V41.3036H129.302V37.1623H132.005C133.455 37.1623 134.477 36.874 135.067 36.2972C135.657 35.7229 135.954 34.9783 135.954 34.0659C135.954 33.3757 135.771 32.7918 135.408 32.3167C135.046 31.8417 134.561 31.5179 133.952 31.3429C133.506 31.2129 132.817 31.1492 131.879 31.1492H127.9ZM132.032 35.9711H129.302V32.3404H132.005C132.73 32.3404 133.233 32.3924 133.512 32.4988C133.788 32.6052 134.024 32.8013 134.222 33.0897C134.417 33.3757 134.516 33.7185 134.516 34.1203C134.516 34.7395 134.318 35.2029 133.919 35.5101C133.521 35.8174 132.892 35.9711 132.032 35.9711Z" fill="white"/>
<path d="M139.007 31.1492H137.749V41.3036H139.139L144.796 33.2197V41.3036H146.054V31.1492H144.655L139.007 39.2212V31.1492Z" fill="white"/>
<path d="M151.04 32.3404V41.3036H152.442V32.3404H155.93V31.1492H147.57V32.3404H151.04Z" fill="white"/>
<path d="M157.368 31.1492V41.3036H165.243V40.1122H158.77V36.6518H164.613V35.4606H158.77V32.3404H164.991V31.1492H157.368Z" fill="white"/>
<path d="M174.552 31.1492H167.936V38.2946C167.936 39.1573 167.855 39.701 167.69 39.9208C167.526 40.1429 167.289 40.254 166.98 40.254C166.816 40.254 166.621 40.2068 166.393 40.1122L166.156 41.3036C166.585 41.417 166.959 41.4737 167.28 41.4737C167.774 41.4737 168.188 41.3343 168.526 41.0554C168.862 40.7741 169.081 40.3841 169.186 39.883C169.288 39.3818 169.338 38.6113 169.338 37.5713V32.3404H173.15V41.3036H174.552V31.1492Z" fill="white"/>
<path fill-rule="evenodd" clip-rule="evenodd" d="M178.294 31.1492H176.892V41.3036H180.901C182.42 41.3036 183.457 41.0081 184.008 40.4148C184.563 39.8215 184.838 39.1336 184.838 38.3537C184.838 37.7226 184.67 37.1718 184.338 36.7038C184.005 36.2359 183.565 35.9167 183.016 35.7441C182.468 35.574 181.731 35.4889 180.808 35.4889H178.294V31.1492ZM180.847 40.1548H178.294V36.6518H180.161C181.075 36.6518 181.716 36.692 182.085 36.7747C182.45 36.8575 182.753 37.0371 182.99 37.3113C183.226 37.5831 183.346 37.9329 183.346 38.356C183.346 38.9989 183.145 39.4599 182.747 39.7388C182.345 40.0153 181.713 40.1548 180.847 40.1548Z" fill="white"/>
<path d="M186.513 31.1492V41.3036H187.915V36.5241H193.399V41.3036H194.801V31.1492H193.399V35.3329H187.915V31.1492H186.513Z" fill="white"/>
<path fill-rule="evenodd" clip-rule="evenodd" d="M198.609 31.1492H197.207V41.3036H201.216C202.735 41.3036 203.772 41.0081 204.323 40.4148C204.877 39.8215 205.153 39.1336 205.153 38.3537C205.153 37.7226 204.985 37.1718 204.653 36.7038C204.32 36.2359 203.88 35.9167 203.331 35.7441C202.783 35.574 202.046 35.4889 201.123 35.4889H198.609V31.1492ZM201.162 40.1548H198.609V36.6518H200.476C201.39 36.6518 202.031 36.692 202.4 36.7747C202.765 36.8575 203.068 37.0371 203.304 37.3113C203.541 37.5831 203.661 37.9329 203.661 38.356C203.661 38.9989 203.46 39.4599 203.062 39.7388C202.66 40.0153 202.028 40.1548 201.162 40.1548Z" fill="white"/>
<path d="M207.113 31.1492V41.3036H208.515V31.1492H207.113Z" fill="white"/>
<path d="M212.203 31.1492H210.945V41.3036H212.335L217.992 33.2197V41.3036H219.251V31.1492H217.851L212.203 39.2212V31.1492Z" fill="white"/>
<path d="M217.417 28.653H216.536C216.464 28.9817 216.326 29.2203 216.12 29.3669C215.916 29.5158 215.622 29.5891 215.248 29.5891C214.576 29.5891 214.172 29.277 214.037 28.653H213.156C213.231 29.2511 213.459 29.7002 213.836 30.0027C214.214 30.3029 214.696 30.4542 215.284 30.4542C215.868 30.4542 216.35 30.3029 216.731 30.0027C217.111 29.7002 217.342 29.2511 217.417 28.653Z" fill="white"/>
<path fill-rule="evenodd" clip-rule="evenodd" d="M229.432 31.1492V32.3688C228.18 32.416 227.137 32.7801 226.307 33.4632C225.477 34.1487 225.063 35.054 225.063 36.1791C225.063 37.3065 225.477 38.2142 226.307 38.8997C227.137 39.5875 228.18 39.9516 229.432 39.9987V41.3036H230.744V39.9987C232.102 39.9303 233.165 39.5402 233.938 38.8312C234.708 38.122 235.095 37.2379 235.095 36.1791C235.095 35.1225 234.706 34.2409 233.923 33.5341C233.144 32.825 232.084 32.4373 230.744 32.3688V31.1492H229.432ZM230.744 38.85V33.5175C231.652 33.5649 232.362 33.8177 232.881 34.281C233.399 34.7443 233.657 35.3778 233.657 36.1838C233.657 37.0395 233.387 37.6848 232.845 38.122C232.305 38.5569 231.604 38.7981 230.744 38.85ZM227.311 34.2668C227.85 33.8036 228.557 33.5554 229.432 33.5175V38.85C228.557 38.817 227.85 38.5687 227.311 38.1055C226.771 37.6422 226.502 37.0017 226.502 36.1838C226.502 35.3659 226.771 34.7277 227.311 34.2668Z" fill="white"/>
<path fill-rule="evenodd" clip-rule="evenodd" d="M237.894 32.3735C236.926 33.3024 236.443 34.6308 236.443 36.3611C236.443 37.7321 236.875 38.8997 237.735 39.8688C238.685 40.9395 239.937 41.4737 241.495 41.4737C243.041 41.4737 244.291 40.9514 245.247 39.9089C246.112 38.9635 246.547 37.7391 246.547 36.2359C246.547 35.1438 246.322 34.2006 245.876 33.4112C245.426 32.6193 244.818 32.0165 244.051 31.6006C243.284 31.187 242.436 30.9789 241.504 30.9789C240.063 30.9789 238.858 31.4445 237.894 32.3735ZM238.933 39.2897C238.232 38.5994 237.882 37.6304 237.882 36.3776C237.882 34.9287 238.223 33.858 238.906 33.1654C239.589 32.4728 240.458 32.1277 241.513 32.1277C242.169 32.1277 242.774 32.2861 243.329 32.6027C243.883 32.9172 244.297 33.3402 244.572 33.865C244.929 34.5528 245.109 35.3329 245.109 36.2051C245.109 37.5571 244.761 38.583 244.066 39.2802C243.371 39.9775 242.511 40.325 241.486 40.325C240.485 40.325 239.631 39.9799 238.933 39.2897Z" fill="white"/>
<path d="M248.294 31.1492V41.3036H249.696V36.5241H255.179V41.3036H256.581V31.1492H255.179V35.3329H249.696V31.1492H248.294Z" fill="white"/>
<path fill-rule="evenodd" clip-rule="evenodd" d="M266.322 31.1492H259.904V32.6335C259.904 36.3894 259.473 38.8831 258.61 40.1122H257.801V43.672H259.041V41.3036H266.017V43.672H267.257V40.1122H266.322V31.1492ZM261.253 32.3404H264.92V40.1122H260.048C260.536 39.1172 260.86 37.8739 261.016 36.3823C261.175 34.8908 261.253 33.716 261.253 32.8604V32.3404Z" fill="white"/>
</svg>
