<svg width="235" height="32" viewBox="0 0 235 32" fill="none" xmlns="http://www.w3.org/2000/svg">
<path fill-rule="evenodd" clip-rule="evenodd" d="M4.44556 7.14588C4.47384 7.15484 4.43527 7.19698 4.41298 7.27498C4.39069 7.35295 4.39241 7.43542 4.36412 7.42647C4.33583 7.41753 4.32468 7.34851 4.34697 7.27049C4.36926 7.19339 4.41727 7.13691 4.44556 7.14588ZM5.23163 10.1742C5.31306 10.2863 5.39707 10.3795 5.48022 10.4557C5.50851 10.479 5.53508 10.5014 5.55908 10.5229C6.02284 10.8887 6.46945 10.7193 6.62804 10.1339C6.65119 10.0361 6.64861 9.89178 6.62804 9.72684C6.48831 9.68291 6.37087 9.56996 6.32372 9.41309C6.29029 9.30189 6.28772 9.17913 6.3323 9.08407C6.38459 9.10378 6.43945 9.11636 6.49603 9.1208C6.35545 8.652 6.13685 8.2136 5.94055 8.19564C5.62937 8.16698 4.90931 8.41258 4.68815 8.57578C4.72329 8.78735 4.88359 9.66051 5.23163 10.1742ZM7.03608 8.8976C7.09351 8.9496 7.13809 9.01775 7.16295 9.09935C7.23238 9.33062 7.10895 9.57716 6.88863 9.64975C6.66748 9.7224 6.43174 9.59418 6.3623 9.36291C6.3383 9.28131 6.33744 9.19884 6.3563 9.12175C6.42402 9.14771 6.49603 9.16029 6.56975 9.15935V9.16204C6.56975 9.25796 6.64433 9.336 6.73519 9.336C6.82606 9.336 6.90149 9.25796 6.90149 9.16204C6.90149 9.12531 6.89035 9.09127 6.87235 9.06342C6.9375 9.01949 6.99321 8.96305 7.03608 8.89847V8.8976ZM6.95464 2.73069C6.95121 2.82751 6.89549 2.90551 6.84063 2.96557C6.49775 3.44609 5.44164 4.06645 5.04475 5.38428C5.37907 3.90598 6.20028 3.2121 6.95464 2.73069ZM4.46356 15.5639C4.4927 15.8149 4.37869 16.0336 4.26039 16.2057C3.55661 17.5532 1.05267 19.4806 0.539193 23.01C0.827222 19.0817 2.68996 17.0368 4.46441 15.5639H4.46356ZM15.7909 23.3337C15.8646 23.2145 15.748 22.8343 15.6572 23.0199C15.082 24.1943 13.2809 25.7255 11.5313 25.8985C13.9624 25.7112 15.4634 24.4516 15.7909 23.3337ZM1.08953 14.4961C1.07667 14.4675 0.994378 14.3052 0.985804 14.2873C0.870938 14.3025 0.600055 14.35 0.241737 14.3276C0.537478 14.5751 0.891513 14.5356 1.08953 14.4961ZM1.71359 14.4441C1.6913 14.3841 1.61844 14.2774 1.59958 14.2102C2.27164 14.0515 3.71777 13.6472 5.03618 12.5768C4.20296 13.4858 2.90255 14.0909 1.71273 14.445L1.71359 14.4441ZM8.28676 1.53927C8.05106 1.55271 7.74756 1.56436 7.52298 1.59753C8.77622 4.71103 8.75564 6.53537 7.66102 9.23287C9.19716 6.65012 8.87913 3.51601 8.28589 1.54016L8.28676 1.53927ZM12.0217 2.269C11.9599 2.24748 11.8433 2.16591 11.7756 2.15066C11.7928 3.04446 11.7731 4.97548 11.101 6.82493C11.7423 5.62812 11.9848 3.86026 12.0217 2.269ZM7.63956 0.915309C7.53411 0.930553 7.36182 0.943098 7.2864 0.954756C7.1938 0.753942 6.97693 0.376524 6.5766 0.0349629C7.28727 0.152402 7.4664 0.426727 7.64044 0.915309H7.63956ZM4.70015 5.56807L4.67015 5.68729C4.95817 5.66578 5.17762 5.72047 5.41336 5.92038C5.28049 5.70074 5.0679 5.56268 4.69929 5.56807H4.70015ZM5.49479 6.26015C5.49565 6.28973 5.51365 6.30318 5.53079 6.31215C5.63795 6.39731 5.96884 6.39014 6.09313 6.72632C5.98855 6.32738 5.73139 6.26642 5.49479 6.26015ZM6.0777 7.59862C5.7151 7.15125 5.21105 7.63985 4.92131 7.27585C4.79873 7.12167 4.8313 6.90383 5.00017 6.79176C5.16905 6.6797 5.42964 6.70391 5.43993 6.97106C5.24105 6.91189 5.1862 7.20773 5.55137 7.18891C5.58994 7.18711 5.66109 7.19159 5.7091 7.20415C5.38079 7.03023 5.6911 6.70212 5.83254 6.96568C5.67824 7.00513 5.72281 7.14319 5.8214 7.20684C5.94569 7.28662 6.03913 7.40495 6.07856 7.59949L6.0777 7.59862ZM4.78159 8.55156C4.83302 8.58022 4.85873 8.63316 4.87502 8.68153C5.03275 9.01236 5.05247 9.79316 5.64737 10.384C4.94617 9.78509 4.81588 9.11993 4.78159 8.55156ZM7.51098 8.57847C6.84749 7.82269 6.44202 6.81417 6.44202 5.70702C6.44202 4.59986 6.82349 3.65138 7.45265 2.90371C7.39869 2.74503 7.34036 2.58725 7.28553 2.45278C6.09999 3.06149 5.17162 4.13369 4.71644 5.44345L4.71129 5.45869L4.70015 5.49097C4.689 5.52145 4.67615 5.53937 4.64785 5.54207C4.60671 5.54565 4.58956 5.55999 4.56385 5.64606C4.53813 5.73212 4.4867 5.95624 4.47813 6.00465C4.46956 6.05306 4.47898 6.10416 4.53213 6.10327C4.51927 6.16423 4.50727 6.22519 4.49613 6.28704C4.51156 6.27359 4.52699 6.26642 4.53985 6.26911C4.58785 6.27808 4.60157 6.40179 4.58271 6.54433C4.56385 6.68598 4.52099 6.79266 4.47212 6.7837C4.45841 6.781 4.4447 6.76935 4.4327 6.74963C4.42412 6.84555 4.41727 6.94237 4.41298 7.04009C4.43955 7.0123 4.46784 6.99616 4.49527 6.99616C4.59042 6.99347 4.65215 7.17725 4.65643 7.39869C4.66157 7.62015 4.60843 7.79585 4.51327 7.7976C4.48584 7.7976 4.45584 7.78415 4.42841 7.75905C4.4327 7.8048 4.43698 7.85055 4.44212 7.89622C4.70186 7.90698 4.72758 7.61476 5.04818 7.58516C5.15191 7.57527 5.26505 7.62909 5.31649 7.69273C5.37479 7.76444 5.42279 7.86393 5.29163 8.01185C5.32849 7.93658 5.27963 7.75818 5.08676 7.81193C4.9256 7.8568 4.89645 8.01455 4.8433 8.15265C4.78415 8.30684 4.65986 8.34713 4.51156 8.35884C4.52785 8.44218 4.54585 8.52378 4.56556 8.60538C4.60328 8.58022 4.641 8.55425 4.67872 8.52916C5.04304 8.30145 5.63795 8.1168 6.42916 8.03964C6.31601 8.06298 6.26287 8.08625 6.17543 8.1168C6.34344 8.26916 6.50717 8.65644 6.60232 9.05447C6.63233 9.01324 6.68033 8.98727 6.73348 8.98727C6.77891 8.98727 6.8192 9.00611 6.84921 9.03658C6.9075 9.00247 6.97093 8.95047 7.03608 8.8528C7.1158 8.92451 7.16038 9.02487 7.19124 9.128C7.19466 9.13876 7.38065 9.08495 7.51011 8.57935L7.51098 8.57847ZM1.04409 14.1797C0.702065 14.2245 0.353175 14.2469 0 14.2469C0.323172 14.5239 0.679777 14.7606 1.06295 14.9497C1.18639 14.9319 1.30983 14.9112 1.43241 14.8897C1.29269 14.6602 1.16325 14.4236 1.04495 14.1797H1.04409ZM8.76851 1.03903C8.19935 0.412383 7.40036 0.0170332 6.51317 0C6.7952 0.316459 7.04036 0.667881 7.24267 1.04799C7.50582 1.00496 7.77069 0.984342 8.03476 0.984342C8.07673 0.984342 8.11876 0.984342 8.16073 0.986131C8.36647 0.991513 8.5688 1.00944 8.76764 1.03903H8.76851ZM11.5391 8.72189C12.2831 11.1182 5.82996 15.6553 5.82996 20.1359C5.82996 23.1176 8.14102 25.5345 10.9921 25.5345C13.8433 25.5345 16.1543 23.1176 16.1543 20.1359C18.3145 25.5247 14.4682 32 8.5088 32C1.45814 32 -2.37793 23.3812 2.38479 17.2233C4.65729 14.2846 10.3724 11.3548 11.5382 8.72276L11.5391 8.72189ZM7.22981 1.43348C9.95746 6.57392 7.02836 13.1361 1.38356 14.1268C1.51214 14.3644 1.65101 14.5956 1.79931 14.8189C7.49724 13.553 11.8596 8.50945 12.3775 2.31293C10.801 1.44244 8.98713 1.13674 7.22981 1.43258V1.43348Z" fill="#D0AB48"/>
<path d="M211.623 17.6364V8.65433C211.623 7.22053 211.04 5.92126 210.102 4.9827C209.164 4.04414 207.864 3.46171 206.431 3.46171C204.996 3.46171 203.697 4.04414 202.759 4.9827C201.821 5.92126 201.238 7.22053 201.238 8.65433V8.67553H197.776V8.65433C197.776 6.26547 198.746 4.10074 200.311 2.53495C201.877 0.969152 204.041 0 206.431 0C208.819 0 210.983 0.969152 212.55 2.53495C214.116 4.10074 215.084 6.26547 215.084 8.65433V17.6364H211.623Z" fill="white"/>
<path d="M230.217 0.521139H226.454L217.306 21.1311H234.614V17.7401H222.574L230.217 0.521139Z" fill="white"/>
<path d="M38.4418 32L30.2072 16.427V32H26.762V0.842225H30.2072V16.4152L38.4418 0.842225H42.3397L34.1052 16.42L42.3397 32H38.4418Z" fill="white"/>
<path d="M50.9773 8.88811L50.9785 8.89358L45.8909 31.9976H42.3467L49.2064 0.842225H52.7506L59.6104 31.9976H56.0662L50.9785 8.89358L50.9797 8.88811H50.9773Z" fill="white"/>
<path d="M66.5623 4.30393H64.8315V31.9976H61.3698V0.842225H66.5623C72.776 0.842225 77.8129 5.87912 77.8129 12.0928C77.8129 16.1889 75.5963 19.9359 72.0379 21.9214L78.6735 31.9974L85.5332 0.842225H89.0774L95.9372 31.9976H92.393L87.3053 8.8933L87.3065 8.88811H87.3042L87.3053 8.8933L82.2177 31.9976L78.6735 31.9974L74.5469 31.9976L68.713 23.1382C68.0173 23.2726 67.2981 23.3434 66.5623 23.3434V19.8817C70.8636 19.8817 74.3512 16.394 74.3512 12.0928C74.3512 7.79153 70.8636 4.30393 66.5623 4.30393Z" fill="white"/>
<path d="M101.151 0.842225H97.6896V31.9976H101.151V0.842225Z" fill="white"/>
<path d="M151.389 0.842225H147.625V0.844513H134.078V4.30393H146.118L134.078 32H137.841V31.9976H151.387V28.5383H139.345L151.389 0.842225Z" fill="white"/>
<path d="M127.323 27.0149C128.263 26.0765 128.844 24.7771 128.844 23.3434V0.842225H132.307V23.3434C132.307 25.7321 131.338 27.8968 129.772 29.4626C128.206 31.0284 126.041 31.9976 123.652 31.9976C121.263 31.9976 119.099 31.0284 117.533 29.4626C115.967 27.8968 114.998 25.7321 114.998 23.3434V0.842225H118.459V23.3434C118.459 24.7771 119.042 26.0765 119.98 27.0149C120.92 27.9535 122.218 28.5359 123.652 28.5359C125.086 28.5359 126.385 27.9535 127.323 27.0149Z" fill="white"/>
<path d="M109.508 0.842225L101.168 16.42L109.508 32H113.418L105.077 16.42L113.418 0.842225H109.508Z" fill="white"/>
<path d="M217.306 23.1921H234.614L230.848 31.6765H227.085L229.346 26.583H217.306V23.1921Z" fill="white"/>
<path d="M205.018 17.4006H208.782L204.024 28.1158H216.066V31.5068H198.757L205.018 17.4006Z" fill="white"/>
<path fill-rule="evenodd" clip-rule="evenodd" d="M187.702 0.521139C185.313 0.521139 183.149 1.49029 181.582 3.05609C180.017 4.62189 179.048 6.78661 179.048 9.17535V23.0223C179.048 25.411 180.017 27.5758 181.582 29.1416C183.149 30.7074 185.313 31.6765 187.702 31.6765C190.091 31.6765 192.255 30.7074 193.821 29.1416C195.387 27.5758 196.356 25.411 196.356 23.0223V9.17535C196.356 6.78661 195.387 4.62189 193.821 3.05609C192.255 1.49029 190.091 0.521139 187.702 0.521139ZM192.895 23.0223C192.895 24.456 192.312 25.7554 191.374 26.6938C190.436 27.6324 189.136 28.2148 187.702 28.2148C186.268 28.2148 184.969 27.6324 184.031 26.6938C183.093 25.7554 182.51 24.456 182.51 23.0223V9.17535C182.51 7.74167 183.093 6.4424 184.031 5.50384C184.969 4.56528 186.268 3.98285 187.702 3.98285C189.136 3.98285 190.436 4.56528 191.374 5.50384C192.312 6.4424 192.895 7.74167 192.895 9.17535V23.0223Z" fill="white"/>
<path d="M170.815 17.4006H167.052L160.791 31.5068H178.099V28.1158H166.059L170.815 17.4006Z" fill="white"/>
<path d="M173.658 17.6364V8.65433C173.658 7.22053 173.075 5.92126 172.137 4.9827C171.197 4.04414 169.899 3.46171 168.465 3.46171C167.031 3.46171 165.732 4.04414 164.794 4.9827C163.854 5.92126 163.272 7.22053 163.272 8.65433V8.67553H159.81V8.65433C159.81 6.26547 160.779 4.10074 162.345 2.53495C163.911 0.969152 166.076 0 168.465 0C170.854 0 173.018 0.969152 174.584 2.53495C176.15 4.10074 177.119 6.26547 177.119 8.65433V17.6364H173.658Z" fill="white"/>
</svg>
