<svg width="200" height="50" viewBox="0 0 200 50" fill="none" xmlns="http://www.w3.org/2000/svg">
<path d="M117.781 0.00028836V49.3303H112.302V0.00028836H117.781ZM137.205 0L124 24.6653L137.205 49.3303H131.014L117.809 24.6653L131.014 0H137.205Z" fill="white"/>
<path d="M5.45485 0.00028836V24.6573L18.4906 0H24.6645L11.6243 24.6653L24.6645 49.3303H18.4903L5.45485 24.6739V49.3303H0V0.00028836H5.45485Z" fill="white"/>
<path d="M41.1469 0L52.0088 49.3303H46.3981L38.3414 12.7399L30.2845 49.3303H24.6741L35.5363 0H41.1469Z" fill="white"/>
<path d="M98.6637 0L109.525 49.3303H103.915L95.8582 12.7399L87.8013 49.3303H82.1909L93.053 0H98.6637Z" fill="white"/>
<path d="M145.187 0.000274658V35.6276C145.187 37.8978 146.108 39.9538 147.595 41.4417C149.083 42.9292 151.139 43.8497 153.41 43.8497C155.68 43.8497 157.736 42.9292 159.224 41.4417C160.711 39.9541 161.632 37.8978 161.632 35.6276V0.000274658H167.111V35.6276C167.111 39.4106 165.577 42.8368 163.098 45.3163C160.619 47.7954 157.192 49.3295 153.41 49.3295C149.626 49.3295 146.2 47.7954 143.721 45.3163C141.241 42.8368 139.708 39.4108 139.708 35.6276V0.000274658H145.187Z" fill="white"/>
<path d="M199.999 49.3295H178.55L178.55 49.3303H172.592L191.659 5.4806H172.593V0.000836244H194.041L194.042 0H200L180.933 43.8497H199.999V49.3295Z" fill="white"/>
<path d="M63.0151 30.147C69.8266 30.147 75.3484 24.6254 75.3484 17.8139C75.3484 11.0021 69.8268 5.48059 63.0151 5.48059H60.2741V49.3303H54.7943V0.000274658C57.535 0.000274658 60.2746 0.000822542 63.0151 0.000822542C72.8526 0.000822542 80.8281 7.97637 80.8281 17.8139C80.8281 24.2994 77.32 30.2322 71.6855 33.3775L82.1909 49.3303H75.658L66.4197 35.3015C65.3176 35.5149 64.1793 35.6267 63.015 35.6267V30.147L63.0151 30.147Z" fill="white"/>
</svg>
