<svg width="206" height="44" viewBox="0 0 206 44" fill="none" xmlns="http://www.w3.org/2000/svg">
<g clip-path="url(#clip0_283_4)">
<path fill-rule="evenodd" clip-rule="evenodd" d="M6.11264 9.82558C6.15153 9.8379 6.09849 9.89584 6.06785 10.0031C6.0372 10.1103 6.03956 10.2237 6.00066 10.2114C5.96176 10.1991 5.94644 10.1042 5.97709 9.99692C6.00773 9.89091 6.07374 9.81325 6.11264 9.82558ZM7.19349 13.9895C7.30546 14.1436 7.42097 14.2718 7.5353 14.3766C7.5742 14.4086 7.61074 14.4394 7.64374 14.469C8.28141 14.972 8.8955 14.739 9.11356 13.9341C9.14538 13.7997 9.14184 13.6012 9.11356 13.3744C8.92143 13.314 8.75995 13.1587 8.69512 12.943C8.64915 12.7901 8.64562 12.6213 8.70691 12.4906C8.77881 12.5177 8.85425 12.535 8.93204 12.5411C8.73874 11.8965 8.43817 11.2937 8.16825 11.269C7.74039 11.2296 6.7503 11.5673 6.4462 11.7917C6.49453 12.0826 6.71494 13.2832 7.19349 13.9895ZM9.67461 12.2342C9.75358 12.3057 9.81487 12.3994 9.84905 12.5116C9.94452 12.8296 9.7748 13.1686 9.47187 13.2684C9.16778 13.3683 8.84364 13.192 8.74816 12.874C8.71516 12.7618 8.71398 12.6484 8.73991 12.5424C8.83303 12.5781 8.93204 12.5954 9.03341 12.5941V12.5978C9.03341 12.7297 9.13595 12.837 9.26089 12.837C9.38583 12.837 9.48955 12.7297 9.48955 12.5978C9.48955 12.5473 9.47423 12.5005 9.44948 12.4622C9.53906 12.4018 9.61567 12.3242 9.67461 12.2354V12.2342ZM9.56263 3.7547C9.55792 3.88783 9.4813 3.99507 9.40587 4.07766C8.9344 4.73837 7.48226 5.59137 6.93653 7.40339C7.39622 5.37072 8.52539 4.41664 9.56263 3.7547ZM6.13739 21.4003C6.17746 21.7455 6.0207 22.0462 5.85804 22.2829C4.89034 24.1356 1.44742 26.7858 0.74139 31.6388C1.13743 26.2373 3.6987 23.4256 6.13857 21.4003H6.13739ZM21.7125 32.0838C21.8138 31.9199 21.6535 31.3972 21.5286 31.6524C20.7377 33.2672 18.2613 35.3726 15.8556 35.6105C19.1983 35.3529 21.2622 33.621 21.7125 32.0838ZM1.4981 19.9322C1.48042 19.8928 1.36727 19.6696 1.35548 19.645C1.19754 19.6659 0.825076 19.7313 0.332388 19.7005C0.739032 20.0407 1.22583 19.9864 1.4981 19.9322ZM2.35618 19.8607C2.32554 19.7781 2.22535 19.6314 2.19942 19.539C3.1235 19.3208 5.11194 18.7649 6.92475 17.2931C5.77907 18.543 3.99101 19.375 2.355 19.8619L2.35618 19.8607ZM11.3943 2.11649C11.0702 2.13498 10.6529 2.151 10.3441 2.19661C12.0673 6.47766 12.039 8.98613 10.5339 12.6952C12.6461 9.14391 12.2088 4.83451 11.3931 2.11772L11.3943 2.11649ZM16.5298 3.11988C16.4449 3.09029 16.2846 2.97812 16.1915 2.95716C16.2151 4.18613 16.188 6.84129 15.2639 9.38428C16.1456 7.73867 16.4791 5.30786 16.5298 3.11988ZM10.5044 1.25855C10.3594 1.27951 10.1225 1.29676 10.0188 1.31279C9.89148 1.03667 9.59328 0.51772 9.04283 0.048074C10.02 0.209553 10.2663 0.586749 10.5056 1.25855H10.5044ZM6.4627 7.65609L6.42145 7.82003C6.81749 7.79045 7.11923 7.86564 7.44337 8.14052C7.26067 7.83852 6.96836 7.64869 6.46152 7.65609H6.4627ZM7.55534 8.6077C7.55652 8.64838 7.58127 8.66687 7.60484 8.6792C7.75218 8.7963 8.20715 8.78644 8.37806 9.24869C8.23426 8.70015 7.88066 8.61633 7.55534 8.6077ZM8.35684 10.4481C7.85826 9.83297 7.1652 10.5048 6.7668 10.0043C6.59825 9.7923 6.64304 9.49276 6.87524 9.33867C7.10744 9.18459 7.46576 9.21787 7.4799 9.58521C7.20645 9.50385 7.13102 9.91063 7.63313 9.88475C7.68617 9.88228 7.784 9.88844 7.85001 9.9057C7.39858 9.66656 7.82526 9.21541 8.01974 9.57781C7.80758 9.63205 7.86887 9.82188 8.00442 9.9094C8.17533 10.0191 8.3038 10.1818 8.35802 10.4493L8.35684 10.4481ZM6.57468 11.7584C6.6454 11.7978 6.68076 11.8706 6.70315 11.9371C6.92003 12.392 6.94714 13.4656 7.76514 14.278C6.80098 13.4545 6.62183 12.5399 6.57468 11.7584ZM10.3276 11.7954C9.4153 10.7562 8.85778 9.36949 8.85778 7.84715C8.85778 6.32481 9.3823 5.02065 10.2474 3.9926C10.1732 3.77442 10.093 3.55747 10.0176 3.37257C8.38749 4.20955 7.11098 5.68382 6.4851 7.48475L6.47803 7.5057L6.4627 7.55008C6.44738 7.59199 6.4297 7.61664 6.3908 7.62034C6.33423 7.62527 6.31065 7.64499 6.27529 7.76333C6.23993 7.88166 6.16921 8.18983 6.15743 8.25639C6.14564 8.32296 6.1586 8.39322 6.23168 8.39199C6.214 8.47581 6.1975 8.55963 6.18218 8.64468C6.20339 8.62619 6.22461 8.61633 6.24229 8.62003C6.3083 8.63236 6.32716 8.80246 6.30122 8.99846C6.27529 9.19322 6.21636 9.33991 6.14917 9.32758C6.13032 9.32388 6.11146 9.30786 6.09496 9.28074C6.08317 9.41263 6.07374 9.54576 6.06785 9.68012C6.10438 9.64191 6.14328 9.61972 6.181 9.61972C6.31183 9.61602 6.3967 9.86872 6.40259 10.1732C6.40966 10.4777 6.33659 10.7193 6.20575 10.7217C6.16803 10.7217 6.12678 10.7032 6.08906 10.6687C6.09496 10.7316 6.10085 10.7945 6.10792 10.8573C6.46506 10.8721 6.50042 10.4703 6.94125 10.4296C7.08387 10.416 7.23945 10.49 7.31018 10.5775C7.39033 10.6761 7.45633 10.8129 7.27599 11.0163C7.32668 10.9128 7.25949 10.6675 6.99429 10.7414C6.7727 10.8031 6.73262 11.02 6.65954 11.2099C6.57821 11.4219 6.40731 11.4773 6.20339 11.4934C6.22579 11.608 6.25054 11.7202 6.27765 11.8324C6.32951 11.7978 6.38137 11.7621 6.43324 11.7276C6.93418 11.4145 7.75218 11.1606 8.8401 11.0545C8.68452 11.0866 8.61144 11.1186 8.49121 11.1606C8.72223 11.3701 8.94736 11.9026 9.07819 12.4499C9.11945 12.3932 9.18546 12.3575 9.25853 12.3575C9.321 12.3575 9.3764 12.3834 9.41766 12.4253C9.49781 12.3784 9.58503 12.3069 9.67461 12.1726C9.78422 12.2712 9.84552 12.4092 9.88795 12.551C9.89266 12.5658 10.1484 12.4918 10.3264 11.7966L10.3276 11.7954ZM1.43563 19.4971C0.965339 19.5587 0.485616 19.5895 0 19.5895C0.444362 19.9704 0.934693 20.2958 1.46156 20.5559C1.63129 20.5313 1.80102 20.5029 1.96957 20.4733C1.77745 20.1578 1.59947 19.8324 1.43681 19.4971H1.43563ZM12.0567 1.42866C11.2741 0.567026 10.1755 0.0234206 8.95561 0C9.3434 0.435131 9.6805 0.918336 9.95867 1.44099C10.3205 1.38182 10.6847 1.35347 11.0478 1.35347C11.1055 1.35347 11.1633 1.35347 11.221 1.35593C11.5039 1.36333 11.7821 1.38798 12.0555 1.42866H12.0567ZM15.8662 11.9926C16.8893 15.2875 8.0162 21.526 8.0162 27.6869C8.0162 31.7867 11.1939 35.11 15.1142 35.11C19.0345 35.11 22.2122 31.7867 22.2122 27.6869C25.1825 35.0965 19.8938 44 11.6996 44C2.00494 44 -3.26966 32.1492 3.27909 23.682C6.40377 19.6413 14.262 15.6129 15.865 11.9938L15.8662 11.9926ZM9.94099 1.97103C13.6915 9.03914 9.664 18.0622 1.90239 19.4243C2.07919 19.751 2.27014 20.069 2.47405 20.376C10.3087 18.6354 16.307 11.7005 17.019 3.18028C14.8514 1.98336 12.3573 1.56302 9.94099 1.9698V1.97103Z" fill="#D0AB48"/>
<path d="M94.814 17.6993H91.9397V43.568H94.814V17.6993Z" fill="white"/>
<path fill-rule="evenodd" clip-rule="evenodd" d="M83.3166 24.3799L87.5419 43.568H90.4847L84.7889 17.6993H81.8461L76.1504 43.568H79.0932L83.3185 24.3799H83.3166Z" fill="white"/>
<path fill-rule="evenodd" clip-rule="evenodd" d="M64.6573 20.5736H66.0944C69.6658 20.5736 72.5616 23.4694 72.5616 27.0408C72.5616 30.6121 69.6658 33.508 66.0944 33.508V36.3823C66.7053 36.3823 67.3025 36.3235 67.8801 36.2119L72.7241 43.568H76.1506L70.6408 35.2016C73.5954 33.553 75.4359 30.4418 75.4359 27.0408C75.4359 21.8815 71.2537 17.6993 66.0944 17.6993C64.6573 17.6993 63.2201 17.6993 61.783 17.6993V43.568H64.6573V20.5736Z" fill="white"/>
<path fill-rule="evenodd" clip-rule="evenodd" d="M136.527 17.6993H133.402V17.7012H122.153V20.5736H132.15L122.153 43.57H125.278V43.568H136.525V40.6957H126.527L136.527 17.6993Z" fill="white"/>
<path fill-rule="evenodd" clip-rule="evenodd" d="M117.808 36.3823C117.808 37.5727 117.325 38.6516 116.545 39.4308C115.766 40.2101 114.687 40.6937 113.497 40.6937C112.306 40.6937 111.228 40.2101 110.448 39.4308C109.669 38.6516 109.185 37.5727 109.185 36.3823V17.6993H106.311V36.3823C106.311 38.3657 107.116 40.1631 108.416 41.4632C109.716 42.7633 111.513 43.568 113.497 43.568C115.48 43.568 117.278 42.7633 118.578 41.4632C119.878 40.1631 120.683 38.3657 120.683 36.3823V17.6993H117.808V36.3823Z" fill="white"/>
<path fill-rule="evenodd" clip-rule="evenodd" d="M53.1539 24.3799L57.3793 43.568H60.3221L54.6263 17.6993H51.6835L45.9878 43.568H48.9306L53.1559 24.3799H53.1539Z" fill="white"/>
<path fill-rule="evenodd" clip-rule="evenodd" d="M35.9082 30.6395L42.7455 43.57H45.982L39.1448 30.6337L45.982 17.6993H42.7455L35.9082 30.6297V17.6993H33.0476V43.57H35.9082V30.6395Z" fill="white"/>
<path fill-rule="evenodd" clip-rule="evenodd" d="M101.753 17.6993L94.8276 30.6337L101.753 43.57H104.999L98.0739 30.6337L104.999 17.6993H101.753Z" fill="white"/>
<path fill-rule="evenodd" clip-rule="evenodd" d="M202.505 36.2567H191.259V39.0722H201.256L199.378 43.3014H202.503L205.63 36.2567H202.505Z" fill="white"/>
<path fill-rule="evenodd" clip-rule="evenodd" d="M201.979 17.4327H198.854L191.259 34.5454H194.384H205.63V31.7298H195.633L201.979 17.4327Z" fill="white"/>
<path fill-rule="evenodd" clip-rule="evenodd" d="M184.181 31.4479H181.056L175.857 43.1605H178.98H190.229V40.3449H180.231L184.181 31.4479Z" fill="white"/>
<path fill-rule="evenodd" clip-rule="evenodd" d="M166.678 17.4327C164.695 17.4327 162.898 18.2374 161.597 19.5375C160.297 20.8376 159.493 22.635 159.493 24.6184V36.1157C159.493 38.0991 160.297 39.8965 161.597 41.1966C162.898 42.4967 164.695 43.3014 166.678 43.3014C168.662 43.3014 170.459 42.4967 171.759 41.1966C173.059 39.8965 173.864 38.0991 173.864 36.1157V24.6184C173.864 22.635 173.059 20.8376 171.759 19.5375C170.459 18.2374 168.662 17.4327 166.678 17.4327ZM170.99 27.8863V36.1157C170.99 37.3061 170.506 38.385 169.727 39.1642C168.948 39.9435 167.869 40.4271 166.678 40.4271C165.488 40.4271 164.409 39.9435 163.63 39.1642C162.851 38.385 162.367 37.3061 162.367 36.1157V24.6184C162.367 23.428 162.851 22.3492 163.63 21.5699C164.409 20.7906 165.488 20.307 166.678 20.307C167.869 20.307 168.948 20.7906 169.727 21.5699C170.506 22.3492 170.99 23.428 170.99 24.6184V27.8863Z" fill="white"/>
<path fill-rule="evenodd" clip-rule="evenodd" d="M186.54 24.1858V31.6437H189.414V24.1858C189.414 22.2023 188.61 20.4049 187.31 19.1048C186.009 17.8047 184.212 17 182.229 17C180.245 17 178.448 17.8047 177.148 19.1048C175.848 20.4049 175.043 22.2023 175.043 24.1858V24.2034H177.917V24.1858C177.917 22.9953 178.401 21.9165 179.18 21.1372C179.959 20.3579 181.038 19.8743 182.229 19.8743C183.419 19.8743 184.498 20.3579 185.277 21.1372C186.056 21.9165 186.54 22.9953 186.54 24.1858Z" fill="white"/>
<path fill-rule="evenodd" clip-rule="evenodd" d="M152.657 31.4479H149.532L144.334 43.1605H147.457H158.705V40.3449H148.708L152.657 31.4479Z" fill="white"/>
<path fill-rule="evenodd" clip-rule="evenodd" d="M155.017 24.1858V31.6437H157.891V24.1858C157.891 22.2023 157.086 20.4049 155.786 19.1048C154.486 17.8047 152.689 17 150.705 17C148.722 17 146.924 17.8047 145.624 19.1048C144.324 20.4049 143.519 22.2023 143.519 24.1858V24.2034H146.394V24.1858C146.394 22.9953 146.877 21.9165 147.657 21.1372C148.436 20.3579 149.515 19.8743 150.705 19.8743C151.896 19.8743 152.974 20.3579 153.754 21.1372C154.533 21.9165 155.017 22.9953 155.017 24.1858Z" fill="white"/>
</g>
<defs>
<clipPath id="clip0_283_4">
<rect width="206" height="44" fill="white"/>
</clipPath>
</defs>
</svg>
