<svg width="579" height="1057" viewBox="0 0 579 1057" fill="none" xmlns="http://www.w3.org/2000/svg">
<g clip-path="url(#clip0_105_2)">
<path fill-rule="evenodd" clip-rule="evenodd" d="M398.58 288.093C424.279 367.238 201.35 517.113 201.35 665.123C201.35 763.612 281.195 843.454 379.68 843.454C478.169 843.454 558.01 763.612 558.01 665.123C632.635 843.124 499.762 1057 293.904 1057C50.3598 1057 -82.161 772.298 82.371 568.889C160.885 471.822 358.293 375.044 398.58 288.093Z" fill="url(#paint0_linear_105_2)"/>
<path fill-rule="evenodd" clip-rule="evenodd" d="M398.79 293.167C419.729 365.776 197.162 520.884 197.162 669.965C197.162 767.035 274.164 846.112 370.415 849.468L370.198 849.471C209.701 849.023 149.475 741.955 187.695 617.748C225.911 493.541 411.069 367.697 398.79 293.167Z" fill="url(#paint1_linear_105_2)"/>
<path fill-rule="evenodd" clip-rule="evenodd" d="M180.703 336.059C183.528 339.749 186.407 342.841 189.281 345.363C190.26 346.121 191.167 346.865 192.007 347.587C210.227 361.317 227.644 352.212 230.597 326.079L237.556 332.423C240.164 327.662 254.578 301.945 259.481 283.375C236.549 258.405 222.541 225.102 222.541 188.525C222.541 153.031 235.731 120.624 257.467 95.9172C255.588 90.6727 253.588 85.4744 251.692 81.0162C210.743 101.119 178.679 136.536 162.949 179.794L162.945 179.776L162.764 180.299L162.383 181.353C161.985 182.356 161.561 182.957 160.576 183.039C159.152 183.156 158.558 183.63 157.672 186.476C156.783 189.322 155 196.734 154.705 198.335C154.41 199.929 154.748 201.612 156.58 201.58C153.783 214.09 152.303 227.102 152.303 240.455C152.303 255.566 154.193 270.232 157.747 284.236C159.049 283.393 160.359 282.553 161.664 281.71C161.664 281.71 166.941 316.65 180.703 336.059Z" fill="url(#paint2_linear_105_2)"/>
<path fill-rule="evenodd" clip-rule="evenodd" d="M302.888 34.3207C283.237 13.6343 255.645 0.565726 224.993 0C234.724 10.4392 243.199 22.0633 250.187 34.6267C259.274 33.2106 268.425 32.5097 277.559 32.5132C279.014 32.5132 280.469 32.531 281.924 32.5702C289.022 32.7409 296.021 33.3351 302.888 34.3207Z" fill="url(#paint3_linear_105_2)"/>
<path fill-rule="evenodd" clip-rule="evenodd" d="M249.757 47.3573C343.969 217.15 242.797 433.93 47.8088 466.646C52.2421 474.505 57.0347 482.134 62.1689 489.509C259 447.688 409.706 281.087 427.571 76.4228C373.123 47.6633 310.452 37.5798 249.757 47.3573Z" fill="url(#paint4_linear_105_2)"/>
<path fill-rule="evenodd" clip-rule="evenodd" d="M36.0709 468.378C24.2441 469.862 12.2039 470.613 0 470.591C11.165 479.739 23.4756 487.556 36.7042 493.8C40.9774 493.199 45.2327 492.537 49.4667 491.822C44.6421 484.24 40.1732 476.416 36.0709 468.378Z" fill="url(#paint5_linear_105_2)"/>
<path fill-rule="evenodd" clip-rule="evenodd" d="M556.733 837.555C522.288 957.329 417.654 1044.43 293.904 1044.43C170.15 1044.43 65.5168 957.329 31.0754 837.555C78.4216 935.173 178.316 1002.46 293.904 1002.46C409.489 1002.46 509.383 935.173 556.733 837.555Z" fill="url(#paint6_linear_105_2)"/>
<path fill-rule="evenodd" clip-rule="evenodd" d="M154.185 514.07C155.178 522.364 151.25 529.58 147.162 535.276C122.843 579.78 36.3413 643.44 18.6047 760.037C28.5671 630.29 92.9097 562.719 154.185 514.07Z" fill="#FEFEFE"/>
<path fill-rule="evenodd" clip-rule="evenodd" d="M545.465 770.721C548.012 766.786 543.974 754.233 540.839 760.346C520.978 799.125 458.76 849.713 398.328 855.434C482.317 849.233 534.154 807.625 545.465 770.721Z" fill="#FEFEFE"/>
<path fill-rule="evenodd" clip-rule="evenodd" d="M286.258 50.8264C278.103 51.2675 267.625 51.6732 259.883 52.7406C303.162 155.589 302.45 215.833 264.665 304.937C317.739 219.63 306.755 116.102 286.258 50.8264Z" fill="#FEFEFE"/>
<path fill-rule="evenodd" clip-rule="evenodd" d="M59.205 477.092C58.4436 475.099 55.9138 471.588 55.2805 469.36C78.4822 464.109 128.44 450.766 173.996 415.392C145.226 445.422 100.289 465.404 59.205 477.092Z" fill="#FEFEFE"/>
<path fill-rule="evenodd" clip-rule="evenodd" d="M108.889 474.274C193.775 441.031 292.257 365.84 346.904 292.544C287.037 379.161 207.939 439.555 108.889 474.274Z" fill="url(#paint7_linear_105_2)"/>
<path fill-rule="evenodd" clip-rule="evenodd" d="M263.921 30.2289C260.285 30.7377 254.329 31.1505 251.717 31.5241C248.518 24.8919 241.018 12.4175 227.185 1.13855C251.724 5.00968 257.922 14.0791 263.921 30.2289Z" fill="#FEFEFE"/>
<path fill-rule="evenodd" clip-rule="evenodd" d="M37.6436 478.821C37.1917 477.871 34.3703 472.502 34.075 471.922C30.0936 472.434 20.7396 474.003 8.37207 473.253C18.5835 481.433 30.8301 480.123 37.6436 478.821Z" fill="#FEFEFE"/>
<path fill-rule="evenodd" clip-rule="evenodd" d="M180.063 335.137H180.066L180.703 336.059C183.528 339.749 186.407 342.84 189.281 345.363C190.26 346.121 191.167 346.865 192.007 347.587C210.227 361.317 227.644 352.212 230.597 326.079C233.226 309.349 223.484 276.896 213.362 268.079C216.386 267.072 218.204 266.3 222.118 265.542C193.444 268.204 174.388 274.811 161.671 281.771C161.906 283.276 167.083 316.017 180.063 335.137Z" fill="url(#paint8_linear_105_2)"/>
<path fill-rule="evenodd" clip-rule="evenodd" d="M209.968 250.99C197.443 236.224 180.038 252.353 170.011 240.323C165.777 235.242 166.902 228.027 172.747 224.319C178.59 220.615 187.584 221.412 187.929 230.243C181.073 228.283 179.177 238.053 191.783 237.448C193.12 237.381 195.586 237.544 197.223 237.946C185.884 232.214 196.593 221.37 201.478 230.065C196.141 231.375 197.678 235.94 201.083 238.018C205.385 240.64 208.619 244.561 209.968 250.99Z" fill="url(#paint9_linear_105_2)"/>
<path fill-rule="evenodd" clip-rule="evenodd" d="M243.708 294.27C245.864 296.124 247.551 298.582 248.461 301.496C251.066 309.794 246.451 318.628 238.157 321.233C229.86 323.837 221.022 319.222 218.418 310.925C217.503 308.015 217.478 305.037 218.19 302.283C222.577 303.894 227.508 304.126 232.312 302.617C237.115 301.112 241.032 298.102 243.708 294.27Z" fill="url(#paint10_linear_105_2)"/>
<path fill-rule="evenodd" clip-rule="evenodd" d="M228.932 334.735C229.679 332.099 230.241 329.213 230.597 326.079L237.556 332.423C238.887 329.996 243.288 322.115 247.931 312.512L247.917 312.476L246.928 312.06L244.437 316.209C244.437 316.209 229.142 317.102 229.914 321.724C230.668 326.274 228.985 334.479 228.932 334.735Z" fill="url(#paint11_linear_105_2)"/>
<path fill-rule="evenodd" clip-rule="evenodd" d="M161.92 283.268C169.545 277.885 194.423 269.766 205.175 270.716C217.607 271.812 232.596 319.592 228.928 334.739L228.964 334.614L228.999 334.493L229.035 334.365L229.067 334.244L229.198 333.76L229.202 333.739L229.234 333.611L229.266 333.486L229.298 333.358L229.33 333.23L229.362 333.102L229.394 332.974L229.426 332.846L229.455 332.714L229.487 332.586L229.515 332.455L229.547 332.326L229.576 332.195L229.604 332.063L229.693 331.668L229.722 331.533L229.775 331.27L229.803 331.135L229.832 330.999L229.857 330.868L229.874 330.775L229.882 330.733L229.91 330.597L229.988 330.188L230.013 330.053L230.038 329.918L230.063 329.779L230.084 329.64H230.088L230.109 329.501L230.134 329.363L230.269 328.527L230.277 328.477L230.291 328.384L230.437 327.388L230.447 327.288L230.454 327.242L230.472 327.1L230.597 326.079C233.226 309.349 223.484 276.896 213.362 268.079C216.386 267.072 218.204 266.3 222.118 265.542C194.814 268.079 174.249 274.174 161.664 281.71C161.682 281.831 161.767 282.39 161.92 283.268Z" fill="url(#paint12_linear_105_2)"/>
<path fill-rule="evenodd" clip-rule="evenodd" d="M242.744 292.9C244.729 294.604 246.28 296.867 247.12 299.546C249.518 307.186 245.27 315.319 237.634 317.717C229.995 320.115 221.862 315.867 219.464 308.228C218.62 305.549 218.599 302.806 219.254 300.272C223.292 301.756 227.832 301.97 232.255 300.582C236.674 299.194 240.278 296.426 242.744 292.9Z" fill="url(#paint13_linear_105_2)"/>
<path fill-rule="evenodd" clip-rule="evenodd" d="M231.251 297.383C233.852 296.565 236.628 298.013 237.442 300.617C238.261 303.222 236.813 305.994 234.208 306.812C231.607 307.627 228.832 306.179 228.017 303.578C227.199 300.973 228.647 298.202 231.251 297.383Z" fill="url(#paint14_linear_105_2)"/>
<path fill-rule="evenodd" clip-rule="evenodd" d="M240.239 90.1781C240.114 93.3661 238.197 95.9385 236.311 97.931C224.456 113.796 187.972 134.308 174.274 177.816C185.827 128.985 214.18 106.058 240.239 90.1781Z" fill="#FEFEFE"/>
<path fill-rule="evenodd" clip-rule="evenodd" d="M155.324 231.072C158.615 230.994 160.729 237.068 160.899 244.383C161.07 251.698 159.234 257.491 155.94 257.565C152.648 257.64 148.614 251.976 148.446 244.66C148.279 237.345 152.033 231.147 155.324 231.072Z" fill="url(#paint15_linear_105_2)"/>
<path fill-rule="evenodd" clip-rule="evenodd" d="M208.342 249.108C196.557 235.217 179.294 250.556 169.862 239.238C165.877 234.46 166.937 227.671 172.434 224.184C177.931 220.697 186.531 220.775 186.858 229.087C180.408 227.244 176.967 237.185 190.342 236.53C192.217 236.441 193.921 236.623 195.462 237.004V237C184.791 231.613 194.864 221.409 199.461 229.589C194.44 230.82 195.696 236.409 199.037 238.128C201.61 239.455 207.075 243.056 208.342 249.108Z" fill="url(#paint16_linear_105_2)"/>
<path fill-rule="evenodd" clip-rule="evenodd" d="M153.563 236.025C154.541 236.313 153.218 237.726 152.442 240.284C151.666 242.842 151.741 245.582 150.763 245.294C149.784 245.006 149.393 242.703 150.165 240.145C150.937 237.587 152.584 235.74 153.563 236.025Z" fill="#FEFEFE"/>
<path fill-rule="evenodd" clip-rule="evenodd" d="M165.201 282.475C166.973 283.418 167.855 285.183 168.417 286.773C173.858 297.686 174.537 323.496 195.109 343.011C170.876 323.225 166.382 301.247 165.201 282.475Z" fill="#FEFEFE"/>
<path fill-rule="evenodd" clip-rule="evenodd" d="M415.285 74.9355C413.161 74.2417 409.115 71.5341 406.795 71.0253C407.393 100.536 406.699 164.334 383.48 225.415C405.628 185.878 414.018 127.495 415.285 74.9355Z" fill="#FEFEFE"/>
<path fill-rule="evenodd" clip-rule="evenodd" d="M234.863 251.257C214.273 202.327 214.611 173.667 232.586 131.277C212.526 164.224 199.735 212.304 234.863 251.257Z" fill="url(#paint17_linear_105_2)"/>
<path fill-rule="evenodd" clip-rule="evenodd" d="M214.383 211.119C214.753 212.923 211.245 205.149 196.344 203.298C194.647 203.092 194.081 202.818 193.821 201.035C191.779 186.971 177.853 181.167 164.023 183C176.035 181.719 191.487 189.639 191.562 201.651C191.58 205.038 193.284 205.355 195.262 205.558C206.41 206.707 210.565 212.265 213.28 222.191C213.771 223.985 217.621 223.27 218.482 225.198C220.471 229.67 216.568 214.31 214.383 211.119Z" fill="url(#paint18_linear_105_2)"/>
<path fill-rule="evenodd" clip-rule="evenodd" d="M162.383 183.918L161.358 187.846C171.314 187.134 178.896 188.935 187.04 195.556C182.45 188.308 175.114 183.743 162.383 183.918Z" fill="#FEFEFE"/>
<path fill-rule="evenodd" clip-rule="evenodd" d="M159.764 258.967C166.528 253.118 162.76 228.767 156.057 229.386C167.798 228.446 163.86 250.335 168.165 252.335C166.571 253.726 161.383 257.871 159.764 258.967Z" fill="url(#paint19_linear_105_2)"/>
<path fill-rule="evenodd" clip-rule="evenodd" d="M155.883 276.085C174.69 280.056 167.247 259.017 178.109 257.722C161.511 259.362 172.342 272.274 155.883 276.085Z" fill="url(#paint20_linear_105_2)"/>
<path fill-rule="evenodd" clip-rule="evenodd" d="M153.456 260.8C151.645 260.728 153.965 276.231 155.883 276.085C160.988 275.697 165.29 274.345 167.329 269.261C169.147 264.713 170.171 259.494 175.729 258.01C182.397 256.235 184.087 262.13 182.82 264.614C187.339 259.736 185.684 256.434 183.681 254.078C181.888 251.965 177.981 250.211 174.402 250.524C163.308 251.495 162.436 261.145 153.456 260.8Z" fill="url(#paint21_linear_105_2)"/>
<path fill-rule="evenodd" clip-rule="evenodd" d="M178.622 251.008C187.449 252.623 190.858 260.55 182.82 264.614C187.342 259.732 185.684 256.434 183.681 254.075C182.592 252.794 180.724 251.645 178.622 251.008ZM182.827 264.596L183.037 264.055C182.98 264.247 182.913 264.429 182.827 264.596Z" fill="url(#paint22_linear_105_2)"/>
<path fill-rule="evenodd" clip-rule="evenodd" d="M154.915 197.324C154.584 198.915 154.096 201.626 156.58 201.58C164.874 202.736 174.309 201.8 181.717 209.667C175.9 195.659 154.506 202.007 154.915 197.324Z" fill="url(#paint23_linear_105_2)"/>
<path fill-rule="evenodd" clip-rule="evenodd" d="M182.934 212.713C181.792 218.185 183.806 219.455 186.666 219.495C193.707 219.591 200.482 220.783 203.798 227.347C202.503 219.918 196.056 216.467 187.033 215.787C185.947 215.709 182.599 215.353 182.934 212.713Z" fill="url(#paint24_linear_105_2)"/>
<path fill-rule="evenodd" clip-rule="evenodd" d="M204.463 230.346C203.684 235.025 206.118 236.36 207.502 236.384C212.746 236.484 217.073 238.637 221.67 244.237C219.713 239.533 217.144 235.591 213.045 234.061C208.897 232.51 204.353 234.008 204.463 230.346Z" fill="url(#paint25_linear_105_2)"/>
<path fill-rule="evenodd" clip-rule="evenodd" d="M189.844 206.792C189.879 207.767 190.48 208.226 191.071 208.504C194.786 211.307 206.214 211.069 210.505 222.195C206.886 209.009 198.006 207.006 189.844 206.792Z" fill="#FEFEFE"/>
<path fill-rule="evenodd" clip-rule="evenodd" d="M155.196 224.312C153.168 224.109 152.403 220.039 152.947 215.321C153.492 210.599 155.132 207.017 157.163 207.219C159.195 207.422 161.173 211.379 160.629 216.097C160.085 220.818 157.228 224.515 155.196 224.312Z" fill="url(#paint26_linear_105_2)"/>
<path fill-rule="evenodd" clip-rule="evenodd" d="M156.85 207.077C158.515 207.372 158.971 211.471 158.323 216.164C157.679 220.857 156.178 224.365 154.513 224.067C152.848 223.771 151.385 219.729 152.033 215.04C152.68 210.347 155.185 206.778 156.85 207.077Z" fill="url(#paint27_linear_105_2)"/>
</g>
<defs>
<linearGradient id="paint0_linear_105_2" x1="294.222" y1="288.093" x2="294.222" y2="1057" gradientUnits="userSpaceOnUse">
<stop stop-color="white"/>
<stop offset="1" stop-color="white" stop-opacity="0"/>
</linearGradient>
<linearGradient id="paint1_linear_105_2" x1="176.547" y1="294.363" x2="400.294" y2="294.363" gradientUnits="userSpaceOnUse">
<stop stop-color="#FFE072"/>
<stop offset="1" stop-color="#FF8DBC"/>
</linearGradient>
<linearGradient id="paint2_linear_105_2" x1="205.892" y1="81.0162" x2="205.892" y2="353.946" gradientUnits="userSpaceOnUse">
<stop stop-color="white"/>
<stop offset="1" stop-color="white" stop-opacity="0"/>
</linearGradient>
<linearGradient id="paint3_linear_105_2" x1="263.94" y1="0" x2="263.94" y2="34.6267" gradientUnits="userSpaceOnUse">
<stop stop-color="white"/>
<stop offset="1" stop-color="white" stop-opacity="0"/>
</linearGradient>
<linearGradient id="paint4_linear_105_2" x1="237.69" y1="43.7294" x2="237.69" y2="489.509" gradientUnits="userSpaceOnUse">
<stop stop-color="white"/>
<stop offset="1" stop-color="white" stop-opacity="0"/>
</linearGradient>
<linearGradient id="paint5_linear_105_2" x1="24.7334" y1="468.378" x2="24.7334" y2="493.8" gradientUnits="userSpaceOnUse">
<stop stop-color="white"/>
<stop offset="1" stop-color="white" stop-opacity="0"/>
</linearGradient>
<linearGradient id="paint6_linear_105_2" x1="31" y1="838" x2="557" y2="838" gradientUnits="userSpaceOnUse">
<stop stop-color="#FFE072"/>
<stop offset="1" stop-color="#FF8DBC"/>
</linearGradient>
<linearGradient id="paint7_linear_105_2" x1="108.855" y1="292.935" x2="347.025" y2="292.935" gradientUnits="userSpaceOnUse">
<stop stop-color="#FFE072"/>
<stop offset="1" stop-color="#FF8DBC"/>
</linearGradient>
<linearGradient id="paint8_linear_105_2" x1="196.351" y1="265.542" x2="196.351" y2="353.946" gradientUnits="userSpaceOnUse">
<stop stop-color="white"/>
<stop offset="1" stop-color="white" stop-opacity="0"/>
</linearGradient>
<linearGradient id="paint9_linear_105_2" x1="167.455" y1="222.296" x2="209.989" y2="222.296" gradientUnits="userSpaceOnUse">
<stop stop-color="#FFE072"/>
<stop offset="1" stop-color="#FF8DBC"/>
</linearGradient>
<linearGradient id="paint10_linear_105_2" x1="217.686" y1="294.329" x2="249.204" y2="294.329" gradientUnits="userSpaceOnUse">
<stop stop-color="#FFE072"/>
<stop offset="1" stop-color="#FF8DBC"/>
</linearGradient>
<linearGradient id="paint11_linear_105_2" x1="228.929" y1="312.109" x2="247.941" y2="312.109" gradientUnits="userSpaceOnUse">
<stop stop-color="#FFE072"/>
<stop offset="1" stop-color="#FF8DBC"/>
</linearGradient>
<linearGradient id="paint12_linear_105_2" x1="161.654" y1="265.691" x2="231.067" y2="265.691" gradientUnits="userSpaceOnUse">
<stop stop-color="#FFE072"/>
<stop offset="1" stop-color="#FF8DBC"/>
</linearGradient>
<linearGradient id="paint13_linear_105_2" x1="238.278" y1="319.752" x2="233.123" y2="294.273" gradientUnits="userSpaceOnUse">
<stop stop-color="#D89B23"/>
<stop offset="1" stop-color="#FFFBDB"/>
</linearGradient>
<linearGradient id="paint14_linear_105_2" x1="232.73" y1="297.155" x2="232.73" y2="307.039" gradientUnits="userSpaceOnUse">
<stop stop-color="white"/>
<stop offset="1" stop-color="white" stop-opacity="0"/>
</linearGradient>
<linearGradient id="paint15_linear_105_2" x1="157.512" y1="245.696" x2="152.83" y2="245.102" gradientUnits="userSpaceOnUse">
<stop stop-color="#009846"/>
<stop offset="1" stop-color="#51B36E"/>
</linearGradient>
<linearGradient id="paint16_linear_105_2" x1="187.902" y1="222.008" x2="187.902" y2="249.108" gradientUnits="userSpaceOnUse">
<stop stop-color="white"/>
<stop offset="1" stop-color="white" stop-opacity="0"/>
</linearGradient>
<linearGradient id="paint17_linear_105_2" x1="212.842" y1="131.535" x2="234.874" y2="131.535" gradientUnits="userSpaceOnUse">
<stop stop-color="#FFE072"/>
<stop offset="1" stop-color="#FF8DBC"/>
</linearGradient>
<linearGradient id="paint18_linear_105_2" x1="164.015" y1="182.764" x2="219.058" y2="182.764" gradientUnits="userSpaceOnUse">
<stop stop-color="#FFE072"/>
<stop offset="1" stop-color="#FF8DBC"/>
</linearGradient>
<linearGradient id="paint19_linear_105_2" x1="156.055" y1="229.42" x2="168.171" y2="229.42" gradientUnits="userSpaceOnUse">
<stop stop-color="#FFE072"/>
<stop offset="1" stop-color="#FF8DBC"/>
</linearGradient>
<linearGradient id="paint20_linear_105_2" x1="155.879" y1="257.762" x2="178.121" y2="257.762" gradientUnits="userSpaceOnUse">
<stop stop-color="#FFE072"/>
<stop offset="1" stop-color="#FF8DBC"/>
</linearGradient>
<linearGradient id="paint21_linear_105_2" x1="169.253" y1="250.488" x2="169.253" y2="276.086" gradientUnits="userSpaceOnUse">
<stop stop-color="white"/>
<stop offset="1" stop-color="white" stop-opacity="0"/>
</linearGradient>
<linearGradient id="paint22_linear_105_2" x1="178.62" y1="251.037" x2="187.363" y2="251.037" gradientUnits="userSpaceOnUse">
<stop stop-color="#FFE072"/>
<stop offset="1" stop-color="#FF8DBC"/>
</linearGradient>
<linearGradient id="paint23_linear_105_2" x1="154.637" y1="197.351" x2="181.731" y2="197.351" gradientUnits="userSpaceOnUse">
<stop stop-color="#FFE072"/>
<stop offset="1" stop-color="#FF8DBC"/>
</linearGradient>
<linearGradient id="paint24_linear_105_2" x1="182.606" y1="212.744" x2="203.809" y2="212.744" gradientUnits="userSpaceOnUse">
<stop stop-color="#FFE072"/>
<stop offset="1" stop-color="#FF8DBC"/>
</linearGradient>
<linearGradient id="paint25_linear_105_2" x1="204.31" y1="230.376" x2="221.679" y2="230.376" gradientUnits="userSpaceOnUse">
<stop stop-color="#FFE072"/>
<stop offset="1" stop-color="#FF8DBC"/>
</linearGradient>
<linearGradient id="paint26_linear_105_2" x1="152.776" y1="207.248" x2="160.724" y2="207.248" gradientUnits="userSpaceOnUse">
<stop stop-color="#FFE072"/>
<stop offset="1" stop-color="#FF8DBC"/>
</linearGradient>
<linearGradient id="paint27_linear_105_2" x1="155.241" y1="207.06" x2="155.241" y2="224.084" gradientUnits="userSpaceOnUse">
<stop stop-color="white"/>
<stop offset="1" stop-color="white" stop-opacity="0"/>
</linearGradient>
<clipPath id="clip0_105_2">
<rect width="579" height="1057" fill="white"/>
</clipPath>
</defs>
</svg>
