<svg width="605" height="201" viewBox="0 0 605 201" fill="none" xmlns="http://www.w3.org/2000/svg">
<path d="M25.1957 18.64L20.5965 8.48L16.0772 18.64H25.1957ZM30.5148 30.44L28.3151 25.6H12.9178L10.7582 30.44H0L13.7576 0.680001H27.8752L41.9528 30.44H30.5148Z" fill="white"/>
<path d="M44.7129 30.44V8.12H54.9112V11.6C56.231 10.2 58.9905 7.52 64.4296 7.52H64.8295C71.5083 7.52 74.3879 11.72 74.3879 16V30.44H64.0696V19.28C64.0696 16.96 62.8698 15.04 59.6304 15.04C56.4709 15.04 54.9912 17.04 54.9912 19.64V30.44H44.7129Z" fill="white"/>
<path d="M90.4148 0V6.04H80.1366V0H90.4148ZM90.4148 8.12V30.44H80.1366V8.12H90.4148Z" fill="white"/>
<path d="M106.584 30.44H96.3056V8.12H106.504V11.64C107.464 10.36 110.303 7.52 115.542 7.52H115.702C120.302 7.52 122.901 9.56 124.181 12C125.981 9.88 129.18 7.52 133.979 7.52H134.299C141.458 7.52 143.698 12 143.698 15.96V30.44H133.459V18.96C133.459 17.04 132.459 15.04 129.38 15.04C126.5 15.04 125.141 16.92 125.141 19.48V30.44H114.902V18.96C114.902 17.04 113.943 15.04 110.783 15.04C107.904 15.04 106.584 16.92 106.584 19.48V30.44Z" fill="white"/>
<path d="M161.538 25.32C165.177 25.32 166.617 23.08 166.617 21.32V20.24C165.857 20.4 164.297 20.68 162.577 20.96C159.258 21.48 158.458 22.04 158.458 23.32V23.4C158.458 24.56 159.458 25.32 161.538 25.32ZM166.897 27.64C166.177 28.48 163.697 30.92 158.218 30.92H157.538C151.299 30.92 148.3 27.88 148.3 23.72V23.52C148.3 19.36 150.859 17.24 158.738 16.72L165.057 16.36C166.217 16.24 166.617 15.88 166.617 15.08V15.04C166.617 14.08 166.137 13.24 162.897 13.24H162.737C159.258 13.24 158.978 14.76 158.978 15.32H148.86V15.28C148.86 12.28 150.1 7.56 162.057 7.56H163.417C175.615 7.56 176.695 11.84 176.695 15.32V22.2C176.695 23 176.935 23.36 177.775 23.36H179.015V30.44H170.696C168.456 30.44 167.297 28.88 166.897 27.64Z" fill="white"/>
<path d="M200.182 23.24V30.44H191.543C188.024 30.44 185.464 28.52 185.464 24.52V14.8H180.945V8.12H185.464V1.4H195.622V8.12H200.182V14.8H195.622V20.96C195.622 22.6 196.022 23.24 197.782 23.24H200.182Z" fill="white"/>
<path d="M215.432 0V6.04H205.154V0H215.432ZM215.432 8.12V30.44H205.154V8.12H215.432Z" fill="white"/>
<path d="M236.761 31.04H235.441C221.723 31.04 220.163 23.64 220.163 19.64V19.08C220.163 15.16 221.763 7.52 235.401 7.52H236.801C250.958 7.52 252.078 15.16 252.078 19.04V19.68C252.078 23.64 250.998 31.04 236.761 31.04ZM235.961 24.32H236.281C240.28 24.32 241.36 21.24 241.36 19.2C241.36 16.96 240.28 14.12 236.281 14.12H235.961C231.841 14.12 230.882 16.96 230.882 19.2C230.882 21.28 231.801 24.32 235.961 24.32Z" fill="white"/>
<path d="M256.747 30.44V8.12H266.945V11.6C268.265 10.2 271.024 7.52 276.463 7.52H276.863C283.542 7.52 286.422 11.72 286.422 16V30.44H276.104V19.28C276.104 16.96 274.904 15.04 271.664 15.04C268.505 15.04 267.025 17.04 267.025 19.64V30.44H256.747Z" fill="white"/>
<path d="M326.355 18.64L321.756 8.48L317.236 18.64H326.355ZM331.674 30.44L329.474 25.6H314.077L311.917 30.44H301.159L314.917 0.680001H329.034L343.112 30.44H331.674Z" fill="white"/>
<path d="M356.15 0.16V30.44H345.872V0.16H356.15Z" fill="white"/>
<path d="M372.319 30.44H362.041V8.12H372.24V11.64C373.199 10.36 376.039 7.52 381.278 7.52H381.438C386.037 7.52 388.637 9.56 389.916 12C391.716 9.88 394.916 7.52 399.715 7.52H400.035C407.193 7.52 409.433 12 409.433 15.96V30.44H399.195V18.96C399.195 17.04 398.195 15.04 395.116 15.04C392.236 15.04 390.876 16.92 390.876 19.48V30.44H380.638V18.96C380.638 17.04 379.678 15.04 376.519 15.04C373.639 15.04 372.319 16.92 372.319 19.48V30.44Z" fill="white"/>
<path d="M429.833 13.2C426.513 13.2 425.274 14.4 424.794 16.6H434.752C434.752 14.84 433.792 13.2 429.833 13.2ZM434.792 23.16H445.59C445.43 25.8 443.59 31 430.953 31H429.193C416.635 31 414.075 24.56 414.075 19.56V19C414.075 13.88 416.715 7.56 428.753 7.56H430.553C443.35 7.56 445.67 13.84 445.67 20.24V21.08H424.714C425.154 23.48 426.673 24.88 430.393 24.88C433.992 24.88 434.552 23.52 434.792 23.16Z" fill="white"/>
<path d="M467.753 23.24V30.44H459.114C455.595 30.44 453.035 28.52 453.035 24.52V14.8H448.516V8.12H453.035V1.4H463.194V8.12H467.753V14.8H463.194V20.96C463.194 22.6 463.594 23.24 465.353 23.24H467.753Z" fill="white"/>
<path d="M485.234 0.680001H514.628V8.04H496.032V12.44H514.069V19.92H496.032V30.44H485.234V0.680001Z" fill="white"/>
<path d="M534.229 13.2C530.909 13.2 529.67 14.4 529.19 16.6H539.148C539.148 14.84 538.188 13.2 534.229 13.2ZM539.188 23.16H549.986C549.826 25.8 547.986 31 535.349 31H533.589C521.031 31 518.472 24.56 518.472 19.56V19C518.472 13.88 521.111 7.56 533.149 7.56H534.949C547.747 7.56 550.066 13.84 550.066 20.24V21.08H529.11C529.55 23.48 531.069 24.88 534.789 24.88C538.388 24.88 538.948 23.52 539.188 23.16Z" fill="white"/>
<path d="M568.1 30.96H566.98C554.223 30.96 553.343 25.92 553.343 23.36V23.24H564.341C564.461 23.92 564.821 25.16 567.9 25.16H567.98C570.74 25.16 571.5 24.44 571.5 23.52C571.5 22.52 570.86 22.08 567.74 21.88L564.221 21.6C555.622 21.16 553.783 18 553.783 14.52V14.28C553.783 10.6 556.422 7.64 567.14 7.64H568.06C579.858 7.64 581.818 11.24 581.818 14.76V14.8H571.18C570.98 14.16 570.62 13.04 567.7 13.04H567.5C564.821 13.04 564.141 13.6 564.141 14.56C564.141 15.52 564.941 16.04 567.7 16.16L571.3 16.28C580.138 16.72 582.178 19.24 582.178 23.12V23.48C582.178 27.12 580.458 30.96 568.1 30.96Z" fill="white"/>
<path d="M604.097 23.24V30.44H595.458C591.939 30.44 589.379 28.52 589.379 24.52V14.8H584.86V8.12H589.379V1.4H599.537V8.12H604.097V14.8H599.537V20.96C599.537 22.6 599.937 23.24 601.697 23.24H604.097Z" fill="white"/>
<path d="M355.757 51.0409V200.04H339.206V51.0409H355.757ZM414.426 51.04L374.54 125.54L414.426 200.04H395.725L355.84 125.54L395.725 51.04H414.426Z" fill="white"/>
<path d="M16.4761 51.0409V125.516L55.85 51.04H74.4979L35.1106 125.54L74.4979 200.04H55.8492L16.4761 125.566V200.04H0V51.0409H16.4761Z" fill="white"/>
<path d="M124.283 51.04L157.091 200.04H140.144L115.809 89.5203L91.4738 200.04H74.5279L107.336 51.04H124.283Z" fill="white"/>
<path d="M298.012 51.04L330.82 200.04H313.873L289.538 89.5203L265.202 200.04H248.257L281.065 51.04H298.012Z" fill="white"/>
<path d="M438.537 51.0408V158.652C438.537 165.509 441.316 171.719 445.81 176.213C450.303 180.706 456.513 183.486 463.371 183.486C470.228 183.486 476.439 180.706 480.932 176.213C485.425 171.72 488.206 165.509 488.206 158.652V51.0408H504.757V158.652C504.757 170.078 500.124 180.427 492.635 187.916C485.146 195.404 474.797 200.037 463.371 200.037C451.944 200.037 441.596 195.404 434.107 187.916C426.618 180.427 421.985 170.079 421.985 158.652V51.0408H438.537Z" fill="white"/>
<path d="M604.092 200.037H539.309L539.308 200.04H521.311L578.902 67.5939H521.315V51.0425H586.099L586.1 51.04H604.097L546.506 183.486H604.092V200.037Z" fill="white"/>
<path d="M190.336 142.098C210.91 142.098 227.588 125.42 227.588 104.846C227.588 84.2714 210.911 67.5939 190.336 67.5939H182.057V200.04H165.506V51.0408C173.784 51.0408 182.059 51.0425 190.336 51.0425C220.05 51.0425 244.14 75.1323 244.14 104.846C244.14 124.435 233.543 142.355 216.525 151.855L248.256 200.04H228.524L200.619 157.667C197.291 158.311 193.853 158.649 190.336 158.649V142.098L190.336 142.098Z" fill="white"/>
</svg>
