<svg width="1536" height="720" viewBox="0 0 1536 720" fill="none" xmlns="http://www.w3.org/2000/svg">
<path fill-rule="evenodd" clip-rule="evenodd" d="M182.789 410.714C7.90513 468.587 -201.979 480.657 -372.417 341.212L-255.644 198.487C-150.408 284.586 -8.33056 283.995 144.238 228.936C295.885 174.211 434.154 72.9886 503.55 0.133831L638.289 124.901C638.852 125.406 638.855 125.404 638.855 125.404L638.844 125.415L638.784 125.482C638.714 125.56 638.596 125.691 638.432 125.875C638.094 126.253 637.556 126.856 636.825 127.678C635.364 129.323 633.133 131.847 630.179 135.218C624.271 141.962 615.481 152.092 604.206 165.353C581.653 191.881 549.189 230.908 509.997 280.391C475.406 324.065 435.642 375.8 392.877 434.197C652.171 344.447 872.438 314.032 1064.35 320.609C1324.12 329.51 1524.43 406.026 1689.8 482.411L1612.46 649.822C1457.33 578.16 1282.73 512.608 1058.03 504.909C833.121 497.201 550.539 547.287 181.534 719.364L64.9714 585.992C104.858 523.853 144.54 465.168 182.789 410.714Z" fill="url(#paint0_linear_183_54)"/>
<defs>
<linearGradient id="paint0_linear_183_54" x1="-296.473" y1="-128.16" x2="1736.4" y2="202.051" gradientUnits="userSpaceOnUse">
<stop stop-color="#FFE072"/>
<stop offset="1" stop-color="#FF8DBC"/>
</linearGradient>
</defs>
</svg>
