<svg width="571" height="1036" viewBox="0 0 571 1036" fill="none" xmlns="http://www.w3.org/2000/svg">
<g clip-path="url(#clip0_277_2)">
<path fill-rule="evenodd" clip-rule="evenodd" d="M1296.05 541.335C1419.71 596.388 1475.46 741.623 1420.4 865.28L1275.95 800.96C1256.38 844.92 1204.59 865.13 1160.61 845.55L1096.3 990L951.842 925.69C932.269 969.65 880.481 989.86 836.501 970.28L772.186 1114.73C895.839 1169.78 951.589 1315.02 896.536 1438.67L752.082 1374.36C771.655 1330.39 752.019 1278.39 708.04 1258.8L772.354 1114.35C896.007 1169.41 1041.24 1113.65 1096.3 990C1219.95 1045.06 1365.18 989.31 1420.24 865.65L1275.78 801.34C1295.36 757.378 1275.72 705.369 1231.74 685.788L1296.05 541.335L1151.6 477.02C1171.17 433.059 1151.54 381.051 1107.56 361.47L1171.87 217.016C1295.53 272.07 1440.76 216.32 1495.81 92.667L1351.36 28.352C1331.79 72.313 1280 92.522 1236.02 72.941L1171.71 217.394C1295.36 272.448 1351.11 417.682 1296.05 541.335ZM299.698 366.305L444.151 430.62C463.724 386.659 515.512 366.45 559.492 386.031L623.807 241.578L768.26 305.893C787.833 261.932 839.621 241.724 883.601 261.305L947.916 116.851C824.263 61.798 768.513 -83.437 823.566 -207.089L968.02 -142.775C948.447 -98.814 968.083 -46.805 1012.06 -27.224L947.748 117.229C824.095 62.175 678.86 117.926 623.807 241.578C500.163 186.506 354.928 242.256 299.874 365.909L444.328 430.223C424.755 474.184 444.391 526.193 488.37 545.774L424.056 690.227L568.509 754.542C548.936 798.5 568.572 850.51 612.551 870.09L548.237 1014.55C424.584 959.49 279.35 1015.24 224.296 1138.89L368.749 1203.21C388.322 1159.25 440.11 1139.04 484.09 1158.62L548.405 1014.17C424.752 959.11 369.002 813.88 424.056 690.227C300.403 635.173 244.653 489.939 299.698 366.305ZM523.843 466.101L668.296 530.415C687.869 486.455 739.657 466.246 783.637 485.827L847.952 341.374L992.405 405.689C1011.98 361.728 1063.77 341.519 1107.75 361.1L1172.06 216.647C1048.41 161.594 992.658 16.359 1047.71 -107.294L1192.16 -42.979C1172.59 0.982025 1192.23 52.991 1236.21 72.572L1171.89 217.025C1048.24 161.971 903.005 217.721 847.952 341.374C724.299 286.32 579.065 342.071 524.011 465.723L668.464 530.038C648.892 573.999 668.527 626.007 712.507 645.588L648.192 790.04L792.645 854.36C773.073 898.32 792.708 950.33 836.688 969.91L772.373 1114.36C648.721 1059.31 503.486 1115.06 448.432 1238.71L592.886 1303.02C612.458 1259.06 664.247 1238.85 708.227 1258.44L772.541 1113.98C648.889 1058.93 593.138 913.69 648.192 790.04C524.54 734.988 468.789 589.753 523.843 466.101ZM747.988 565.897L892.441 630.211C912.014 586.25 963.802 566.042 1007.78 585.623L1072.1 441.17C948.444 386.116 803.21 441.866 748.156 565.519L892.609 629.834C873.037 673.794 892.672 725.803 936.652 745.384L872.337 889.84C748.685 834.78 692.934 689.549 747.988 565.897ZM1644.55 965.07L1500.1 900.76C1519.67 856.8 1500.03 804.79 1456.05 785.21L1520.37 640.753L1375.91 576.438C1395.49 532.478 1375.85 480.469 1331.87 460.888L1396.19 316.435C1519.84 371.488 1665.07 315.738 1720.13 192.085L1575.67 127.771C1556.1 171.731 1504.31 191.94 1460.33 172.359L1396.02 316.812C1519.67 371.866 1575.42 517.1 1520.37 640.753C1644.02 695.807 1699.77 841.04 1644.72 964.69L1500.26 900.38C1480.69 944.34 1428.9 964.55 1384.92 944.97L1320.61 1089.42L1176.16 1025.11C1156.58 1069.07 1104.79 1089.28 1060.81 1069.69L996.499 1214.15C1120.15 1269.2 1175.9 1414.44 1120.85 1538.09L976.395 1473.77C995.968 1429.81 976.332 1377.8 932.353 1358.22L996.668 1213.77C1120.32 1268.82 1265.55 1213.07 1320.61 1089.42C1444.26 1144.47 1589.5 1088.72 1644.55 965.07ZM1196.28 765.49L1051.82 701.173C1071.4 657.213 1051.76 605.204 1007.78 585.623L1072.1 441.17C1195.75 496.223 1251.5 641.458 1196.45 765.11L1051.99 700.796C1032.42 744.757 980.631 764.965 936.652 745.384L872.337 889.84C995.99 944.89 1141.22 889.14 1196.28 765.49ZM0.327393 1038.7L144.781 1103.02C164.353 1059.06 216.142 1038.85 260.122 1058.43L324.436 913.98C200.784 858.92 145.033 713.687 200.087 590.035L344.54 654.349C324.968 698.31 344.603 750.319 388.583 769.9L324.268 914.35C200.616 859.3 55.3811 915.05 0.327393 1038.7ZM1345.16 1637.46L1200.71 1573.15C1220.28 1529.18 1200.64 1477.18 1156.66 1457.59L1220.98 1313.14C1344.63 1368.2 1489.87 1312.45 1544.92 1188.79L1400.47 1124.48C1380.89 1168.44 1329.1 1188.65 1285.13 1169.07L1220.81 1313.52C1344.46 1368.57 1400.21 1513.81 1345.16 1637.46ZM599.253 -306.508L743.707 -242.193C724.134 -198.232 743.77 -146.223 787.749 -126.643L723.434 17.811C599.782 -37.243 454.547 18.507 399.494 142.16L543.947 206.475C563.519 162.514 615.308 142.305 659.288 161.886L723.603 17.433C599.958 -37.639 544.2 -182.855 599.253 -306.508ZM1944.09 292.25L1799.63 227.936C1780.06 271.896 1728.27 292.105 1684.29 272.524L1619.98 416.977C1743.63 472.031 1799.38 617.265 1744.33 740.918L1599.87 676.603C1619.45 632.642 1599.81 580.634 1555.83 561.053L1620.14 416.6C1743.8 471.653 1889.03 415.903 1944.09 292.25Z" fill="#044C53"/>
</g>
<defs>
<clipPath id="clip0_277_2">
<rect width="571" height="1036" fill="white"/>
</clipPath>
</defs>
</svg>
